%TF.GenerationSoftware,KiCad,Pcbnew,10.0.0*%
%TF.CreationDate,2026-08-30T00:21:04+01:00*%
%TF.ProjectId,Hackpad,4861636b-7061-4642-9e6b-696361645f70,rev?*%
%TF.SameCoordinates,Original*%
%TF.FileFunction,Copper,L2,Bot*%
%TF.FilePolarity,Positive*%
%FSLAX46Y46*%
G04 Gerber Fmt 4.6, Leading zero omitted, Abs format (unit mm)*
G04 Created by KiCad (PCBNEW 10.0.0) date 2026-08-30 00:21:04*
%MOMM*%
%LPD*%
G01*
G04 APERTURE LIST*
G04 Aperture macros list*
%AMRoundRect*
0 Rectangle with rounded corners*
0 $1 Rounding radius*
0 $2 $3 $4 $5 $6 $7 $8 $9 X,Y pos of 4 corners*
0 Add a 4 corners polygon primitive as box body*
4,1,4,$2,$3,$4,$5,$6,$7,$8,$9,$2,$3,0*
0 Add four circle primitives for the rounded corners*
1,1,$1+$1,$2,$3*
1,1,$1+$1,$4,$5*
1,1,$1+$1,$6,$7*
1,1,$1+$1,$8,$9*
0 Add four rect primitives between the rounded corners*
20,1,$1+$1,$2,$3,$4,$5,0*
20,1,$1+$1,$4,$5,$6,$7,0*
20,1,$1+$1,$6,$7,$8,$9,0*
20,1,$1+$1,$8,$9,$2,$3,0*%
G04 Aperture macros list end*
%TA.AperFunction,ComponentPad*%
%ADD10RoundRect,0.249999X-0.850001X-0.850001X0.850001X-0.850001X0.850001X0.850001X-0.850001X0.850001X0*%
%TD*%
%TA.AperFunction,ComponentPad*%
%ADD11C,2.200000*%
%TD*%
%TA.AperFunction,ComponentPad*%
%ADD12RoundRect,0.170000X0.680000X-0.680000X0.680000X0.680000X-0.680000X0.680000X-0.680000X-0.680000X0*%
%TD*%
%TA.AperFunction,ComponentPad*%
%ADD13C,1.700000*%
%TD*%
%TA.AperFunction,ComponentPad*%
%ADD14RoundRect,0.249999X0.850001X0.850001X-0.850001X0.850001X-0.850001X-0.850001X0.850001X-0.850001X0*%
%TD*%
%TA.AperFunction,ComponentPad*%
%ADD15R,1.358000X1.358000*%
%TD*%
%TA.AperFunction,ComponentPad*%
%ADD16C,1.358000*%
%TD*%
%TA.AperFunction,ComponentPad*%
%ADD17R,2.000000X2.000000*%
%TD*%
%TA.AperFunction,ComponentPad*%
%ADD18C,2.000000*%
%TD*%
%TA.AperFunction,ComponentPad*%
%ADD19C,3.200000*%
%TD*%
%TA.AperFunction,ViaPad*%
%ADD20C,0.600000*%
%TD*%
%TA.AperFunction,Conductor*%
%ADD21C,0.500000*%
%TD*%
G04 APERTURE END LIST*
D10*
%TO.P,D2,1,K_1*%
%TO.N,/D3*%
X106610000Y-116460000D03*
D11*
%TO.P,D2,2,A_2*%
%TO.N,Net-(D2-A)*%
X116770000Y-116460000D03*
%TD*%
%TO.P,SW4,1,1_1*%
%TO.N,GND*%
X158540000Y-119420000D03*
%TO.P,SW4,2,2_2*%
%TO.N,Net-(D2-A)*%
X152190000Y-121960000D03*
%TD*%
D10*
%TO.P,D1,1,K_1*%
%TO.N,/D0*%
X106610000Y-128460000D03*
D11*
%TO.P,D1,2,A_2*%
%TO.N,Net-(D1-A)*%
X116770000Y-128460000D03*
%TD*%
D12*
%TO.P,U2,1,GND_1*%
%TO.N,GND*%
X128690000Y-90770000D03*
D13*
%TO.P,U2,2,VCC_2*%
%TO.N,+3.3V*%
X128690000Y-88230000D03*
%TO.P,U2,3,SCL_3*%
%TO.N,/SCL*%
X128690000Y-85690000D03*
%TO.P,U2,4,SDA_4*%
%TO.N,/SDA*%
X128690000Y-83150000D03*
%TD*%
D10*
%TO.P,D4,1,K_1*%
%TO.N,/D1*%
X106610000Y-124460000D03*
D11*
%TO.P,D4,2,A_2*%
%TO.N,Net-(D4-A)*%
X116770000Y-124460000D03*
%TD*%
D14*
%TO.P,D6,1,K_1*%
%TO.N,/D7*%
X116690000Y-108460000D03*
D11*
%TO.P,D6,2,A_2*%
%TO.N,Net-(D6-A)*%
X106530000Y-108460000D03*
%TD*%
%TO.P,SW3,1,1_1*%
%TO.N,GND*%
X158540000Y-99420000D03*
%TO.P,SW3,2,2_2*%
%TO.N,Net-(D5-A)*%
X152190000Y-101960000D03*
%TD*%
D15*
%TO.P,U1,1,D0_1*%
%TO.N,/D0*%
X106837500Y-85658500D03*
D16*
%TO.P,U1,2,D1_2*%
%TO.N,/D1*%
X106837500Y-88198500D03*
%TO.P,U1,3,D2_3*%
%TO.N,/D2*%
X106837500Y-90738500D03*
%TO.P,U1,4,D3_4*%
%TO.N,/D3*%
X106837500Y-93278500D03*
%TO.P,U1,5,D4_5*%
%TO.N,/SDA*%
X106837500Y-95818500D03*
%TO.P,U1,6,D5_6*%
%TO.N,/SCL*%
X106837500Y-98358500D03*
%TO.P,U1,7,TX_D6_7*%
%TO.N,/D6*%
X106837500Y-100898500D03*
%TO.P,U1,8,RX_D7_8*%
%TO.N,/D7*%
X122077500Y-100898500D03*
%TO.P,U1,9,D8_9*%
%TO.N,/D8*%
X122077500Y-98358500D03*
%TO.P,U1,10,D9_10*%
%TO.N,/D9*%
X122077500Y-95818500D03*
%TO.P,U1,11,D10_11*%
%TO.N,/D10*%
X122077500Y-93278500D03*
%TO.P,U1,12,VCC_3V3_12*%
%TO.N,+3.3V*%
X122077500Y-90738500D03*
%TO.P,U1,13,GND_13*%
%TO.N,GND*%
X122077500Y-88198500D03*
%TO.P,U1,14,VUSB_14*%
%TO.N,unconnected-(U1-VUSB-Pad14)*%
X122077500Y-85658500D03*
%TD*%
D17*
%TO.P,SW6,A,A_A*%
%TO.N,/D8*%
X168940000Y-82960000D03*
D18*
%TO.P,SW6,B,B_B*%
%TO.N,GND*%
X168940000Y-87960000D03*
%TO.P,SW6,C,C_C*%
%TO.N,/D9*%
X168940000Y-85460000D03*
D19*
%TO.P,SW6,MP,MP_MP*%
%TO.N,GND*%
X176440000Y-79860000D03*
X176440000Y-91060000D03*
D18*
%TO.P,SW6,S1,S1_S1*%
X183440000Y-87960000D03*
%TO.P,SW6,S2,S2_S2*%
%TO.N,/D10*%
X183440000Y-82960000D03*
%TD*%
D10*
%TO.P,D3,1,K_1*%
%TO.N,/D6*%
X106530000Y-112460000D03*
D11*
%TO.P,D3,2,A_2*%
%TO.N,Net-(D3-A)*%
X116690000Y-112460000D03*
%TD*%
%TO.P,SW2,1,1_1*%
%TO.N,GND*%
X138690000Y-119460000D03*
%TO.P,SW2,2,2_2*%
%TO.N,Net-(D4-A)*%
X132340000Y-122000000D03*
%TD*%
%TO.P,SW1,1,1_1*%
%TO.N,GND*%
X138540000Y-99420000D03*
%TO.P,SW1,2,2_2*%
%TO.N,Net-(D1-A)*%
X132190000Y-101960000D03*
%TD*%
%TO.P,SW5,1,1_1*%
%TO.N,GND*%
X178540000Y-99420000D03*
%TO.P,SW5,2,2_2*%
%TO.N,Net-(D3-A)*%
X172190000Y-101960000D03*
%TD*%
D10*
%TO.P,D5,1,K_1*%
%TO.N,/D2*%
X106610000Y-120460000D03*
D11*
%TO.P,D5,2,A_2*%
%TO.N,Net-(D5-A)*%
X116770000Y-120460000D03*
%TD*%
%TO.P,SW7,1,1_1*%
%TO.N,GND*%
X178500000Y-119500000D03*
%TO.P,SW7,2,2_2*%
%TO.N,Net-(D6-A)*%
X172150000Y-122040000D03*
%TD*%
D20*
%TO.N,Net-(D1-A)*%
X120690000Y-127460000D03*
%TO.N,Net-(D6-A)*%
X160190000Y-110960000D03*
X126190000Y-105460000D03*
X113190000Y-105460000D03*
%TO.N,Net-(D5-A)*%
X127690000Y-118460000D03*
%TO.N,/D9*%
X155190000Y-95460000D03*
X165190000Y-92460000D03*
%TO.N,/D10*%
X155190000Y-93960000D03*
X163190000Y-93960000D03*
%TD*%
%TO.N,Net-(D1-A)*%
D21*
X132190000Y-111460000D02*
X132190000Y-101960000D01*
X126190000Y-121960000D02*
X126190000Y-117460000D01*
X126190000Y-117460000D02*
X132190000Y-111460000D01*
X120690000Y-127460000D02*
X126190000Y-121960000D01*
%TO.N,Net-(D6-A)*%
X168690000Y-110960000D02*
X172150000Y-114420000D01*
X113190000Y-105460000D02*
X126190000Y-105460000D01*
X160190000Y-110960000D02*
X168690000Y-110960000D01*
X172150000Y-114420000D02*
X172150000Y-122040000D01*
%TO.N,Net-(D5-A)*%
X144190000Y-101960000D02*
X152190000Y-101960000D01*
X127690000Y-118460000D02*
X144190000Y-101960000D01*
%TO.N,/D9*%
X165190000Y-92460000D02*
X165190000Y-93020661D01*
X162750661Y-95460000D02*
X155190000Y-95460000D01*
X165190000Y-93020661D02*
X162750661Y-95460000D01*
%TO.N,/D10*%
X163190000Y-93960000D02*
X155190000Y-93960000D01*
%TD*%
%TA.AperFunction,Conductor*%
%TO.N,GND*%
G36*
X183665785Y-76892683D02*
G01*
X183858027Y-76901076D01*
X183869535Y-76902119D01*
X184205257Y-76948448D01*
X184217391Y-76950743D01*
X184544924Y-77029810D01*
X184556767Y-77033302D01*
X184874804Y-77144587D01*
X184886249Y-77149246D01*
X185191605Y-77291635D01*
X185202535Y-77297411D01*
X185342094Y-77380322D01*
X185492207Y-77469503D01*
X185502495Y-77476331D01*
X185658757Y-77591658D01*
X185773593Y-77676411D01*
X185783161Y-77684238D01*
X185983052Y-77865125D01*
X186032987Y-77910312D01*
X186041728Y-77919053D01*
X186267802Y-78168879D01*
X186275629Y-78178447D01*
X186475705Y-78449539D01*
X186482541Y-78459839D01*
X186654627Y-78749501D01*
X186660403Y-78760430D01*
X186802795Y-79065791D01*
X186807455Y-79077241D01*
X186918737Y-79395266D01*
X186922232Y-79407120D01*
X187001295Y-79734644D01*
X187003593Y-79746787D01*
X187049919Y-80082487D01*
X187050965Y-80094029D01*
X187059357Y-80286248D01*
X187059475Y-80291657D01*
X187059475Y-131060401D01*
X187059357Y-131065809D01*
X187050965Y-131258033D01*
X187049919Y-131269576D01*
X187003593Y-131605277D01*
X187001295Y-131617424D01*
X186922233Y-131944941D01*
X186918737Y-131956798D01*
X186807455Y-132274823D01*
X186802795Y-132286273D01*
X186660403Y-132591634D01*
X186654627Y-132602563D01*
X186482541Y-132892225D01*
X186475705Y-132902525D01*
X186275629Y-133173617D01*
X186267802Y-133183185D01*
X186041728Y-133433011D01*
X186032987Y-133441752D01*
X185783161Y-133667826D01*
X185773593Y-133675653D01*
X185502501Y-133875729D01*
X185492201Y-133882565D01*
X185202535Y-134054653D01*
X185191605Y-134060429D01*
X184886249Y-134202818D01*
X184874800Y-134207478D01*
X184556777Y-134318759D01*
X184544920Y-134322255D01*
X184217397Y-134401319D01*
X184205250Y-134403617D01*
X183869553Y-134449943D01*
X183858011Y-134450989D01*
X183737676Y-134456242D01*
X183665791Y-134459381D01*
X183660385Y-134459499D01*
X103089597Y-134459499D01*
X103084189Y-134459381D01*
X102891965Y-134450989D01*
X102880422Y-134449943D01*
X102544721Y-134403617D01*
X102532578Y-134401319D01*
X102205056Y-134322256D01*
X102193200Y-134318761D01*
X101875175Y-134207479D01*
X101863725Y-134202819D01*
X101558364Y-134060427D01*
X101547435Y-134054651D01*
X101257773Y-133882565D01*
X101247473Y-133875729D01*
X101162760Y-133813208D01*
X100976381Y-133675653D01*
X100966813Y-133667826D01*
X100786402Y-133504567D01*
X100716984Y-133441749D01*
X100708246Y-133433011D01*
X100695430Y-133418849D01*
X100482172Y-133183185D01*
X100474345Y-133173617D01*
X100436236Y-133121981D01*
X100274265Y-132902519D01*
X100267433Y-132892225D01*
X100095345Y-132602559D01*
X100089569Y-132591629D01*
X99947180Y-132286273D01*
X99942520Y-132274824D01*
X99942520Y-132274823D01*
X99831236Y-131956791D01*
X99827743Y-131944944D01*
X99827742Y-131944941D01*
X99748677Y-131617415D01*
X99746381Y-131605274D01*
X99717600Y-131396716D01*
X99711666Y-131353713D01*
X101339500Y-131353713D01*
X101339500Y-131566287D01*
X101372754Y-131776243D01*
X101400466Y-131861532D01*
X101438444Y-131978414D01*
X101534951Y-132167820D01*
X101659890Y-132339786D01*
X101810213Y-132490109D01*
X101982179Y-132615048D01*
X101982181Y-132615049D01*
X101982184Y-132615051D01*
X102171588Y-132711557D01*
X102373757Y-132777246D01*
X102583713Y-132810500D01*
X102583714Y-132810500D01*
X102796286Y-132810500D01*
X102796287Y-132810500D01*
X103006243Y-132777246D01*
X103208412Y-132711557D01*
X103397816Y-132615051D01*
X103430054Y-132591629D01*
X103569786Y-132490109D01*
X103569788Y-132490106D01*
X103569792Y-132490104D01*
X103720104Y-132339792D01*
X103720106Y-132339788D01*
X103720109Y-132339786D01*
X103845048Y-132167820D01*
X103845047Y-132167820D01*
X103845051Y-132167816D01*
X103941557Y-131978412D01*
X104007246Y-131776243D01*
X104040500Y-131566287D01*
X104040500Y-131353713D01*
X183649500Y-131353713D01*
X183649500Y-131566287D01*
X183682754Y-131776243D01*
X183710466Y-131861532D01*
X183748444Y-131978414D01*
X183844951Y-132167820D01*
X183969890Y-132339786D01*
X184120213Y-132490109D01*
X184292179Y-132615048D01*
X184292181Y-132615049D01*
X184292184Y-132615051D01*
X184481588Y-132711557D01*
X184683757Y-132777246D01*
X184893713Y-132810500D01*
X184893714Y-132810500D01*
X185106286Y-132810500D01*
X185106287Y-132810500D01*
X185316243Y-132777246D01*
X185518412Y-132711557D01*
X185707816Y-132615051D01*
X185740054Y-132591629D01*
X185879786Y-132490109D01*
X185879788Y-132490106D01*
X185879792Y-132490104D01*
X186030104Y-132339792D01*
X186030106Y-132339788D01*
X186030109Y-132339786D01*
X186155048Y-132167820D01*
X186155047Y-132167820D01*
X186155051Y-132167816D01*
X186251557Y-131978412D01*
X186317246Y-131776243D01*
X186350500Y-131566287D01*
X186350500Y-131353713D01*
X186317246Y-131143757D01*
X186251557Y-130941588D01*
X186155051Y-130752184D01*
X186155049Y-130752181D01*
X186155048Y-130752179D01*
X186030109Y-130580213D01*
X185879786Y-130429890D01*
X185707820Y-130304951D01*
X185518414Y-130208444D01*
X185518413Y-130208443D01*
X185518412Y-130208443D01*
X185316243Y-130142754D01*
X185316241Y-130142753D01*
X185316240Y-130142753D01*
X185154957Y-130117208D01*
X185106287Y-130109500D01*
X184893713Y-130109500D01*
X184845042Y-130117208D01*
X184683760Y-130142753D01*
X184481585Y-130208444D01*
X184292179Y-130304951D01*
X184120213Y-130429890D01*
X183969890Y-130580213D01*
X183844951Y-130752179D01*
X183748444Y-130941585D01*
X183682753Y-131143760D01*
X183681665Y-131150630D01*
X183649500Y-131353713D01*
X104040500Y-131353713D01*
X104007246Y-131143757D01*
X103941557Y-130941588D01*
X103845051Y-130752184D01*
X103845049Y-130752181D01*
X103845048Y-130752179D01*
X103720109Y-130580213D01*
X103569786Y-130429890D01*
X103397820Y-130304951D01*
X103208414Y-130208444D01*
X103208413Y-130208443D01*
X103208412Y-130208443D01*
X103006243Y-130142754D01*
X103006241Y-130142753D01*
X103006240Y-130142753D01*
X102844957Y-130117208D01*
X102796287Y-130109500D01*
X102583713Y-130109500D01*
X102535042Y-130117208D01*
X102373760Y-130142753D01*
X102171585Y-130208444D01*
X101982179Y-130304951D01*
X101810213Y-130429890D01*
X101659890Y-130580213D01*
X101534951Y-130752179D01*
X101438444Y-130941585D01*
X101372753Y-131143760D01*
X101371665Y-131150630D01*
X101339500Y-131353713D01*
X99711666Y-131353713D01*
X99700053Y-131269558D01*
X99699010Y-131258052D01*
X99690618Y-131065809D01*
X99690500Y-131060408D01*
X99690500Y-127559982D01*
X105009500Y-127559982D01*
X105009500Y-129360017D01*
X105020000Y-129462796D01*
X105075185Y-129629332D01*
X105075186Y-129629335D01*
X105167288Y-129778656D01*
X105291344Y-129902712D01*
X105440665Y-129994814D01*
X105607202Y-130049999D01*
X105709990Y-130060500D01*
X105709995Y-130060500D01*
X107510005Y-130060500D01*
X107510010Y-130060500D01*
X107612798Y-130049999D01*
X107779335Y-129994814D01*
X107928656Y-129902712D01*
X108052712Y-129778656D01*
X108144814Y-129629335D01*
X108199999Y-129462798D01*
X108210500Y-129360010D01*
X108210500Y-128334038D01*
X115169500Y-128334038D01*
X115169500Y-128585961D01*
X115208910Y-128834785D01*
X115286760Y-129074383D01*
X115401132Y-129298848D01*
X115549201Y-129502649D01*
X115549205Y-129502654D01*
X115727345Y-129680794D01*
X115727350Y-129680798D01*
X115905117Y-129809952D01*
X115931155Y-129828870D01*
X116074184Y-129901747D01*
X116155616Y-129943239D01*
X116155618Y-129943239D01*
X116155621Y-129943241D01*
X116395215Y-130021090D01*
X116644038Y-130060500D01*
X116644039Y-130060500D01*
X116895961Y-130060500D01*
X116895962Y-130060500D01*
X117144785Y-130021090D01*
X117384379Y-129943241D01*
X117608845Y-129828870D01*
X117812656Y-129680793D01*
X117990793Y-129502656D01*
X118138870Y-129298845D01*
X118253241Y-129074379D01*
X118331090Y-128834785D01*
X118370500Y-128585962D01*
X118370500Y-128334038D01*
X118331090Y-128085215D01*
X118253241Y-127845621D01*
X118253239Y-127845618D01*
X118253239Y-127845616D01*
X118175730Y-127693497D01*
X118138870Y-127621155D01*
X118079066Y-127538842D01*
X118013033Y-127447954D01*
X118013030Y-127447951D01*
X117990797Y-127417350D01*
X117990793Y-127417344D01*
X117954602Y-127381153D01*
X119889500Y-127381153D01*
X119889500Y-127538846D01*
X119920261Y-127693489D01*
X119920264Y-127693501D01*
X119980602Y-127839172D01*
X119980609Y-127839185D01*
X120068210Y-127970288D01*
X120068213Y-127970292D01*
X120179707Y-128081786D01*
X120179711Y-128081789D01*
X120310814Y-128169390D01*
X120310827Y-128169397D01*
X120456498Y-128229735D01*
X120456503Y-128229737D01*
X120611153Y-128260499D01*
X120611156Y-128260500D01*
X120611158Y-128260500D01*
X120768844Y-128260500D01*
X120768845Y-128260499D01*
X120923497Y-128229737D01*
X121069179Y-128169394D01*
X121200289Y-128081789D01*
X121311789Y-127970289D01*
X121399394Y-127839179D01*
X121409191Y-127815524D01*
X121436069Y-127775297D01*
X124818881Y-124392486D01*
X133899500Y-124392486D01*
X133899500Y-124687513D01*
X133931571Y-124931113D01*
X133938007Y-124979993D01*
X133963299Y-125074383D01*
X134014361Y-125264951D01*
X134014364Y-125264961D01*
X134127254Y-125537500D01*
X134127258Y-125537510D01*
X134274761Y-125792993D01*
X134454352Y-126027040D01*
X134454358Y-126027047D01*
X134662952Y-126235641D01*
X134662959Y-126235647D01*
X134897006Y-126415238D01*
X135152489Y-126562741D01*
X135152490Y-126562741D01*
X135152493Y-126562743D01*
X135425048Y-126675639D01*
X135710007Y-126751993D01*
X136002494Y-126790500D01*
X136002501Y-126790500D01*
X136297499Y-126790500D01*
X136297506Y-126790500D01*
X136589993Y-126751993D01*
X136874952Y-126675639D01*
X137147507Y-126562743D01*
X137402994Y-126415238D01*
X137637042Y-126235646D01*
X137845646Y-126027042D01*
X138025238Y-125792994D01*
X138172743Y-125537507D01*
X138285639Y-125264952D01*
X138361993Y-124979993D01*
X138400500Y-124687506D01*
X138400500Y-124392494D01*
X138395233Y-124352486D01*
X153749500Y-124352486D01*
X153749500Y-124647513D01*
X153760031Y-124727499D01*
X153788007Y-124939993D01*
X153864361Y-125224951D01*
X153864364Y-125224961D01*
X153977254Y-125497500D01*
X153977258Y-125497510D01*
X154124761Y-125752993D01*
X154304352Y-125987040D01*
X154304358Y-125987047D01*
X154512952Y-126195641D01*
X154512959Y-126195647D01*
X154747006Y-126375238D01*
X155002489Y-126522741D01*
X155002490Y-126522741D01*
X155002493Y-126522743D01*
X155275048Y-126635639D01*
X155560007Y-126711993D01*
X155852494Y-126750500D01*
X155852501Y-126750500D01*
X156147499Y-126750500D01*
X156147506Y-126750500D01*
X156439993Y-126711993D01*
X156724952Y-126635639D01*
X156997507Y-126522743D01*
X157252994Y-126375238D01*
X157487042Y-126195646D01*
X157695646Y-125987042D01*
X157875238Y-125752994D01*
X158022743Y-125497507D01*
X158135639Y-125224952D01*
X158211993Y-124939993D01*
X158250500Y-124647506D01*
X158250500Y-124432486D01*
X173709500Y-124432486D01*
X173709500Y-124727513D01*
X173737475Y-124939993D01*
X173748007Y-125019993D01*
X173824361Y-125304951D01*
X173824364Y-125304961D01*
X173937254Y-125577500D01*
X173937258Y-125577510D01*
X174084761Y-125832993D01*
X174264352Y-126067040D01*
X174264358Y-126067047D01*
X174472952Y-126275641D01*
X174472959Y-126275647D01*
X174707006Y-126455238D01*
X174962489Y-126602741D01*
X174962490Y-126602741D01*
X174962493Y-126602743D01*
X175173296Y-126690060D01*
X175226245Y-126711993D01*
X175235048Y-126715639D01*
X175520007Y-126791993D01*
X175812494Y-126830500D01*
X175812501Y-126830500D01*
X176107499Y-126830500D01*
X176107506Y-126830500D01*
X176399993Y-126791993D01*
X176684952Y-126715639D01*
X176957507Y-126602743D01*
X177212994Y-126455238D01*
X177447042Y-126275646D01*
X177655646Y-126067042D01*
X177835238Y-125832994D01*
X177982743Y-125577507D01*
X178095639Y-125304952D01*
X178171993Y-125019993D01*
X178210500Y-124727506D01*
X178210500Y-124432494D01*
X178171993Y-124140007D01*
X178095639Y-123855048D01*
X178079070Y-123815048D01*
X177998757Y-123621155D01*
X177982743Y-123582493D01*
X177970385Y-123561089D01*
X177835238Y-123327006D01*
X177655647Y-123092959D01*
X177655641Y-123092952D01*
X177447047Y-122884358D01*
X177447040Y-122884352D01*
X177212993Y-122704761D01*
X176957510Y-122557258D01*
X176957500Y-122557254D01*
X176684961Y-122444364D01*
X176684954Y-122444362D01*
X176684952Y-122444361D01*
X176399993Y-122368007D01*
X176351113Y-122361571D01*
X176107513Y-122329500D01*
X176107506Y-122329500D01*
X175812494Y-122329500D01*
X175812486Y-122329500D01*
X175547678Y-122364364D01*
X175520007Y-122368007D01*
X175384331Y-122404361D01*
X175235048Y-122444361D01*
X175235038Y-122444364D01*
X174962499Y-122557254D01*
X174962489Y-122557258D01*
X174707006Y-122704761D01*
X174472959Y-122884352D01*
X174472952Y-122884358D01*
X174264358Y-123092952D01*
X174264352Y-123092959D01*
X174084761Y-123327006D01*
X173937258Y-123582489D01*
X173937254Y-123582499D01*
X173824364Y-123855038D01*
X173824361Y-123855048D01*
X173762689Y-124085215D01*
X173748008Y-124140004D01*
X173748006Y-124140015D01*
X173709500Y-124432486D01*
X158250500Y-124432486D01*
X158250500Y-124352494D01*
X158211993Y-124060007D01*
X158135639Y-123775048D01*
X158022743Y-123502493D01*
X157996594Y-123457202D01*
X157875238Y-123247006D01*
X157695647Y-123012959D01*
X157695641Y-123012952D01*
X157487047Y-122804358D01*
X157487040Y-122804352D01*
X157252993Y-122624761D01*
X156997510Y-122477258D01*
X156997500Y-122477254D01*
X156724961Y-122364364D01*
X156724954Y-122364362D01*
X156724952Y-122364361D01*
X156439993Y-122288007D01*
X156391113Y-122281571D01*
X156147513Y-122249500D01*
X156147506Y-122249500D01*
X155852494Y-122249500D01*
X155852486Y-122249500D01*
X155574085Y-122286153D01*
X155560007Y-122288007D01*
X155405152Y-122329500D01*
X155275048Y-122364361D01*
X155275038Y-122364364D01*
X155002499Y-122477254D01*
X155002489Y-122477258D01*
X154747006Y-122624761D01*
X154512959Y-122804352D01*
X154512952Y-122804358D01*
X154304358Y-123012952D01*
X154304352Y-123012959D01*
X154124761Y-123247006D01*
X153977258Y-123502489D01*
X153977254Y-123502499D01*
X153864364Y-123775038D01*
X153864361Y-123775048D01*
X153845453Y-123845616D01*
X153788008Y-124060004D01*
X153788006Y-124060015D01*
X153749500Y-124352486D01*
X138395233Y-124352486D01*
X138361993Y-124100007D01*
X138285639Y-123815048D01*
X138269070Y-123775048D01*
X138205324Y-123621151D01*
X138172743Y-123542493D01*
X138160385Y-123521089D01*
X138025238Y-123287006D01*
X137845647Y-123052959D01*
X137845641Y-123052952D01*
X137637047Y-122844358D01*
X137637040Y-122844352D01*
X137402993Y-122664761D01*
X137147510Y-122517258D01*
X137147500Y-122517254D01*
X136874961Y-122404364D01*
X136874954Y-122404362D01*
X136874952Y-122404361D01*
X136589993Y-122328007D01*
X136541113Y-122321571D01*
X136297513Y-122289500D01*
X136297506Y-122289500D01*
X136002494Y-122289500D01*
X136002486Y-122289500D01*
X135724085Y-122326153D01*
X135710007Y-122328007D01*
X135535428Y-122374785D01*
X135425048Y-122404361D01*
X135425038Y-122404364D01*
X135152499Y-122517254D01*
X135152489Y-122517258D01*
X134897006Y-122664761D01*
X134662959Y-122844352D01*
X134662952Y-122844358D01*
X134454358Y-123052952D01*
X134454352Y-123052959D01*
X134274761Y-123287006D01*
X134127258Y-123542489D01*
X134127254Y-123542499D01*
X134014364Y-123815038D01*
X134014361Y-123815048D01*
X133941971Y-124085215D01*
X133938008Y-124100004D01*
X133938006Y-124100015D01*
X133899500Y-124392486D01*
X124818881Y-124392486D01*
X126772952Y-122438415D01*
X126815468Y-122374785D01*
X126855084Y-122315495D01*
X126882420Y-122249500D01*
X126911659Y-122178912D01*
X126940500Y-122033917D01*
X126940500Y-121886082D01*
X126940500Y-121874038D01*
X130739500Y-121874038D01*
X130739500Y-122125962D01*
X130765166Y-122288007D01*
X130778910Y-122374785D01*
X130856760Y-122614383D01*
X130971132Y-122838848D01*
X131119201Y-123042649D01*
X131119205Y-123042654D01*
X131297345Y-123220794D01*
X131297350Y-123220798D01*
X131475117Y-123349952D01*
X131501155Y-123368870D01*
X131644184Y-123441747D01*
X131725616Y-123483239D01*
X131725618Y-123483239D01*
X131725621Y-123483241D01*
X131965215Y-123561090D01*
X132214038Y-123600500D01*
X132214039Y-123600500D01*
X132465961Y-123600500D01*
X132465962Y-123600500D01*
X132714785Y-123561090D01*
X132954379Y-123483241D01*
X133178845Y-123368870D01*
X133382656Y-123220793D01*
X133560793Y-123042656D01*
X133708870Y-122838845D01*
X133823241Y-122614379D01*
X133901090Y-122374785D01*
X133940500Y-122125962D01*
X133940500Y-121874038D01*
X133934165Y-121834038D01*
X150589500Y-121834038D01*
X150589500Y-122085962D01*
X150602171Y-122165961D01*
X150628910Y-122334785D01*
X150706760Y-122574383D01*
X150821132Y-122798848D01*
X150969201Y-123002649D01*
X150969205Y-123002654D01*
X151147345Y-123180794D01*
X151147350Y-123180798D01*
X151293534Y-123287006D01*
X151351155Y-123328870D01*
X151429654Y-123368867D01*
X151575616Y-123443239D01*
X151575618Y-123443239D01*
X151575621Y-123443241D01*
X151815215Y-123521090D01*
X152064038Y-123560500D01*
X152064039Y-123560500D01*
X152315961Y-123560500D01*
X152315962Y-123560500D01*
X152564785Y-123521090D01*
X152804379Y-123443241D01*
X153028845Y-123328870D01*
X153232656Y-123180793D01*
X153410793Y-123002656D01*
X153558870Y-122798845D01*
X153673241Y-122574379D01*
X153751090Y-122334785D01*
X153790500Y-122085962D01*
X153790500Y-121834038D01*
X153751090Y-121585215D01*
X153673241Y-121345621D01*
X153673239Y-121345618D01*
X153673239Y-121345616D01*
X153599630Y-121201151D01*
X153558870Y-121121155D01*
X153514876Y-121060602D01*
X153410798Y-120917350D01*
X153410794Y-120917345D01*
X153232654Y-120739205D01*
X153232649Y-120739201D01*
X153028848Y-120591132D01*
X153028847Y-120591131D01*
X153028845Y-120591130D01*
X152948374Y-120550128D01*
X152804383Y-120476760D01*
X152564785Y-120398910D01*
X152315962Y-120359500D01*
X152064038Y-120359500D01*
X151939626Y-120379205D01*
X151815214Y-120398910D01*
X151575616Y-120476760D01*
X151351151Y-120591132D01*
X151147350Y-120739201D01*
X151147345Y-120739205D01*
X150969205Y-120917345D01*
X150969201Y-120917350D01*
X150821132Y-121121151D01*
X150706760Y-121345616D01*
X150628910Y-121585214D01*
X150621922Y-121629332D01*
X150589500Y-121834038D01*
X133934165Y-121834038D01*
X133901090Y-121625215D01*
X133823241Y-121385621D01*
X133823239Y-121385618D01*
X133823239Y-121385616D01*
X133779026Y-121298845D01*
X133708870Y-121161155D01*
X133679808Y-121121155D01*
X133560798Y-120957350D01*
X133560794Y-120957345D01*
X133382654Y-120779205D01*
X133382649Y-120779201D01*
X133178848Y-120631132D01*
X133178847Y-120631131D01*
X133178845Y-120631130D01*
X133108747Y-120595413D01*
X132954383Y-120516760D01*
X132714785Y-120438910D01*
X132465962Y-120399500D01*
X132214038Y-120399500D01*
X132089626Y-120419205D01*
X131965214Y-120438910D01*
X131725616Y-120516760D01*
X131501151Y-120631132D01*
X131297350Y-120779201D01*
X131297345Y-120779205D01*
X131119205Y-120957345D01*
X131119201Y-120957350D01*
X130971132Y-121161151D01*
X130856760Y-121385616D01*
X130778910Y-121625214D01*
X130770107Y-121680793D01*
X130739500Y-121874038D01*
X126940500Y-121874038D01*
X126940500Y-119334071D01*
X137090000Y-119334071D01*
X137090000Y-119585928D01*
X137129397Y-119834669D01*
X137207219Y-120074184D01*
X137321557Y-120298583D01*
X137395748Y-120400697D01*
X137395748Y-120400698D01*
X138012421Y-119784024D01*
X138025359Y-119815258D01*
X138107437Y-119938097D01*
X138211903Y-120042563D01*
X138334742Y-120124641D01*
X138365974Y-120137577D01*
X137749300Y-120754250D01*
X137851416Y-120828442D01*
X138075815Y-120942780D01*
X138315330Y-121020602D01*
X138564072Y-121060000D01*
X138815928Y-121060000D01*
X139064669Y-121020602D01*
X139304184Y-120942780D01*
X139528575Y-120828446D01*
X139528581Y-120828442D01*
X139630697Y-120754250D01*
X139630698Y-120754250D01*
X139014025Y-120137578D01*
X139045258Y-120124641D01*
X139168097Y-120042563D01*
X139272563Y-119938097D01*
X139354641Y-119815258D01*
X139367577Y-119784025D01*
X139984250Y-120400698D01*
X139984250Y-120400697D01*
X140058442Y-120298581D01*
X140058446Y-120298575D01*
X140172780Y-120074184D01*
X140250602Y-119834669D01*
X140290000Y-119585928D01*
X140290000Y-119334072D01*
X140285966Y-119308604D01*
X140285966Y-119308603D01*
X140283664Y-119294071D01*
X156940000Y-119294071D01*
X156940000Y-119545928D01*
X156979397Y-119794669D01*
X157057219Y-120034184D01*
X157171557Y-120258583D01*
X157245748Y-120360697D01*
X157245748Y-120360698D01*
X157862421Y-119744024D01*
X157875359Y-119775258D01*
X157957437Y-119898097D01*
X158061903Y-120002563D01*
X158184742Y-120084641D01*
X158215974Y-120097577D01*
X157599300Y-120714250D01*
X157701416Y-120788442D01*
X157925815Y-120902780D01*
X158165330Y-120980602D01*
X158414072Y-121020000D01*
X158665928Y-121020000D01*
X158914669Y-120980602D01*
X159154184Y-120902780D01*
X159378575Y-120788446D01*
X159378581Y-120788442D01*
X159480697Y-120714250D01*
X159480698Y-120714250D01*
X158864025Y-120097578D01*
X158895258Y-120084641D01*
X159018097Y-120002563D01*
X159122563Y-119898097D01*
X159204641Y-119775258D01*
X159217578Y-119744025D01*
X159834250Y-120360698D01*
X159834250Y-120360697D01*
X159908442Y-120258581D01*
X159908446Y-120258575D01*
X160022780Y-120034184D01*
X160100602Y-119794669D01*
X160140000Y-119545928D01*
X160140000Y-119294071D01*
X160100602Y-119045330D01*
X160022780Y-118805815D01*
X159908442Y-118581416D01*
X159834250Y-118479301D01*
X159834250Y-118479300D01*
X159217577Y-119095973D01*
X159204641Y-119064742D01*
X159122563Y-118941903D01*
X159018097Y-118837437D01*
X158895258Y-118755359D01*
X158864024Y-118742421D01*
X159480698Y-118125748D01*
X159378583Y-118051557D01*
X159154184Y-117937219D01*
X158914669Y-117859397D01*
X158665928Y-117820000D01*
X158414072Y-117820000D01*
X158165330Y-117859397D01*
X157925815Y-117937219D01*
X157701413Y-118051559D01*
X157599301Y-118125747D01*
X157599300Y-118125748D01*
X158215974Y-118742421D01*
X158184742Y-118755359D01*
X158061903Y-118837437D01*
X157957437Y-118941903D01*
X157875359Y-119064742D01*
X157862421Y-119095974D01*
X157245748Y-118479300D01*
X157245747Y-118479301D01*
X157171559Y-118581413D01*
X157057219Y-118805815D01*
X156979397Y-119045330D01*
X156940000Y-119294071D01*
X140283664Y-119294071D01*
X140250602Y-119085330D01*
X140172780Y-118845815D01*
X140058442Y-118621416D01*
X139984250Y-118519301D01*
X139984250Y-118519300D01*
X139367577Y-119135973D01*
X139354641Y-119104742D01*
X139272563Y-118981903D01*
X139168097Y-118877437D01*
X139045258Y-118795359D01*
X139014024Y-118782421D01*
X139630698Y-118165748D01*
X139528583Y-118091557D01*
X139304184Y-117977219D01*
X139064669Y-117899397D01*
X138815928Y-117860000D01*
X138564072Y-117860000D01*
X138315330Y-117899397D01*
X138075815Y-117977219D01*
X137851413Y-118091559D01*
X137749301Y-118165747D01*
X137749300Y-118165748D01*
X138365974Y-118782421D01*
X138334742Y-118795359D01*
X138211903Y-118877437D01*
X138107437Y-118981903D01*
X138025359Y-119104742D01*
X138012421Y-119135974D01*
X137395748Y-118519300D01*
X137395747Y-118519301D01*
X137321559Y-118621413D01*
X137207219Y-118845815D01*
X137129397Y-119085330D01*
X137090000Y-119334071D01*
X126940500Y-119334071D01*
X126940500Y-119141941D01*
X126960185Y-119074902D01*
X127012989Y-119029147D01*
X127082147Y-119019203D01*
X127145703Y-119048228D01*
X127152181Y-119054260D01*
X127179707Y-119081786D01*
X127179711Y-119081789D01*
X127310814Y-119169390D01*
X127310827Y-119169397D01*
X127420065Y-119214644D01*
X127456503Y-119229737D01*
X127611153Y-119260499D01*
X127611156Y-119260500D01*
X127611158Y-119260500D01*
X127768844Y-119260500D01*
X127768845Y-119260499D01*
X127923497Y-119229737D01*
X127940038Y-119222885D01*
X127959936Y-119214644D01*
X128069172Y-119169397D01*
X128069172Y-119169396D01*
X128069179Y-119169394D01*
X128200289Y-119081789D01*
X128311789Y-118970289D01*
X128399394Y-118839179D01*
X128409191Y-118815524D01*
X128436069Y-118775297D01*
X136330214Y-110881153D01*
X159389500Y-110881153D01*
X159389500Y-111038846D01*
X159420261Y-111193489D01*
X159420264Y-111193501D01*
X159480602Y-111339172D01*
X159480609Y-111339185D01*
X159568210Y-111470288D01*
X159568213Y-111470292D01*
X159679707Y-111581786D01*
X159679711Y-111581789D01*
X159810814Y-111669390D01*
X159810827Y-111669397D01*
X159910060Y-111710500D01*
X159956503Y-111729737D01*
X160111153Y-111760499D01*
X160111156Y-111760500D01*
X160111158Y-111760500D01*
X160268844Y-111760500D01*
X160268845Y-111760499D01*
X160345152Y-111745320D01*
X160423488Y-111729739D01*
X160423489Y-111729738D01*
X160423497Y-111729737D01*
X160447155Y-111719937D01*
X160494604Y-111710500D01*
X168327770Y-111710500D01*
X168394809Y-111730185D01*
X168415451Y-111746819D01*
X171363181Y-114694549D01*
X171396666Y-114755872D01*
X171399500Y-114782230D01*
X171399500Y-120550128D01*
X171379815Y-120617167D01*
X171331797Y-120660612D01*
X171311151Y-120671131D01*
X171107350Y-120819201D01*
X171107345Y-120819205D01*
X170929205Y-120997345D01*
X170929201Y-120997350D01*
X170781132Y-121201151D01*
X170666760Y-121425616D01*
X170588910Y-121665214D01*
X170570942Y-121778657D01*
X170549500Y-121914038D01*
X170549500Y-122165962D01*
X170575166Y-122328007D01*
X170588910Y-122414785D01*
X170666760Y-122654383D01*
X170743174Y-122804352D01*
X170776623Y-122870000D01*
X170781132Y-122878848D01*
X170929201Y-123082649D01*
X170929205Y-123082654D01*
X171107345Y-123260794D01*
X171107350Y-123260798D01*
X171285117Y-123389952D01*
X171311155Y-123408870D01*
X171454184Y-123481747D01*
X171535616Y-123523239D01*
X171535618Y-123523239D01*
X171535621Y-123523241D01*
X171775215Y-123601090D01*
X172024038Y-123640500D01*
X172024039Y-123640500D01*
X172275961Y-123640500D01*
X172275962Y-123640500D01*
X172524785Y-123601090D01*
X172764379Y-123523241D01*
X172988845Y-123408870D01*
X173192656Y-123260793D01*
X173370793Y-123082656D01*
X173518870Y-122878845D01*
X173633241Y-122654379D01*
X173711090Y-122414785D01*
X173750500Y-122165962D01*
X173750500Y-121914038D01*
X173711090Y-121665215D01*
X173633241Y-121425621D01*
X173633239Y-121425618D01*
X173633239Y-121425616D01*
X173568645Y-121298845D01*
X173518870Y-121201155D01*
X173489808Y-121161155D01*
X173370798Y-120997350D01*
X173370794Y-120997345D01*
X173192654Y-120819205D01*
X173192649Y-120819201D01*
X172988848Y-120671131D01*
X172968203Y-120660612D01*
X172917408Y-120612637D01*
X172900500Y-120550128D01*
X172900500Y-119374071D01*
X176900000Y-119374071D01*
X176900000Y-119625928D01*
X176939397Y-119874669D01*
X177017219Y-120114184D01*
X177131557Y-120338583D01*
X177205748Y-120440697D01*
X177205748Y-120440698D01*
X177822421Y-119824024D01*
X177835359Y-119855258D01*
X177917437Y-119978097D01*
X178021903Y-120082563D01*
X178144742Y-120164641D01*
X178175974Y-120177577D01*
X177559300Y-120794250D01*
X177661416Y-120868442D01*
X177885815Y-120982780D01*
X178125330Y-121060602D01*
X178374072Y-121100000D01*
X178625928Y-121100000D01*
X178874669Y-121060602D01*
X179114184Y-120982780D01*
X179338575Y-120868446D01*
X179338581Y-120868442D01*
X179440697Y-120794250D01*
X179440698Y-120794250D01*
X178824025Y-120177578D01*
X178855258Y-120164641D01*
X178978097Y-120082563D01*
X179082563Y-119978097D01*
X179164641Y-119855258D01*
X179177577Y-119824025D01*
X179794250Y-120440698D01*
X179794250Y-120440697D01*
X179868442Y-120338581D01*
X179868446Y-120338575D01*
X179982780Y-120114184D01*
X180060602Y-119874669D01*
X180100000Y-119625928D01*
X180100000Y-119374071D01*
X180060602Y-119125330D01*
X179982780Y-118885815D01*
X179868442Y-118661416D01*
X179794250Y-118559301D01*
X179794250Y-118559300D01*
X179177577Y-119175973D01*
X179164641Y-119144742D01*
X179082563Y-119021903D01*
X178978097Y-118917437D01*
X178855258Y-118835359D01*
X178824024Y-118822421D01*
X179440698Y-118205748D01*
X179338583Y-118131557D01*
X179114184Y-118017219D01*
X178874669Y-117939397D01*
X178625928Y-117900000D01*
X178374072Y-117900000D01*
X178125330Y-117939397D01*
X177885815Y-118017219D01*
X177661413Y-118131559D01*
X177559301Y-118205747D01*
X177559300Y-118205748D01*
X178175974Y-118822421D01*
X178144742Y-118835359D01*
X178021903Y-118917437D01*
X177917437Y-119021903D01*
X177835359Y-119144742D01*
X177822421Y-119175974D01*
X177205748Y-118559300D01*
X177205747Y-118559301D01*
X177131559Y-118661413D01*
X177017219Y-118885815D01*
X176939397Y-119125330D01*
X176900000Y-119374071D01*
X172900500Y-119374071D01*
X172900500Y-114346079D01*
X172871659Y-114201092D01*
X172871658Y-114201091D01*
X172871658Y-114201087D01*
X172871656Y-114201082D01*
X172815087Y-114064511D01*
X172815085Y-114064507D01*
X172815084Y-114064505D01*
X172768518Y-113994814D01*
X172732952Y-113941584D01*
X171125406Y-112334038D01*
X169168421Y-110377052D01*
X169168414Y-110377046D01*
X169094729Y-110327812D01*
X169094729Y-110327813D01*
X169045491Y-110294913D01*
X168908917Y-110238343D01*
X168908907Y-110238340D01*
X168763920Y-110209500D01*
X168763918Y-110209500D01*
X160494604Y-110209500D01*
X160447155Y-110200062D01*
X160423497Y-110190263D01*
X160423493Y-110190262D01*
X160423488Y-110190260D01*
X160268845Y-110159500D01*
X160268842Y-110159500D01*
X160111158Y-110159500D01*
X160111155Y-110159500D01*
X159956510Y-110190261D01*
X159956498Y-110190264D01*
X159810827Y-110250602D01*
X159810814Y-110250609D01*
X159679711Y-110338210D01*
X159679707Y-110338213D01*
X159568213Y-110449707D01*
X159568210Y-110449711D01*
X159480609Y-110580814D01*
X159480602Y-110580827D01*
X159420264Y-110726498D01*
X159420261Y-110726510D01*
X159389500Y-110881153D01*
X136330214Y-110881153D01*
X142858882Y-104352486D01*
X153749500Y-104352486D01*
X153749500Y-104647513D01*
X153774607Y-104838210D01*
X153788007Y-104939993D01*
X153825743Y-105080827D01*
X153864361Y-105224951D01*
X153864364Y-105224961D01*
X153977254Y-105497500D01*
X153977258Y-105497510D01*
X154124761Y-105752993D01*
X154304352Y-105987040D01*
X154304358Y-105987047D01*
X154512952Y-106195641D01*
X154512959Y-106195647D01*
X154747006Y-106375238D01*
X155002489Y-106522741D01*
X155002490Y-106522741D01*
X155002493Y-106522743D01*
X155275048Y-106635639D01*
X155560007Y-106711993D01*
X155852494Y-106750500D01*
X155852501Y-106750500D01*
X156147499Y-106750500D01*
X156147506Y-106750500D01*
X156439993Y-106711993D01*
X156724952Y-106635639D01*
X156997507Y-106522743D01*
X157252994Y-106375238D01*
X157487042Y-106195646D01*
X157695646Y-105987042D01*
X157875238Y-105752994D01*
X158022743Y-105497507D01*
X158135639Y-105224952D01*
X158211993Y-104939993D01*
X158250500Y-104647506D01*
X158250500Y-104352494D01*
X158250499Y-104352486D01*
X173749500Y-104352486D01*
X173749500Y-104647513D01*
X173774607Y-104838210D01*
X173788007Y-104939993D01*
X173825743Y-105080827D01*
X173864361Y-105224951D01*
X173864364Y-105224961D01*
X173977254Y-105497500D01*
X173977258Y-105497510D01*
X174124761Y-105752993D01*
X174304352Y-105987040D01*
X174304358Y-105987047D01*
X174512952Y-106195641D01*
X174512959Y-106195647D01*
X174747006Y-106375238D01*
X175002489Y-106522741D01*
X175002490Y-106522741D01*
X175002493Y-106522743D01*
X175275048Y-106635639D01*
X175560007Y-106711993D01*
X175852494Y-106750500D01*
X175852501Y-106750500D01*
X176147499Y-106750500D01*
X176147506Y-106750500D01*
X176439993Y-106711993D01*
X176724952Y-106635639D01*
X176997507Y-106522743D01*
X177252994Y-106375238D01*
X177487042Y-106195646D01*
X177695646Y-105987042D01*
X177875238Y-105752994D01*
X178022743Y-105497507D01*
X178135639Y-105224952D01*
X178211993Y-104939993D01*
X178250500Y-104647506D01*
X178250500Y-104352494D01*
X178211993Y-104060007D01*
X178135639Y-103775048D01*
X178022743Y-103502493D01*
X177953656Y-103382831D01*
X177875238Y-103247006D01*
X177695647Y-103012959D01*
X177695641Y-103012952D01*
X177487047Y-102804358D01*
X177487040Y-102804352D01*
X177252993Y-102624761D01*
X176997510Y-102477258D01*
X176997500Y-102477254D01*
X176724961Y-102364364D01*
X176724954Y-102364362D01*
X176724952Y-102364361D01*
X176439993Y-102288007D01*
X176391113Y-102281571D01*
X176147513Y-102249500D01*
X176147506Y-102249500D01*
X175852494Y-102249500D01*
X175852486Y-102249500D01*
X175574085Y-102286153D01*
X175560007Y-102288007D01*
X175385428Y-102334785D01*
X175275048Y-102364361D01*
X175275038Y-102364364D01*
X175002499Y-102477254D01*
X175002489Y-102477258D01*
X174747006Y-102624761D01*
X174512959Y-102804352D01*
X174512952Y-102804358D01*
X174304358Y-103012952D01*
X174304352Y-103012959D01*
X174124761Y-103247006D01*
X173977258Y-103502489D01*
X173977254Y-103502499D01*
X173864364Y-103775038D01*
X173864361Y-103775048D01*
X173788008Y-104060004D01*
X173788006Y-104060015D01*
X173749500Y-104352486D01*
X158250499Y-104352486D01*
X158211993Y-104060007D01*
X158135639Y-103775048D01*
X158022743Y-103502493D01*
X157953656Y-103382831D01*
X157875238Y-103247006D01*
X157695647Y-103012959D01*
X157695641Y-103012952D01*
X157487047Y-102804358D01*
X157487040Y-102804352D01*
X157252993Y-102624761D01*
X156997510Y-102477258D01*
X156997500Y-102477254D01*
X156724961Y-102364364D01*
X156724954Y-102364362D01*
X156724952Y-102364361D01*
X156439993Y-102288007D01*
X156391113Y-102281571D01*
X156147513Y-102249500D01*
X156147506Y-102249500D01*
X155852494Y-102249500D01*
X155852486Y-102249500D01*
X155574085Y-102286153D01*
X155560007Y-102288007D01*
X155385428Y-102334785D01*
X155275048Y-102364361D01*
X155275038Y-102364364D01*
X155002499Y-102477254D01*
X155002489Y-102477258D01*
X154747006Y-102624761D01*
X154512959Y-102804352D01*
X154512952Y-102804358D01*
X154304358Y-103012952D01*
X154304352Y-103012959D01*
X154124761Y-103247006D01*
X153977258Y-103502489D01*
X153977254Y-103502499D01*
X153864364Y-103775038D01*
X153864361Y-103775048D01*
X153788008Y-104060004D01*
X153788006Y-104060015D01*
X153749500Y-104352486D01*
X142858882Y-104352486D01*
X144464549Y-102746819D01*
X144525872Y-102713334D01*
X144552230Y-102710500D01*
X150700129Y-102710500D01*
X150767168Y-102730185D01*
X150810613Y-102778205D01*
X150820483Y-102797576D01*
X150821132Y-102798849D01*
X150969201Y-103002649D01*
X150969205Y-103002654D01*
X151147345Y-103180794D01*
X151147350Y-103180798D01*
X151325117Y-103309952D01*
X151351155Y-103328870D01*
X151494184Y-103401747D01*
X151575616Y-103443239D01*
X151575618Y-103443239D01*
X151575621Y-103443241D01*
X151815215Y-103521090D01*
X152064038Y-103560500D01*
X152064039Y-103560500D01*
X152315961Y-103560500D01*
X152315962Y-103560500D01*
X152564785Y-103521090D01*
X152804379Y-103443241D01*
X153028845Y-103328870D01*
X153232656Y-103180793D01*
X153410793Y-103002656D01*
X153558870Y-102798845D01*
X153673241Y-102574379D01*
X153751090Y-102334785D01*
X153790500Y-102085962D01*
X153790500Y-101834038D01*
X170589500Y-101834038D01*
X170589500Y-102085961D01*
X170628910Y-102334785D01*
X170706760Y-102574383D01*
X170732430Y-102624762D01*
X170810614Y-102778207D01*
X170821132Y-102798848D01*
X170969201Y-103002649D01*
X170969205Y-103002654D01*
X171147345Y-103180794D01*
X171147350Y-103180798D01*
X171325117Y-103309952D01*
X171351155Y-103328870D01*
X171494184Y-103401747D01*
X171575616Y-103443239D01*
X171575618Y-103443239D01*
X171575621Y-103443241D01*
X171815215Y-103521090D01*
X172064038Y-103560500D01*
X172064039Y-103560500D01*
X172315961Y-103560500D01*
X172315962Y-103560500D01*
X172564785Y-103521090D01*
X172804379Y-103443241D01*
X173028845Y-103328870D01*
X173232656Y-103180793D01*
X173410793Y-103002656D01*
X173558870Y-102798845D01*
X173673241Y-102574379D01*
X173751090Y-102334785D01*
X173790500Y-102085962D01*
X173790500Y-101834038D01*
X173751090Y-101585215D01*
X173673241Y-101345621D01*
X173673239Y-101345618D01*
X173673239Y-101345616D01*
X173618580Y-101238342D01*
X173558870Y-101121155D01*
X173456753Y-100980602D01*
X173410798Y-100917350D01*
X173410794Y-100917345D01*
X173232654Y-100739205D01*
X173232649Y-100739201D01*
X173028848Y-100591132D01*
X173028847Y-100591131D01*
X173028845Y-100591130D01*
X172958747Y-100555413D01*
X172804383Y-100476760D01*
X172564785Y-100398910D01*
X172315962Y-100359500D01*
X172064038Y-100359500D01*
X171939626Y-100379205D01*
X171815214Y-100398910D01*
X171575616Y-100476760D01*
X171351151Y-100591132D01*
X171147350Y-100739201D01*
X171147345Y-100739205D01*
X170969205Y-100917345D01*
X170969201Y-100917350D01*
X170821132Y-101121151D01*
X170706760Y-101345616D01*
X170628910Y-101585214D01*
X170589500Y-101834038D01*
X153790500Y-101834038D01*
X153751090Y-101585215D01*
X153673241Y-101345621D01*
X153673239Y-101345618D01*
X153673239Y-101345616D01*
X153618580Y-101238342D01*
X153558870Y-101121155D01*
X153456753Y-100980602D01*
X153410798Y-100917350D01*
X153410794Y-100917345D01*
X153232654Y-100739205D01*
X153232649Y-100739201D01*
X153028848Y-100591132D01*
X153028847Y-100591131D01*
X153028845Y-100591130D01*
X152958747Y-100555413D01*
X152804383Y-100476760D01*
X152564785Y-100398910D01*
X152315962Y-100359500D01*
X152064038Y-100359500D01*
X151939626Y-100379205D01*
X151815214Y-100398910D01*
X151575616Y-100476760D01*
X151351151Y-100591132D01*
X151147350Y-100739201D01*
X151147345Y-100739205D01*
X150969205Y-100917345D01*
X150969201Y-100917350D01*
X150821132Y-101121150D01*
X150816025Y-101131173D01*
X150810613Y-101141794D01*
X150762641Y-101192590D01*
X150700129Y-101209500D01*
X144116080Y-101209500D01*
X143971092Y-101238340D01*
X143971086Y-101238342D01*
X143834508Y-101294914D01*
X143834496Y-101294921D01*
X143785269Y-101327813D01*
X143711588Y-101377044D01*
X143711580Y-101377050D01*
X127374703Y-117713927D01*
X127342614Y-117737086D01*
X127338599Y-117739099D01*
X127310821Y-117750606D01*
X127296263Y-117760333D01*
X127289369Y-117763791D01*
X127262267Y-117768702D01*
X127235984Y-117776931D01*
X127228379Y-117774844D01*
X127220619Y-117776251D01*
X127195162Y-117765730D01*
X127168605Y-117758443D01*
X127163335Y-117752576D01*
X127156047Y-117749564D01*
X127140320Y-117726951D01*
X127121917Y-117706462D01*
X127120656Y-117698677D01*
X127116153Y-117692203D01*
X127115148Y-117664676D01*
X127110745Y-117637491D01*
X127113892Y-117630260D01*
X127113605Y-117622380D01*
X127127639Y-117598683D01*
X127138634Y-117573429D01*
X127146085Y-117565281D01*
X132772951Y-111938416D01*
X132855084Y-111815495D01*
X132911658Y-111678913D01*
X132935314Y-111559990D01*
X132940500Y-111533920D01*
X132940500Y-104352486D01*
X133749500Y-104352486D01*
X133749500Y-104647513D01*
X133774607Y-104838210D01*
X133788007Y-104939993D01*
X133825743Y-105080827D01*
X133864361Y-105224951D01*
X133864364Y-105224961D01*
X133977254Y-105497500D01*
X133977258Y-105497510D01*
X134124761Y-105752993D01*
X134304352Y-105987040D01*
X134304358Y-105987047D01*
X134512952Y-106195641D01*
X134512959Y-106195647D01*
X134747006Y-106375238D01*
X135002489Y-106522741D01*
X135002490Y-106522741D01*
X135002493Y-106522743D01*
X135275048Y-106635639D01*
X135560007Y-106711993D01*
X135852494Y-106750500D01*
X135852501Y-106750500D01*
X136147499Y-106750500D01*
X136147506Y-106750500D01*
X136439993Y-106711993D01*
X136724952Y-106635639D01*
X136997507Y-106522743D01*
X137252994Y-106375238D01*
X137487042Y-106195646D01*
X137695646Y-105987042D01*
X137875238Y-105752994D01*
X138022743Y-105497507D01*
X138135639Y-105224952D01*
X138211993Y-104939993D01*
X138250500Y-104647506D01*
X138250500Y-104352494D01*
X138211993Y-104060007D01*
X138135639Y-103775048D01*
X138022743Y-103502493D01*
X137953656Y-103382831D01*
X137875238Y-103247006D01*
X137695647Y-103012959D01*
X137695641Y-103012952D01*
X137487047Y-102804358D01*
X137487040Y-102804352D01*
X137252993Y-102624761D01*
X136997510Y-102477258D01*
X136997500Y-102477254D01*
X136724961Y-102364364D01*
X136724954Y-102364362D01*
X136724952Y-102364361D01*
X136439993Y-102288007D01*
X136391113Y-102281571D01*
X136147513Y-102249500D01*
X136147506Y-102249500D01*
X135852494Y-102249500D01*
X135852486Y-102249500D01*
X135574085Y-102286153D01*
X135560007Y-102288007D01*
X135385428Y-102334785D01*
X135275048Y-102364361D01*
X135275038Y-102364364D01*
X135002499Y-102477254D01*
X135002489Y-102477258D01*
X134747006Y-102624761D01*
X134512959Y-102804352D01*
X134512952Y-102804358D01*
X134304358Y-103012952D01*
X134304352Y-103012959D01*
X134124761Y-103247006D01*
X133977258Y-103502489D01*
X133977254Y-103502499D01*
X133864364Y-103775038D01*
X133864361Y-103775048D01*
X133788008Y-104060004D01*
X133788006Y-104060015D01*
X133749500Y-104352486D01*
X132940500Y-104352486D01*
X132940500Y-103449870D01*
X132960185Y-103382831D01*
X133008203Y-103339387D01*
X133028845Y-103328870D01*
X133232656Y-103180793D01*
X133410793Y-103002656D01*
X133558870Y-102798845D01*
X133673241Y-102574379D01*
X133751090Y-102334785D01*
X133790500Y-102085962D01*
X133790500Y-101834038D01*
X133751090Y-101585215D01*
X133673241Y-101345621D01*
X133673239Y-101345618D01*
X133673239Y-101345616D01*
X133618580Y-101238342D01*
X133558870Y-101121155D01*
X133456753Y-100980602D01*
X133410798Y-100917350D01*
X133410794Y-100917345D01*
X133232654Y-100739205D01*
X133232649Y-100739201D01*
X133028848Y-100591132D01*
X133028847Y-100591131D01*
X133028845Y-100591130D01*
X132958747Y-100555413D01*
X132804383Y-100476760D01*
X132564785Y-100398910D01*
X132315962Y-100359500D01*
X132064038Y-100359500D01*
X131939626Y-100379205D01*
X131815214Y-100398910D01*
X131575616Y-100476760D01*
X131351151Y-100591132D01*
X131147350Y-100739201D01*
X131147345Y-100739205D01*
X130969205Y-100917345D01*
X130969201Y-100917350D01*
X130821132Y-101121151D01*
X130706760Y-101345616D01*
X130628910Y-101585214D01*
X130589500Y-101834038D01*
X130589500Y-102085961D01*
X130628910Y-102334785D01*
X130706760Y-102574383D01*
X130732430Y-102624762D01*
X130810614Y-102778207D01*
X130821132Y-102798848D01*
X130969201Y-103002649D01*
X130969205Y-103002654D01*
X131147345Y-103180794D01*
X131147350Y-103180798D01*
X131348614Y-103327024D01*
X131351155Y-103328870D01*
X131371796Y-103339386D01*
X131422589Y-103387356D01*
X131439500Y-103449870D01*
X131439500Y-111097769D01*
X131419815Y-111164808D01*
X131403181Y-111185450D01*
X125607050Y-116981580D01*
X125607044Y-116981588D01*
X125557812Y-117055268D01*
X125557813Y-117055269D01*
X125524921Y-117104496D01*
X125524914Y-117104508D01*
X125468342Y-117241086D01*
X125468340Y-117241092D01*
X125439500Y-117386079D01*
X125439500Y-121597769D01*
X125419815Y-121664808D01*
X125403181Y-121685450D01*
X120374703Y-126713927D01*
X120334480Y-126740805D01*
X120310819Y-126750606D01*
X120310818Y-126750607D01*
X120179715Y-126838207D01*
X120179707Y-126838213D01*
X120068213Y-126949707D01*
X120068210Y-126949711D01*
X119980609Y-127080814D01*
X119980602Y-127080827D01*
X119920264Y-127226498D01*
X119920261Y-127226510D01*
X119889500Y-127381153D01*
X117954602Y-127381153D01*
X117812656Y-127239207D01*
X117812654Y-127239205D01*
X117812649Y-127239201D01*
X117608848Y-127091132D01*
X117608847Y-127091131D01*
X117608845Y-127091130D01*
X117538747Y-127055413D01*
X117384383Y-126976760D01*
X117144785Y-126898910D01*
X116895962Y-126859500D01*
X116644038Y-126859500D01*
X116577738Y-126870001D01*
X116395214Y-126898910D01*
X116155616Y-126976760D01*
X115931151Y-127091132D01*
X115727350Y-127239201D01*
X115727345Y-127239205D01*
X115549205Y-127417345D01*
X115549201Y-127417350D01*
X115401132Y-127621151D01*
X115286760Y-127845616D01*
X115208910Y-128085214D01*
X115169500Y-128334038D01*
X108210500Y-128334038D01*
X108210500Y-127559990D01*
X108199999Y-127457202D01*
X108144814Y-127290665D01*
X108052712Y-127141344D01*
X107928656Y-127017288D01*
X107779335Y-126925186D01*
X107612798Y-126870001D01*
X107612796Y-126870000D01*
X107510017Y-126859500D01*
X107510010Y-126859500D01*
X105709990Y-126859500D01*
X105709982Y-126859500D01*
X105607203Y-126870000D01*
X105607202Y-126870001D01*
X105524669Y-126897349D01*
X105440667Y-126925185D01*
X105440662Y-126925187D01*
X105291342Y-127017289D01*
X105167289Y-127141342D01*
X105075187Y-127290662D01*
X105075186Y-127290665D01*
X105020001Y-127457202D01*
X105020001Y-127457203D01*
X105020000Y-127457203D01*
X105009500Y-127559982D01*
X99690500Y-127559982D01*
X99690500Y-123559982D01*
X105009500Y-123559982D01*
X105009500Y-125360017D01*
X105020000Y-125462796D01*
X105058012Y-125577507D01*
X105075186Y-125629335D01*
X105167288Y-125778656D01*
X105291344Y-125902712D01*
X105440665Y-125994814D01*
X105607202Y-126049999D01*
X105709990Y-126060500D01*
X105709995Y-126060500D01*
X107510005Y-126060500D01*
X107510010Y-126060500D01*
X107612798Y-126049999D01*
X107779335Y-125994814D01*
X107928656Y-125902712D01*
X108052712Y-125778656D01*
X108144814Y-125629335D01*
X108199999Y-125462798D01*
X108210500Y-125360010D01*
X108210500Y-124334038D01*
X115169500Y-124334038D01*
X115169500Y-124585962D01*
X115191919Y-124727506D01*
X115208910Y-124834785D01*
X115286760Y-125074383D01*
X115363479Y-125224951D01*
X115383865Y-125264961D01*
X115401132Y-125298848D01*
X115549201Y-125502649D01*
X115549205Y-125502654D01*
X115727345Y-125680794D01*
X115727350Y-125680798D01*
X115881774Y-125792993D01*
X115931155Y-125828870D01*
X116074184Y-125901747D01*
X116155616Y-125943239D01*
X116155618Y-125943239D01*
X116155621Y-125943241D01*
X116395215Y-126021090D01*
X116644038Y-126060500D01*
X116644039Y-126060500D01*
X116895961Y-126060500D01*
X116895962Y-126060500D01*
X117144785Y-126021090D01*
X117384379Y-125943241D01*
X117608845Y-125828870D01*
X117812656Y-125680793D01*
X117990793Y-125502656D01*
X118138870Y-125298845D01*
X118253241Y-125074379D01*
X118331090Y-124834785D01*
X118370500Y-124585962D01*
X118370500Y-124334038D01*
X118331090Y-124085215D01*
X118253241Y-123845621D01*
X118253239Y-123845618D01*
X118253239Y-123845616D01*
X118211747Y-123764184D01*
X118138870Y-123621155D01*
X118110785Y-123582499D01*
X117990798Y-123417350D01*
X117990794Y-123417345D01*
X117812654Y-123239205D01*
X117812649Y-123239201D01*
X117608848Y-123091132D01*
X117608847Y-123091131D01*
X117608845Y-123091130D01*
X117533916Y-123052952D01*
X117384383Y-122976760D01*
X117144785Y-122898910D01*
X117052908Y-122884358D01*
X116895962Y-122859500D01*
X116644038Y-122859500D01*
X116519626Y-122879205D01*
X116395214Y-122898910D01*
X116155616Y-122976760D01*
X115931151Y-123091132D01*
X115727350Y-123239201D01*
X115727345Y-123239205D01*
X115549205Y-123417345D01*
X115549201Y-123417350D01*
X115401132Y-123621151D01*
X115286760Y-123845616D01*
X115208910Y-124085214D01*
X115200232Y-124140004D01*
X115169500Y-124334038D01*
X108210500Y-124334038D01*
X108210500Y-123559990D01*
X108199999Y-123457202D01*
X108144814Y-123290665D01*
X108052712Y-123141344D01*
X107928656Y-123017288D01*
X107779335Y-122925186D01*
X107612798Y-122870001D01*
X107612796Y-122870000D01*
X107510017Y-122859500D01*
X107510010Y-122859500D01*
X105709990Y-122859500D01*
X105709982Y-122859500D01*
X105607203Y-122870000D01*
X105607202Y-122870001D01*
X105580513Y-122878845D01*
X105440667Y-122925185D01*
X105440662Y-122925187D01*
X105291342Y-123017289D01*
X105167289Y-123141342D01*
X105075187Y-123290662D01*
X105075186Y-123290665D01*
X105020001Y-123457202D01*
X105020001Y-123457203D01*
X105020000Y-123457203D01*
X105009500Y-123559982D01*
X99690500Y-123559982D01*
X99690500Y-119559982D01*
X105009500Y-119559982D01*
X105009500Y-121360017D01*
X105020000Y-121462796D01*
X105060566Y-121585214D01*
X105075186Y-121629335D01*
X105167288Y-121778656D01*
X105291344Y-121902712D01*
X105440665Y-121994814D01*
X105607202Y-122049999D01*
X105709990Y-122060500D01*
X105709995Y-122060500D01*
X107510005Y-122060500D01*
X107510010Y-122060500D01*
X107612798Y-122049999D01*
X107779335Y-121994814D01*
X107928656Y-121902712D01*
X108052712Y-121778656D01*
X108144814Y-121629335D01*
X108199999Y-121462798D01*
X108210500Y-121360010D01*
X108210500Y-120334038D01*
X115169500Y-120334038D01*
X115169500Y-120585962D01*
X115193772Y-120739207D01*
X115208910Y-120834785D01*
X115286760Y-121074383D01*
X115401132Y-121298848D01*
X115549201Y-121502649D01*
X115549205Y-121502654D01*
X115727345Y-121680794D01*
X115727350Y-121680798D01*
X115905117Y-121809952D01*
X115931155Y-121828870D01*
X116043440Y-121886082D01*
X116155616Y-121943239D01*
X116155618Y-121943239D01*
X116155621Y-121943241D01*
X116395215Y-122021090D01*
X116644038Y-122060500D01*
X116644039Y-122060500D01*
X116895961Y-122060500D01*
X116895962Y-122060500D01*
X117144785Y-122021090D01*
X117384379Y-121943241D01*
X117608845Y-121828870D01*
X117812656Y-121680793D01*
X117990793Y-121502656D01*
X118138870Y-121298845D01*
X118253241Y-121074379D01*
X118331090Y-120834785D01*
X118370500Y-120585962D01*
X118370500Y-120334038D01*
X118331090Y-120085215D01*
X118253241Y-119845621D01*
X118253239Y-119845618D01*
X118253239Y-119845616D01*
X118211747Y-119764184D01*
X118138870Y-119621155D01*
X118050847Y-119500001D01*
X117990798Y-119417350D01*
X117990794Y-119417345D01*
X117812654Y-119239205D01*
X117812649Y-119239201D01*
X117608848Y-119091132D01*
X117608847Y-119091131D01*
X117608845Y-119091130D01*
X117524645Y-119048228D01*
X117384383Y-118976760D01*
X117144785Y-118898910D01*
X117062107Y-118885815D01*
X116895962Y-118859500D01*
X116644038Y-118859500D01*
X116577738Y-118870001D01*
X116395214Y-118898910D01*
X116155616Y-118976760D01*
X115931151Y-119091132D01*
X115727350Y-119239201D01*
X115727345Y-119239205D01*
X115549205Y-119417345D01*
X115549201Y-119417350D01*
X115401132Y-119621151D01*
X115286760Y-119845616D01*
X115208910Y-120085214D01*
X115208910Y-120085215D01*
X115169500Y-120334038D01*
X108210500Y-120334038D01*
X108210500Y-119559990D01*
X108199999Y-119457202D01*
X108144814Y-119290665D01*
X108052712Y-119141344D01*
X107928656Y-119017288D01*
X107779335Y-118925186D01*
X107612798Y-118870001D01*
X107612796Y-118870000D01*
X107510017Y-118859500D01*
X107510010Y-118859500D01*
X105709990Y-118859500D01*
X105709982Y-118859500D01*
X105607203Y-118870000D01*
X105607202Y-118870001D01*
X105584762Y-118877437D01*
X105440667Y-118925185D01*
X105440662Y-118925187D01*
X105291342Y-119017289D01*
X105167289Y-119141342D01*
X105075187Y-119290662D01*
X105075185Y-119290667D01*
X105060802Y-119334072D01*
X105020001Y-119457202D01*
X105020001Y-119457203D01*
X105020000Y-119457203D01*
X105009500Y-119559982D01*
X99690500Y-119559982D01*
X99690500Y-115559982D01*
X105009500Y-115559982D01*
X105009500Y-117360017D01*
X105020000Y-117462796D01*
X105075185Y-117629332D01*
X105075187Y-117629337D01*
X105106926Y-117680793D01*
X105167288Y-117778656D01*
X105291344Y-117902712D01*
X105440665Y-117994814D01*
X105607202Y-118049999D01*
X105709990Y-118060500D01*
X105709995Y-118060500D01*
X107510005Y-118060500D01*
X107510010Y-118060500D01*
X107612798Y-118049999D01*
X107779335Y-117994814D01*
X107928656Y-117902712D01*
X108052712Y-117778656D01*
X108144814Y-117629335D01*
X108199999Y-117462798D01*
X108210500Y-117360010D01*
X108210500Y-116334038D01*
X115169500Y-116334038D01*
X115169500Y-116585961D01*
X115208910Y-116834785D01*
X115286760Y-117074383D01*
X115401132Y-117298848D01*
X115549201Y-117502649D01*
X115549205Y-117502654D01*
X115727345Y-117680794D01*
X115727350Y-117680798D01*
X115905117Y-117809952D01*
X115931155Y-117828870D01*
X116069572Y-117899397D01*
X116155616Y-117943239D01*
X116155618Y-117943239D01*
X116155621Y-117943241D01*
X116395215Y-118021090D01*
X116644038Y-118060500D01*
X116644039Y-118060500D01*
X116895961Y-118060500D01*
X116895962Y-118060500D01*
X117144785Y-118021090D01*
X117384379Y-117943241D01*
X117608845Y-117828870D01*
X117812656Y-117680793D01*
X117990793Y-117502656D01*
X118138870Y-117298845D01*
X118253241Y-117074379D01*
X118331090Y-116834785D01*
X118370500Y-116585962D01*
X118370500Y-116334038D01*
X118331090Y-116085215D01*
X118253241Y-115845621D01*
X118253239Y-115845618D01*
X118253239Y-115845616D01*
X118211747Y-115764184D01*
X118138870Y-115621155D01*
X118094425Y-115559982D01*
X117990798Y-115417350D01*
X117990794Y-115417345D01*
X117812654Y-115239205D01*
X117812649Y-115239201D01*
X117608848Y-115091132D01*
X117608847Y-115091131D01*
X117608845Y-115091130D01*
X117538747Y-115055413D01*
X117384383Y-114976760D01*
X117144785Y-114898910D01*
X116895962Y-114859500D01*
X116644038Y-114859500D01*
X116577738Y-114870001D01*
X116395214Y-114898910D01*
X116155616Y-114976760D01*
X115931151Y-115091132D01*
X115727350Y-115239201D01*
X115727345Y-115239205D01*
X115549205Y-115417345D01*
X115549201Y-115417350D01*
X115401132Y-115621151D01*
X115286760Y-115845616D01*
X115208910Y-116085214D01*
X115169500Y-116334038D01*
X108210500Y-116334038D01*
X108210500Y-115559990D01*
X108199999Y-115457202D01*
X108144814Y-115290665D01*
X108052712Y-115141344D01*
X107928656Y-115017288D01*
X107779335Y-114925186D01*
X107612798Y-114870001D01*
X107612796Y-114870000D01*
X107510017Y-114859500D01*
X107510010Y-114859500D01*
X105709990Y-114859500D01*
X105709982Y-114859500D01*
X105607203Y-114870000D01*
X105607202Y-114870001D01*
X105524669Y-114897349D01*
X105440667Y-114925185D01*
X105440662Y-114925187D01*
X105291342Y-115017289D01*
X105167289Y-115141342D01*
X105075187Y-115290662D01*
X105075186Y-115290665D01*
X105020001Y-115457202D01*
X105020001Y-115457203D01*
X105020000Y-115457203D01*
X105009500Y-115559982D01*
X99690500Y-115559982D01*
X99690500Y-111559982D01*
X104929500Y-111559982D01*
X104929500Y-113360017D01*
X104940000Y-113462796D01*
X104995185Y-113629332D01*
X104995186Y-113629335D01*
X105087288Y-113778656D01*
X105211344Y-113902712D01*
X105360665Y-113994814D01*
X105527202Y-114049999D01*
X105629990Y-114060500D01*
X105629995Y-114060500D01*
X107430005Y-114060500D01*
X107430010Y-114060500D01*
X107532798Y-114049999D01*
X107699335Y-113994814D01*
X107848656Y-113902712D01*
X107972712Y-113778656D01*
X108064814Y-113629335D01*
X108119999Y-113462798D01*
X108130500Y-113360010D01*
X108130500Y-112334038D01*
X115089500Y-112334038D01*
X115089500Y-112585961D01*
X115128910Y-112834785D01*
X115206760Y-113074383D01*
X115321132Y-113298848D01*
X115469201Y-113502649D01*
X115469205Y-113502654D01*
X115647345Y-113680794D01*
X115647350Y-113680798D01*
X115825117Y-113809952D01*
X115851155Y-113828870D01*
X115994184Y-113901747D01*
X116075616Y-113943239D01*
X116075618Y-113943239D01*
X116075621Y-113943241D01*
X116315215Y-114021090D01*
X116564038Y-114060500D01*
X116564039Y-114060500D01*
X116815961Y-114060500D01*
X116815962Y-114060500D01*
X117064785Y-114021090D01*
X117304379Y-113943241D01*
X117528845Y-113828870D01*
X117732656Y-113680793D01*
X117910793Y-113502656D01*
X118058870Y-113298845D01*
X118173241Y-113074379D01*
X118251090Y-112834785D01*
X118290500Y-112585962D01*
X118290500Y-112334038D01*
X118251090Y-112085215D01*
X118173241Y-111845621D01*
X118173239Y-111845618D01*
X118173239Y-111845616D01*
X118083450Y-111669397D01*
X118058870Y-111621155D01*
X117949259Y-111470288D01*
X117910798Y-111417350D01*
X117910794Y-111417345D01*
X117732654Y-111239205D01*
X117732649Y-111239201D01*
X117528848Y-111091132D01*
X117528847Y-111091131D01*
X117528845Y-111091130D01*
X117426224Y-111038842D01*
X117304383Y-110976760D01*
X117064785Y-110898910D01*
X116952704Y-110881158D01*
X116815962Y-110859500D01*
X116564038Y-110859500D01*
X116497738Y-110870001D01*
X116315214Y-110898910D01*
X116075616Y-110976760D01*
X115851151Y-111091132D01*
X115647350Y-111239201D01*
X115647345Y-111239205D01*
X115469205Y-111417345D01*
X115469201Y-111417350D01*
X115321132Y-111621151D01*
X115206760Y-111845616D01*
X115128910Y-112085214D01*
X115089500Y-112334038D01*
X108130500Y-112334038D01*
X108130500Y-111559990D01*
X108119999Y-111457202D01*
X108064814Y-111290665D01*
X107972712Y-111141344D01*
X107848656Y-111017288D01*
X107699335Y-110925186D01*
X107532798Y-110870001D01*
X107532796Y-110870000D01*
X107430017Y-110859500D01*
X107430010Y-110859500D01*
X105629990Y-110859500D01*
X105629982Y-110859500D01*
X105527203Y-110870000D01*
X105527202Y-110870001D01*
X105444669Y-110897349D01*
X105360667Y-110925185D01*
X105360662Y-110925187D01*
X105211342Y-111017289D01*
X105087289Y-111141342D01*
X104995187Y-111290662D01*
X104995186Y-111290665D01*
X104940001Y-111457202D01*
X104940001Y-111457203D01*
X104940000Y-111457203D01*
X104929500Y-111559982D01*
X99690500Y-111559982D01*
X99690500Y-108334038D01*
X104929500Y-108334038D01*
X104929500Y-108585961D01*
X104968910Y-108834785D01*
X105046760Y-109074383D01*
X105161132Y-109298848D01*
X105309201Y-109502649D01*
X105309205Y-109502654D01*
X105487345Y-109680794D01*
X105487350Y-109680798D01*
X105665117Y-109809952D01*
X105691155Y-109828870D01*
X105834184Y-109901747D01*
X105915616Y-109943239D01*
X105915618Y-109943239D01*
X105915621Y-109943241D01*
X106155215Y-110021090D01*
X106404038Y-110060500D01*
X106404039Y-110060500D01*
X106655961Y-110060500D01*
X106655962Y-110060500D01*
X106904785Y-110021090D01*
X107144379Y-109943241D01*
X107368845Y-109828870D01*
X107572656Y-109680793D01*
X107750793Y-109502656D01*
X107898870Y-109298845D01*
X108013241Y-109074379D01*
X108091090Y-108834785D01*
X108130500Y-108585962D01*
X108130500Y-108334038D01*
X108091090Y-108085215D01*
X108013241Y-107845621D01*
X108013239Y-107845618D01*
X108013239Y-107845616D01*
X107898869Y-107621154D01*
X107898865Y-107621148D01*
X107854426Y-107559982D01*
X115089500Y-107559982D01*
X115089500Y-109360017D01*
X115100000Y-109462796D01*
X115155185Y-109629332D01*
X115155186Y-109629335D01*
X115247288Y-109778656D01*
X115371344Y-109902712D01*
X115520665Y-109994814D01*
X115687202Y-110049999D01*
X115789990Y-110060500D01*
X115789995Y-110060500D01*
X117590005Y-110060500D01*
X117590010Y-110060500D01*
X117692798Y-110049999D01*
X117859335Y-109994814D01*
X118008656Y-109902712D01*
X118132712Y-109778656D01*
X118224814Y-109629335D01*
X118279999Y-109462798D01*
X118290500Y-109360010D01*
X118290500Y-107559990D01*
X118279999Y-107457202D01*
X118224814Y-107290665D01*
X118132712Y-107141344D01*
X118008656Y-107017288D01*
X117859335Y-106925186D01*
X117692798Y-106870001D01*
X117692796Y-106870000D01*
X117590017Y-106859500D01*
X117590010Y-106859500D01*
X115789990Y-106859500D01*
X115789982Y-106859500D01*
X115687203Y-106870000D01*
X115687202Y-106870001D01*
X115604669Y-106897349D01*
X115520667Y-106925185D01*
X115520662Y-106925187D01*
X115371342Y-107017289D01*
X115247289Y-107141342D01*
X115155187Y-107290662D01*
X115155186Y-107290665D01*
X115100001Y-107457202D01*
X115100001Y-107457203D01*
X115100000Y-107457203D01*
X115089500Y-107559982D01*
X107854426Y-107559982D01*
X107750798Y-107417350D01*
X107750794Y-107417345D01*
X107572654Y-107239205D01*
X107572649Y-107239201D01*
X107368848Y-107091132D01*
X107368847Y-107091131D01*
X107368845Y-107091130D01*
X107298747Y-107055413D01*
X107144383Y-106976760D01*
X106904785Y-106898910D01*
X106655962Y-106859500D01*
X106404038Y-106859500D01*
X106337738Y-106870001D01*
X106155214Y-106898910D01*
X105915616Y-106976760D01*
X105691151Y-107091132D01*
X105487350Y-107239201D01*
X105487345Y-107239205D01*
X105309205Y-107417345D01*
X105309201Y-107417350D01*
X105161132Y-107621151D01*
X105046760Y-107845616D01*
X104968910Y-108085214D01*
X104929500Y-108334038D01*
X99690500Y-108334038D01*
X99690500Y-105381153D01*
X112389500Y-105381153D01*
X112389500Y-105538846D01*
X112420261Y-105693489D01*
X112420264Y-105693501D01*
X112480602Y-105839172D01*
X112480609Y-105839185D01*
X112568210Y-105970288D01*
X112568213Y-105970292D01*
X112679707Y-106081786D01*
X112679711Y-106081789D01*
X112810814Y-106169390D01*
X112810827Y-106169397D01*
X112910060Y-106210500D01*
X112956503Y-106229737D01*
X113111153Y-106260499D01*
X113111156Y-106260500D01*
X113111158Y-106260500D01*
X113268844Y-106260500D01*
X113268845Y-106260499D01*
X113345152Y-106245320D01*
X113423488Y-106229739D01*
X113423489Y-106229738D01*
X113423497Y-106229737D01*
X113447155Y-106219937D01*
X113494604Y-106210500D01*
X125885396Y-106210500D01*
X125932844Y-106219937D01*
X125956503Y-106229737D01*
X125956508Y-106229738D01*
X125956511Y-106229739D01*
X126111153Y-106260499D01*
X126111156Y-106260500D01*
X126111158Y-106260500D01*
X126268844Y-106260500D01*
X126268845Y-106260499D01*
X126423497Y-106229737D01*
X126569179Y-106169394D01*
X126700289Y-106081789D01*
X126811789Y-105970289D01*
X126899394Y-105839179D01*
X126959737Y-105693497D01*
X126990500Y-105538842D01*
X126990500Y-105381158D01*
X126990500Y-105381155D01*
X126990499Y-105381153D01*
X126959738Y-105226510D01*
X126959737Y-105226503D01*
X126959094Y-105224951D01*
X126899397Y-105080827D01*
X126899390Y-105080814D01*
X126811789Y-104949711D01*
X126811786Y-104949707D01*
X126700292Y-104838213D01*
X126700288Y-104838210D01*
X126569185Y-104750609D01*
X126569172Y-104750602D01*
X126423501Y-104690264D01*
X126423489Y-104690261D01*
X126268845Y-104659500D01*
X126268842Y-104659500D01*
X126111158Y-104659500D01*
X126111155Y-104659500D01*
X125956511Y-104690260D01*
X125956506Y-104690262D01*
X125956504Y-104690262D01*
X125956503Y-104690263D01*
X125932844Y-104700062D01*
X125885396Y-104709500D01*
X113494604Y-104709500D01*
X113447155Y-104700062D01*
X113423497Y-104690263D01*
X113423493Y-104690262D01*
X113423488Y-104690260D01*
X113268845Y-104659500D01*
X113268842Y-104659500D01*
X113111158Y-104659500D01*
X113111155Y-104659500D01*
X112956510Y-104690261D01*
X112956498Y-104690264D01*
X112810827Y-104750602D01*
X112810814Y-104750609D01*
X112679711Y-104838210D01*
X112679707Y-104838213D01*
X112568213Y-104949707D01*
X112568210Y-104949711D01*
X112480609Y-105080814D01*
X112480602Y-105080827D01*
X112420264Y-105226498D01*
X112420261Y-105226510D01*
X112389500Y-105381153D01*
X99690500Y-105381153D01*
X99690500Y-84931635D01*
X105658000Y-84931635D01*
X105658000Y-86385370D01*
X105658001Y-86385376D01*
X105664408Y-86444983D01*
X105714702Y-86579828D01*
X105714706Y-86579835D01*
X105800952Y-86695044D01*
X105800955Y-86695047D01*
X105916164Y-86781293D01*
X105916171Y-86781297D01*
X106051017Y-86831591D01*
X106051016Y-86831591D01*
X106057944Y-86832335D01*
X106110627Y-86838000D01*
X106424845Y-86837999D01*
X106491882Y-86857683D01*
X106537637Y-86910487D01*
X106547581Y-86979646D01*
X106518556Y-87043201D01*
X106463163Y-87079929D01*
X106384728Y-87105415D01*
X106219306Y-87189701D01*
X106133611Y-87251962D01*
X106069107Y-87298828D01*
X106069105Y-87298830D01*
X106069104Y-87298830D01*
X105937830Y-87430104D01*
X105937830Y-87430105D01*
X105937828Y-87430107D01*
X105891352Y-87494075D01*
X105828701Y-87580306D01*
X105744416Y-87745726D01*
X105687042Y-87922303D01*
X105658000Y-88105665D01*
X105658000Y-88291334D01*
X105687024Y-88474583D01*
X105687043Y-88474700D01*
X105744415Y-88651271D01*
X105828701Y-88816693D01*
X105937828Y-88966893D01*
X106069107Y-89098172D01*
X106219307Y-89207299D01*
X106384729Y-89291585D01*
X106561300Y-89348957D01*
X106561302Y-89348957D01*
X106565933Y-89350462D01*
X106565226Y-89352635D01*
X106617629Y-89382748D01*
X106649771Y-89444786D01*
X106643271Y-89514352D01*
X106600192Y-89569361D01*
X106565499Y-89585204D01*
X106565933Y-89586538D01*
X106561302Y-89588042D01*
X106561300Y-89588043D01*
X106384729Y-89645415D01*
X106384726Y-89645416D01*
X106219306Y-89729701D01*
X106133611Y-89791962D01*
X106069107Y-89838828D01*
X106069105Y-89838830D01*
X106069104Y-89838830D01*
X105937830Y-89970104D01*
X105937830Y-89970105D01*
X105937828Y-89970107D01*
X105890962Y-90034611D01*
X105828701Y-90120306D01*
X105744416Y-90285726D01*
X105687042Y-90462303D01*
X105658000Y-90645665D01*
X105658000Y-90831334D01*
X105676675Y-90949240D01*
X105687043Y-91014700D01*
X105744415Y-91191271D01*
X105828701Y-91356693D01*
X105937828Y-91506893D01*
X106069107Y-91638172D01*
X106219307Y-91747299D01*
X106384729Y-91831585D01*
X106561300Y-91888957D01*
X106561302Y-91888957D01*
X106565933Y-91890462D01*
X106565226Y-91892635D01*
X106617629Y-91922748D01*
X106649771Y-91984786D01*
X106643271Y-92054352D01*
X106600192Y-92109361D01*
X106565499Y-92125204D01*
X106565933Y-92126538D01*
X106561302Y-92128042D01*
X106561300Y-92128043D01*
X106426447Y-92171860D01*
X106384726Y-92185416D01*
X106219306Y-92269701D01*
X106139079Y-92327990D01*
X106069107Y-92378828D01*
X106069105Y-92378830D01*
X106069104Y-92378830D01*
X105937830Y-92510104D01*
X105937830Y-92510105D01*
X105937828Y-92510107D01*
X105916948Y-92538846D01*
X105828701Y-92660306D01*
X105744416Y-92825726D01*
X105687042Y-93002303D01*
X105658000Y-93185665D01*
X105658000Y-93371334D01*
X105687042Y-93554696D01*
X105687043Y-93554700D01*
X105744415Y-93731271D01*
X105828701Y-93896693D01*
X105937828Y-94046893D01*
X106069107Y-94178172D01*
X106219307Y-94287299D01*
X106384729Y-94371585D01*
X106561300Y-94428957D01*
X106561302Y-94428957D01*
X106565933Y-94430462D01*
X106565226Y-94432635D01*
X106617629Y-94462748D01*
X106649771Y-94524786D01*
X106643271Y-94594352D01*
X106600192Y-94649361D01*
X106565499Y-94665204D01*
X106565933Y-94666538D01*
X106561302Y-94668042D01*
X106561300Y-94668043D01*
X106432171Y-94710000D01*
X106384726Y-94725416D01*
X106219306Y-94809701D01*
X106133611Y-94871962D01*
X106069107Y-94918828D01*
X106069105Y-94918830D01*
X106069104Y-94918830D01*
X105937830Y-95050104D01*
X105937830Y-95050105D01*
X105937828Y-95050107D01*
X105915518Y-95080814D01*
X105828701Y-95200306D01*
X105744416Y-95365726D01*
X105687042Y-95542303D01*
X105658000Y-95725665D01*
X105658000Y-95911334D01*
X105684998Y-96081789D01*
X105687043Y-96094700D01*
X105744415Y-96271271D01*
X105828701Y-96436693D01*
X105937828Y-96586893D01*
X106069107Y-96718172D01*
X106219307Y-96827299D01*
X106384729Y-96911585D01*
X106561300Y-96968957D01*
X106561302Y-96968957D01*
X106565933Y-96970462D01*
X106565226Y-96972635D01*
X106617629Y-97002748D01*
X106649771Y-97064786D01*
X106643271Y-97134352D01*
X106600192Y-97189361D01*
X106565499Y-97205204D01*
X106565933Y-97206538D01*
X106561302Y-97208042D01*
X106561300Y-97208043D01*
X106384729Y-97265415D01*
X106384726Y-97265416D01*
X106219306Y-97349701D01*
X106133611Y-97411962D01*
X106069107Y-97458828D01*
X106069105Y-97458830D01*
X106069104Y-97458830D01*
X105937830Y-97590104D01*
X105937830Y-97590105D01*
X105937828Y-97590107D01*
X105890962Y-97654611D01*
X105828701Y-97740306D01*
X105744416Y-97905726D01*
X105687042Y-98082303D01*
X105658000Y-98265665D01*
X105658000Y-98451334D01*
X105687042Y-98634696D01*
X105687043Y-98634700D01*
X105744415Y-98811271D01*
X105828701Y-98976693D01*
X105937828Y-99126893D01*
X106069107Y-99258172D01*
X106219307Y-99367299D01*
X106384729Y-99451585D01*
X106561300Y-99508957D01*
X106561302Y-99508957D01*
X106565933Y-99510462D01*
X106565226Y-99512635D01*
X106617629Y-99542748D01*
X106649771Y-99604786D01*
X106643271Y-99674352D01*
X106600192Y-99729361D01*
X106565499Y-99745204D01*
X106565933Y-99746538D01*
X106561302Y-99748042D01*
X106561300Y-99748043D01*
X106384729Y-99805415D01*
X106384726Y-99805416D01*
X106219306Y-99889701D01*
X106133611Y-99951962D01*
X106069107Y-99998828D01*
X106069105Y-99998830D01*
X106069104Y-99998830D01*
X105937830Y-100130104D01*
X105937830Y-100130105D01*
X105937828Y-100130107D01*
X105908844Y-100170000D01*
X105828701Y-100280306D01*
X105744416Y-100445726D01*
X105687042Y-100622303D01*
X105658000Y-100805665D01*
X105658000Y-100991334D01*
X105678562Y-101121155D01*
X105687043Y-101174700D01*
X105744415Y-101351271D01*
X105828701Y-101516693D01*
X105937828Y-101666893D01*
X106069107Y-101798172D01*
X106219307Y-101907299D01*
X106384729Y-101991585D01*
X106561300Y-102048957D01*
X106630064Y-102059848D01*
X106744666Y-102078000D01*
X106744671Y-102078000D01*
X106930334Y-102078000D01*
X107032201Y-102061865D01*
X107113700Y-102048957D01*
X107290271Y-101991585D01*
X107455693Y-101907299D01*
X107605893Y-101798172D01*
X107737172Y-101666893D01*
X107846299Y-101516693D01*
X107930585Y-101351271D01*
X107987957Y-101174700D01*
X108000865Y-101093201D01*
X108017000Y-100991334D01*
X108017000Y-100805665D01*
X107987957Y-100622303D01*
X107987957Y-100622300D01*
X107930585Y-100445729D01*
X107846299Y-100280307D01*
X107737172Y-100130107D01*
X107605893Y-99998828D01*
X107455693Y-99889701D01*
X107290271Y-99805415D01*
X107113700Y-99748043D01*
X107113697Y-99748042D01*
X107109067Y-99746538D01*
X107109777Y-99744352D01*
X107057414Y-99714297D01*
X107025240Y-99652276D01*
X107031705Y-99582706D01*
X107074756Y-99527676D01*
X107109504Y-99511807D01*
X107109067Y-99510462D01*
X107113697Y-99508957D01*
X107113700Y-99508957D01*
X107290271Y-99451585D01*
X107455693Y-99367299D01*
X107605893Y-99258172D01*
X107737172Y-99126893D01*
X107846299Y-98976693D01*
X107930585Y-98811271D01*
X107987957Y-98634700D01*
X108012570Y-98479300D01*
X108017000Y-98451334D01*
X108017000Y-98265665D01*
X107987957Y-98082303D01*
X107987957Y-98082302D01*
X107987957Y-98082300D01*
X107930585Y-97905729D01*
X107846299Y-97740307D01*
X107737172Y-97590107D01*
X107605893Y-97458828D01*
X107455693Y-97349701D01*
X107290271Y-97265415D01*
X107113700Y-97208043D01*
X107113697Y-97208042D01*
X107109067Y-97206538D01*
X107109777Y-97204352D01*
X107057414Y-97174297D01*
X107025240Y-97112276D01*
X107031705Y-97042706D01*
X107074756Y-96987676D01*
X107109504Y-96971807D01*
X107109067Y-96970462D01*
X107113697Y-96968957D01*
X107113700Y-96968957D01*
X107290271Y-96911585D01*
X107455693Y-96827299D01*
X107605893Y-96718172D01*
X107737172Y-96586893D01*
X107846299Y-96436693D01*
X107930585Y-96271271D01*
X107987957Y-96094700D01*
X108000865Y-96013201D01*
X108017000Y-95911334D01*
X108017000Y-95725665D01*
X107987957Y-95542303D01*
X107987957Y-95542300D01*
X107930585Y-95365729D01*
X107846299Y-95200307D01*
X107737172Y-95050107D01*
X107605893Y-94918828D01*
X107455693Y-94809701D01*
X107290271Y-94725415D01*
X107113700Y-94668043D01*
X107113697Y-94668042D01*
X107109067Y-94666538D01*
X107109777Y-94664352D01*
X107057414Y-94634297D01*
X107025240Y-94572276D01*
X107031705Y-94502706D01*
X107074756Y-94447676D01*
X107109504Y-94431807D01*
X107109067Y-94430462D01*
X107113697Y-94428957D01*
X107113700Y-94428957D01*
X107290271Y-94371585D01*
X107455693Y-94287299D01*
X107605893Y-94178172D01*
X107737172Y-94046893D01*
X107846299Y-93896693D01*
X107930585Y-93731271D01*
X107987957Y-93554700D01*
X108016235Y-93376162D01*
X108017000Y-93371334D01*
X108017000Y-93185665D01*
X107987957Y-93002303D01*
X107987957Y-93002300D01*
X107930585Y-92825729D01*
X107846299Y-92660307D01*
X107737172Y-92510107D01*
X107605893Y-92378828D01*
X107455693Y-92269701D01*
X107290271Y-92185415D01*
X107113700Y-92128043D01*
X107113697Y-92128042D01*
X107109067Y-92126538D01*
X107109777Y-92124352D01*
X107057414Y-92094297D01*
X107025240Y-92032276D01*
X107031705Y-91962706D01*
X107074756Y-91907676D01*
X107109504Y-91891807D01*
X107109067Y-91890462D01*
X107113697Y-91888957D01*
X107113700Y-91888957D01*
X107290271Y-91831585D01*
X107455693Y-91747299D01*
X107605893Y-91638172D01*
X107737172Y-91506893D01*
X107846299Y-91356693D01*
X107930585Y-91191271D01*
X107987957Y-91014700D01*
X108000865Y-90933201D01*
X108017000Y-90831334D01*
X108017000Y-90645665D01*
X107997096Y-90520000D01*
X107987957Y-90462300D01*
X107930585Y-90285729D01*
X107846299Y-90120307D01*
X107737172Y-89970107D01*
X107605893Y-89838828D01*
X107455693Y-89729701D01*
X107290271Y-89645415D01*
X107113700Y-89588043D01*
X107113697Y-89588042D01*
X107109067Y-89586538D01*
X107109777Y-89584352D01*
X107057414Y-89554297D01*
X107025240Y-89492276D01*
X107031705Y-89422706D01*
X107074756Y-89367676D01*
X107109504Y-89351807D01*
X107109067Y-89350462D01*
X107113697Y-89348957D01*
X107113700Y-89348957D01*
X107290271Y-89291585D01*
X107455693Y-89207299D01*
X107605893Y-89098172D01*
X107737172Y-88966893D01*
X107846299Y-88816693D01*
X107930585Y-88651271D01*
X107987957Y-88474700D01*
X108006108Y-88360099D01*
X108017000Y-88291334D01*
X108017000Y-88105665D01*
X107987957Y-87922303D01*
X107987957Y-87922300D01*
X107930585Y-87745729D01*
X107846299Y-87580307D01*
X107737172Y-87430107D01*
X107605893Y-87298828D01*
X107455693Y-87189701D01*
X107290271Y-87105415D01*
X107211835Y-87079929D01*
X107154160Y-87040492D01*
X107126962Y-86976134D01*
X107138877Y-86907287D01*
X107186121Y-86855812D01*
X107250153Y-86837999D01*
X107564372Y-86837999D01*
X107623983Y-86831591D01*
X107758831Y-86781296D01*
X107874046Y-86695046D01*
X107960296Y-86579831D01*
X108010591Y-86444983D01*
X108017000Y-86385373D01*
X108016999Y-85565665D01*
X120898000Y-85565665D01*
X120898000Y-85751334D01*
X120907509Y-85811368D01*
X120927043Y-85934700D01*
X120984415Y-86111271D01*
X121068701Y-86276693D01*
X121177828Y-86426893D01*
X121309107Y-86558172D01*
X121459307Y-86667299D01*
X121624729Y-86751585D01*
X121801300Y-86808957D01*
X121801302Y-86808957D01*
X121805933Y-86810462D01*
X121805320Y-86812348D01*
X121858649Y-86842949D01*
X121890829Y-86904967D01*
X121884373Y-86974537D01*
X121841328Y-87029573D01*
X121805675Y-87045870D01*
X121806051Y-87047025D01*
X121624916Y-87105879D01*
X121459565Y-87190131D01*
X121438204Y-87205650D01*
X121438204Y-87205651D01*
X122009328Y-87776774D01*
X121913456Y-87802463D01*
X121816544Y-87858416D01*
X121737416Y-87937544D01*
X121681463Y-88034456D01*
X121655774Y-88130327D01*
X121084650Y-87559204D01*
X121069131Y-87580565D01*
X120984879Y-87745916D01*
X120927531Y-87922416D01*
X120898500Y-88105711D01*
X120898500Y-88291288D01*
X120927531Y-88474583D01*
X120984879Y-88651083D01*
X121069129Y-88816431D01*
X121084651Y-88837794D01*
X121084651Y-88837795D01*
X121655774Y-88266672D01*
X121681463Y-88362544D01*
X121737416Y-88459456D01*
X121816544Y-88538584D01*
X121913456Y-88594537D01*
X122009327Y-88620225D01*
X121438204Y-89191347D01*
X121438204Y-89191348D01*
X121459568Y-89206870D01*
X121624916Y-89291120D01*
X121806051Y-89349975D01*
X121805427Y-89351893D01*
X121858652Y-89382438D01*
X121890830Y-89444456D01*
X121884371Y-89514027D01*
X121841324Y-89569061D01*
X121805564Y-89585404D01*
X121805933Y-89586538D01*
X121801302Y-89588042D01*
X121801300Y-89588043D01*
X121624729Y-89645415D01*
X121624726Y-89645416D01*
X121459306Y-89729701D01*
X121373611Y-89791962D01*
X121309107Y-89838828D01*
X121309105Y-89838830D01*
X121309104Y-89838830D01*
X121177830Y-89970104D01*
X121177830Y-89970105D01*
X121177828Y-89970107D01*
X121130962Y-90034611D01*
X121068701Y-90120306D01*
X120984416Y-90285726D01*
X120927042Y-90462303D01*
X120898000Y-90645665D01*
X120898000Y-90831334D01*
X120916675Y-90949240D01*
X120927043Y-91014700D01*
X120984415Y-91191271D01*
X121068701Y-91356693D01*
X121177828Y-91506893D01*
X121309107Y-91638172D01*
X121459307Y-91747299D01*
X121624729Y-91831585D01*
X121801300Y-91888957D01*
X121801302Y-91888957D01*
X121805933Y-91890462D01*
X121805226Y-91892635D01*
X121857629Y-91922748D01*
X121889771Y-91984786D01*
X121883271Y-92054352D01*
X121840192Y-92109361D01*
X121805499Y-92125204D01*
X121805933Y-92126538D01*
X121801302Y-92128042D01*
X121801300Y-92128043D01*
X121666447Y-92171860D01*
X121624726Y-92185416D01*
X121459306Y-92269701D01*
X121379079Y-92327990D01*
X121309107Y-92378828D01*
X121309105Y-92378830D01*
X121309104Y-92378830D01*
X121177830Y-92510104D01*
X121177830Y-92510105D01*
X121177828Y-92510107D01*
X121156948Y-92538846D01*
X121068701Y-92660306D01*
X120984416Y-92825726D01*
X120927042Y-93002303D01*
X120898000Y-93185665D01*
X120898000Y-93371334D01*
X120927042Y-93554696D01*
X120927043Y-93554700D01*
X120984415Y-93731271D01*
X121068701Y-93896693D01*
X121177828Y-94046893D01*
X121309107Y-94178172D01*
X121459307Y-94287299D01*
X121624729Y-94371585D01*
X121801300Y-94428957D01*
X121801302Y-94428957D01*
X121805933Y-94430462D01*
X121805226Y-94432635D01*
X121857629Y-94462748D01*
X121889771Y-94524786D01*
X121883271Y-94594352D01*
X121840192Y-94649361D01*
X121805499Y-94665204D01*
X121805933Y-94666538D01*
X121801302Y-94668042D01*
X121801300Y-94668043D01*
X121672171Y-94710000D01*
X121624726Y-94725416D01*
X121459306Y-94809701D01*
X121373611Y-94871962D01*
X121309107Y-94918828D01*
X121309105Y-94918830D01*
X121309104Y-94918830D01*
X121177830Y-95050104D01*
X121177830Y-95050105D01*
X121177828Y-95050107D01*
X121155518Y-95080814D01*
X121068701Y-95200306D01*
X120984416Y-95365726D01*
X120927042Y-95542303D01*
X120898000Y-95725665D01*
X120898000Y-95911334D01*
X120924998Y-96081789D01*
X120927043Y-96094700D01*
X120984415Y-96271271D01*
X121068701Y-96436693D01*
X121177828Y-96586893D01*
X121309107Y-96718172D01*
X121459307Y-96827299D01*
X121624729Y-96911585D01*
X121801300Y-96968957D01*
X121801302Y-96968957D01*
X121805933Y-96970462D01*
X121805226Y-96972635D01*
X121857629Y-97002748D01*
X121889771Y-97064786D01*
X121883271Y-97134352D01*
X121840192Y-97189361D01*
X121805499Y-97205204D01*
X121805933Y-97206538D01*
X121801302Y-97208042D01*
X121801300Y-97208043D01*
X121624729Y-97265415D01*
X121624726Y-97265416D01*
X121459306Y-97349701D01*
X121373611Y-97411962D01*
X121309107Y-97458828D01*
X121309105Y-97458830D01*
X121309104Y-97458830D01*
X121177830Y-97590104D01*
X121177830Y-97590105D01*
X121177828Y-97590107D01*
X121130962Y-97654611D01*
X121068701Y-97740306D01*
X120984416Y-97905726D01*
X120927042Y-98082303D01*
X120898000Y-98265665D01*
X120898000Y-98451334D01*
X120927042Y-98634696D01*
X120927043Y-98634700D01*
X120984415Y-98811271D01*
X121068701Y-98976693D01*
X121177828Y-99126893D01*
X121309107Y-99258172D01*
X121459307Y-99367299D01*
X121624729Y-99451585D01*
X121801300Y-99508957D01*
X121801302Y-99508957D01*
X121805933Y-99510462D01*
X121805226Y-99512635D01*
X121857629Y-99542748D01*
X121889771Y-99604786D01*
X121883271Y-99674352D01*
X121840192Y-99729361D01*
X121805499Y-99745204D01*
X121805933Y-99746538D01*
X121801302Y-99748042D01*
X121801300Y-99748043D01*
X121624729Y-99805415D01*
X121624726Y-99805416D01*
X121459306Y-99889701D01*
X121373611Y-99951962D01*
X121309107Y-99998828D01*
X121309105Y-99998830D01*
X121309104Y-99998830D01*
X121177830Y-100130104D01*
X121177830Y-100130105D01*
X121177828Y-100130107D01*
X121148844Y-100170000D01*
X121068701Y-100280306D01*
X120984416Y-100445726D01*
X120927042Y-100622303D01*
X120898000Y-100805665D01*
X120898000Y-100991334D01*
X120918562Y-101121155D01*
X120927043Y-101174700D01*
X120984415Y-101351271D01*
X121068701Y-101516693D01*
X121177828Y-101666893D01*
X121309107Y-101798172D01*
X121459307Y-101907299D01*
X121624729Y-101991585D01*
X121801300Y-102048957D01*
X121870064Y-102059848D01*
X121984666Y-102078000D01*
X121984671Y-102078000D01*
X122170334Y-102078000D01*
X122272201Y-102061865D01*
X122353700Y-102048957D01*
X122530271Y-101991585D01*
X122695693Y-101907299D01*
X122845893Y-101798172D01*
X122977172Y-101666893D01*
X123086299Y-101516693D01*
X123170585Y-101351271D01*
X123227957Y-101174700D01*
X123240865Y-101093201D01*
X123257000Y-100991334D01*
X123257000Y-100805665D01*
X123227957Y-100622303D01*
X123227957Y-100622300D01*
X123170585Y-100445729D01*
X123086299Y-100280307D01*
X122977172Y-100130107D01*
X122845893Y-99998828D01*
X122695693Y-99889701D01*
X122530271Y-99805415D01*
X122353700Y-99748043D01*
X122353697Y-99748042D01*
X122349067Y-99746538D01*
X122349777Y-99744352D01*
X122297414Y-99714297D01*
X122265240Y-99652276D01*
X122271705Y-99582706D01*
X122314756Y-99527676D01*
X122349504Y-99511807D01*
X122349067Y-99510462D01*
X122353697Y-99508957D01*
X122353700Y-99508957D01*
X122530271Y-99451585D01*
X122695693Y-99367299D01*
X122796482Y-99294071D01*
X136940000Y-99294071D01*
X136940000Y-99545928D01*
X136979397Y-99794669D01*
X137057219Y-100034184D01*
X137171557Y-100258583D01*
X137245748Y-100360697D01*
X137245748Y-100360698D01*
X137862421Y-99744024D01*
X137875359Y-99775258D01*
X137957437Y-99898097D01*
X138061903Y-100002563D01*
X138184742Y-100084641D01*
X138215974Y-100097577D01*
X137599300Y-100714250D01*
X137701416Y-100788442D01*
X137925815Y-100902780D01*
X138165330Y-100980602D01*
X138414072Y-101020000D01*
X138665928Y-101020000D01*
X138914669Y-100980602D01*
X139154184Y-100902780D01*
X139378575Y-100788446D01*
X139378581Y-100788442D01*
X139480697Y-100714250D01*
X139480698Y-100714250D01*
X138864025Y-100097578D01*
X138895258Y-100084641D01*
X139018097Y-100002563D01*
X139122563Y-99898097D01*
X139204641Y-99775258D01*
X139217577Y-99744025D01*
X139834250Y-100360698D01*
X139834250Y-100360697D01*
X139908442Y-100258581D01*
X139908446Y-100258575D01*
X140022780Y-100034184D01*
X140100602Y-99794669D01*
X140140000Y-99545928D01*
X140140000Y-99294071D01*
X156940000Y-99294071D01*
X156940000Y-99545928D01*
X156979397Y-99794669D01*
X157057219Y-100034184D01*
X157171557Y-100258583D01*
X157245748Y-100360697D01*
X157245748Y-100360698D01*
X157862421Y-99744024D01*
X157875359Y-99775258D01*
X157957437Y-99898097D01*
X158061903Y-100002563D01*
X158184742Y-100084641D01*
X158215974Y-100097577D01*
X157599300Y-100714250D01*
X157701416Y-100788442D01*
X157925815Y-100902780D01*
X158165330Y-100980602D01*
X158414072Y-101020000D01*
X158665928Y-101020000D01*
X158914669Y-100980602D01*
X159154184Y-100902780D01*
X159378575Y-100788446D01*
X159378581Y-100788442D01*
X159480697Y-100714250D01*
X159480698Y-100714250D01*
X158864025Y-100097578D01*
X158895258Y-100084641D01*
X159018097Y-100002563D01*
X159122563Y-99898097D01*
X159204641Y-99775258D01*
X159217578Y-99744025D01*
X159834250Y-100360698D01*
X159834250Y-100360697D01*
X159908442Y-100258581D01*
X159908446Y-100258575D01*
X160022780Y-100034184D01*
X160100602Y-99794669D01*
X160140000Y-99545928D01*
X160140000Y-99294071D01*
X176940000Y-99294071D01*
X176940000Y-99545928D01*
X176979397Y-99794669D01*
X177057219Y-100034184D01*
X177171557Y-100258583D01*
X177245748Y-100360697D01*
X177245748Y-100360698D01*
X177862421Y-99744024D01*
X177875359Y-99775258D01*
X177957437Y-99898097D01*
X178061903Y-100002563D01*
X178184742Y-100084641D01*
X178215974Y-100097577D01*
X177599300Y-100714250D01*
X177701416Y-100788442D01*
X177925815Y-100902780D01*
X178165330Y-100980602D01*
X178414072Y-101020000D01*
X178665928Y-101020000D01*
X178914669Y-100980602D01*
X179154184Y-100902780D01*
X179378575Y-100788446D01*
X179378581Y-100788442D01*
X179480697Y-100714250D01*
X179480698Y-100714250D01*
X178864025Y-100097578D01*
X178895258Y-100084641D01*
X179018097Y-100002563D01*
X179122563Y-99898097D01*
X179204641Y-99775258D01*
X179217577Y-99744025D01*
X179834250Y-100360698D01*
X179834250Y-100360697D01*
X179908442Y-100258581D01*
X179908446Y-100258575D01*
X180022780Y-100034184D01*
X180100602Y-99794669D01*
X180140000Y-99545928D01*
X180140000Y-99294071D01*
X180100602Y-99045330D01*
X180022780Y-98805815D01*
X179908442Y-98581416D01*
X179834250Y-98479301D01*
X179834250Y-98479300D01*
X179217577Y-99095973D01*
X179204641Y-99064742D01*
X179122563Y-98941903D01*
X179018097Y-98837437D01*
X178895258Y-98755359D01*
X178864024Y-98742421D01*
X179480698Y-98125748D01*
X179378583Y-98051557D01*
X179154184Y-97937219D01*
X178914669Y-97859397D01*
X178665928Y-97820000D01*
X178414072Y-97820000D01*
X178165330Y-97859397D01*
X177925815Y-97937219D01*
X177701413Y-98051559D01*
X177599301Y-98125747D01*
X177599300Y-98125748D01*
X178215974Y-98742421D01*
X178184742Y-98755359D01*
X178061903Y-98837437D01*
X177957437Y-98941903D01*
X177875359Y-99064742D01*
X177862421Y-99095974D01*
X177245748Y-98479300D01*
X177245747Y-98479301D01*
X177171559Y-98581413D01*
X177057219Y-98805815D01*
X176979397Y-99045330D01*
X176940000Y-99294071D01*
X160140000Y-99294071D01*
X160100602Y-99045330D01*
X160022780Y-98805815D01*
X159908442Y-98581416D01*
X159834250Y-98479301D01*
X159834250Y-98479300D01*
X159217577Y-99095973D01*
X159204641Y-99064742D01*
X159122563Y-98941903D01*
X159018097Y-98837437D01*
X158895258Y-98755359D01*
X158864024Y-98742421D01*
X159480698Y-98125748D01*
X159378583Y-98051557D01*
X159154184Y-97937219D01*
X158914669Y-97859397D01*
X158665928Y-97820000D01*
X158414072Y-97820000D01*
X158165330Y-97859397D01*
X157925815Y-97937219D01*
X157701413Y-98051559D01*
X157599301Y-98125747D01*
X157599300Y-98125748D01*
X158215974Y-98742421D01*
X158184742Y-98755359D01*
X158061903Y-98837437D01*
X157957437Y-98941903D01*
X157875359Y-99064742D01*
X157862421Y-99095974D01*
X157245748Y-98479300D01*
X157245747Y-98479301D01*
X157171559Y-98581413D01*
X157057219Y-98805815D01*
X156979397Y-99045330D01*
X156940000Y-99294071D01*
X140140000Y-99294071D01*
X140100602Y-99045330D01*
X140022780Y-98805815D01*
X139908442Y-98581416D01*
X139834250Y-98479301D01*
X139834250Y-98479300D01*
X139217577Y-99095973D01*
X139204641Y-99064742D01*
X139122563Y-98941903D01*
X139018097Y-98837437D01*
X138895258Y-98755359D01*
X138864024Y-98742421D01*
X139480698Y-98125748D01*
X139378583Y-98051557D01*
X139154184Y-97937219D01*
X138914669Y-97859397D01*
X138665928Y-97820000D01*
X138414072Y-97820000D01*
X138165330Y-97859397D01*
X137925815Y-97937219D01*
X137701413Y-98051559D01*
X137599301Y-98125747D01*
X137599300Y-98125748D01*
X138215974Y-98742421D01*
X138184742Y-98755359D01*
X138061903Y-98837437D01*
X137957437Y-98941903D01*
X137875359Y-99064742D01*
X137862421Y-99095974D01*
X137245748Y-98479300D01*
X137245747Y-98479301D01*
X137171559Y-98581413D01*
X137057219Y-98805815D01*
X136979397Y-99045330D01*
X136940000Y-99294071D01*
X122796482Y-99294071D01*
X122845893Y-99258172D01*
X122977172Y-99126893D01*
X123086299Y-98976693D01*
X123170585Y-98811271D01*
X123227957Y-98634700D01*
X123252570Y-98479300D01*
X123257000Y-98451334D01*
X123257000Y-98265665D01*
X123245397Y-98192406D01*
X123227957Y-98082302D01*
X123227957Y-98082300D01*
X123170585Y-97905729D01*
X123086299Y-97740307D01*
X122977172Y-97590107D01*
X122845893Y-97458828D01*
X122695693Y-97349701D01*
X122530271Y-97265415D01*
X122353700Y-97208043D01*
X122353697Y-97208042D01*
X122349067Y-97206538D01*
X122349777Y-97204352D01*
X122297414Y-97174297D01*
X122265240Y-97112276D01*
X122271705Y-97042706D01*
X122314756Y-96987676D01*
X122349504Y-96971807D01*
X122349067Y-96970462D01*
X122353697Y-96968957D01*
X122353700Y-96968957D01*
X122530271Y-96911585D01*
X122695693Y-96827299D01*
X122845893Y-96718172D01*
X122977172Y-96586893D01*
X123086299Y-96436693D01*
X123170585Y-96271271D01*
X123227957Y-96094700D01*
X123240865Y-96013201D01*
X123257000Y-95911334D01*
X123257000Y-95725665D01*
X123227957Y-95542303D01*
X123227957Y-95542300D01*
X123170585Y-95365729D01*
X123086299Y-95200307D01*
X122977172Y-95050107D01*
X122845893Y-94918828D01*
X122695693Y-94809701D01*
X122530271Y-94725415D01*
X122353700Y-94668043D01*
X122353697Y-94668042D01*
X122349067Y-94666538D01*
X122349777Y-94664352D01*
X122297414Y-94634297D01*
X122265240Y-94572276D01*
X122271705Y-94502706D01*
X122314756Y-94447676D01*
X122349504Y-94431807D01*
X122349067Y-94430462D01*
X122353697Y-94428957D01*
X122353700Y-94428957D01*
X122530271Y-94371585D01*
X122695693Y-94287299D01*
X122845893Y-94178172D01*
X122977172Y-94046893D01*
X123086299Y-93896693D01*
X123094217Y-93881153D01*
X154389500Y-93881153D01*
X154389500Y-94038846D01*
X154420261Y-94193489D01*
X154420264Y-94193501D01*
X154480602Y-94339172D01*
X154480609Y-94339185D01*
X154568210Y-94470288D01*
X154568213Y-94470292D01*
X154679707Y-94581786D01*
X154717289Y-94606898D01*
X154762093Y-94660511D01*
X154770800Y-94729836D01*
X154740645Y-94792863D01*
X154717289Y-94813102D01*
X154679707Y-94838213D01*
X154568213Y-94949707D01*
X154568210Y-94949711D01*
X154480609Y-95080814D01*
X154480602Y-95080827D01*
X154420264Y-95226498D01*
X154420261Y-95226510D01*
X154389500Y-95381153D01*
X154389500Y-95538846D01*
X154420261Y-95693489D01*
X154420264Y-95693501D01*
X154480602Y-95839172D01*
X154480609Y-95839185D01*
X154568210Y-95970288D01*
X154568213Y-95970292D01*
X154679707Y-96081786D01*
X154679711Y-96081789D01*
X154810814Y-96169390D01*
X154810827Y-96169397D01*
X154910060Y-96210500D01*
X154956503Y-96229737D01*
X155111153Y-96260499D01*
X155111156Y-96260500D01*
X155111158Y-96260500D01*
X155268844Y-96260500D01*
X155268845Y-96260499D01*
X155345152Y-96245320D01*
X155423488Y-96229739D01*
X155423489Y-96229738D01*
X155423497Y-96229737D01*
X155447155Y-96219937D01*
X155494604Y-96210500D01*
X162824581Y-96210500D01*
X162922123Y-96191096D01*
X162969574Y-96181658D01*
X163106156Y-96125084D01*
X163170952Y-96081789D01*
X163170955Y-96081786D01*
X163170957Y-96081786D01*
X163200208Y-96062240D01*
X163229077Y-96042952D01*
X165772951Y-93499077D01*
X165855084Y-93376156D01*
X165911658Y-93239574D01*
X165940500Y-93094579D01*
X165940500Y-92946744D01*
X165940500Y-92764604D01*
X165944882Y-92731930D01*
X165946943Y-92724383D01*
X165959737Y-92693497D01*
X165985262Y-92565173D01*
X165990500Y-92538844D01*
X165990500Y-92381155D01*
X165990499Y-92381153D01*
X165979924Y-92327990D01*
X165959737Y-92226503D01*
X165959735Y-92226498D01*
X165899397Y-92080827D01*
X165899390Y-92080814D01*
X165811789Y-91949711D01*
X165811786Y-91949707D01*
X165700292Y-91838213D01*
X165700288Y-91838210D01*
X165569185Y-91750609D01*
X165569172Y-91750602D01*
X165423501Y-91690264D01*
X165423489Y-91690261D01*
X165268845Y-91659500D01*
X165268842Y-91659500D01*
X165111158Y-91659500D01*
X165111155Y-91659500D01*
X164956510Y-91690261D01*
X164956498Y-91690264D01*
X164810827Y-91750602D01*
X164810814Y-91750609D01*
X164679711Y-91838210D01*
X164679707Y-91838213D01*
X164568213Y-91949707D01*
X164568210Y-91949711D01*
X164480609Y-92080814D01*
X164480602Y-92080827D01*
X164420264Y-92226498D01*
X164420261Y-92226510D01*
X164389500Y-92381153D01*
X164389500Y-92538846D01*
X164413227Y-92658129D01*
X164407000Y-92727720D01*
X164379291Y-92770001D01*
X163838662Y-93310629D01*
X163777339Y-93344114D01*
X163707647Y-93339130D01*
X163682090Y-93326050D01*
X163569185Y-93250609D01*
X163569172Y-93250602D01*
X163423501Y-93190264D01*
X163423489Y-93190261D01*
X163268845Y-93159500D01*
X163268842Y-93159500D01*
X163111158Y-93159500D01*
X163111155Y-93159500D01*
X162956511Y-93190260D01*
X162956506Y-93190262D01*
X162956504Y-93190262D01*
X162956503Y-93190263D01*
X162932844Y-93200062D01*
X162885396Y-93209500D01*
X155494604Y-93209500D01*
X155447155Y-93200062D01*
X155423497Y-93190263D01*
X155423493Y-93190262D01*
X155423488Y-93190260D01*
X155268845Y-93159500D01*
X155268842Y-93159500D01*
X155111158Y-93159500D01*
X155111155Y-93159500D01*
X154956510Y-93190261D01*
X154956498Y-93190264D01*
X154810827Y-93250602D01*
X154810814Y-93250609D01*
X154679711Y-93338210D01*
X154679707Y-93338213D01*
X154568213Y-93449707D01*
X154568210Y-93449711D01*
X154480609Y-93580814D01*
X154480602Y-93580827D01*
X154420264Y-93726498D01*
X154420261Y-93726510D01*
X154389500Y-93881153D01*
X123094217Y-93881153D01*
X123170585Y-93731271D01*
X123227957Y-93554700D01*
X123256235Y-93376162D01*
X123257000Y-93371334D01*
X123257000Y-93185665D01*
X123227957Y-93002303D01*
X123227957Y-93002300D01*
X123170585Y-92825729D01*
X123086299Y-92660307D01*
X122977172Y-92510107D01*
X122845893Y-92378828D01*
X122695693Y-92269701D01*
X122530271Y-92185415D01*
X122353700Y-92128043D01*
X122353697Y-92128042D01*
X122349067Y-92126538D01*
X122349777Y-92124352D01*
X122297414Y-92094297D01*
X122265240Y-92032276D01*
X122271705Y-91962706D01*
X122314756Y-91907676D01*
X122349504Y-91891807D01*
X122349067Y-91890462D01*
X122353697Y-91888957D01*
X122353700Y-91888957D01*
X122530271Y-91831585D01*
X122695693Y-91747299D01*
X122845893Y-91638172D01*
X122977172Y-91506893D01*
X123086299Y-91356693D01*
X123170585Y-91191271D01*
X123227957Y-91014700D01*
X123238325Y-90949240D01*
X123257000Y-90831334D01*
X123257000Y-90645665D01*
X123237096Y-90520000D01*
X123227957Y-90462300D01*
X123170585Y-90285729D01*
X123086299Y-90120307D01*
X122977172Y-89970107D01*
X122845893Y-89838828D01*
X122695693Y-89729701D01*
X122530271Y-89645415D01*
X122353700Y-89588043D01*
X122353697Y-89588042D01*
X122349067Y-89586538D01*
X122349676Y-89584663D01*
X122296310Y-89554007D01*
X122264158Y-89491975D01*
X122270648Y-89422407D01*
X122313719Y-89367392D01*
X122349328Y-89351142D01*
X122348949Y-89349975D01*
X122530083Y-89291120D01*
X122695433Y-89206868D01*
X122695440Y-89206864D01*
X122716794Y-89191348D01*
X122716795Y-89191347D01*
X122145673Y-88620225D01*
X122241544Y-88594537D01*
X122338456Y-88538584D01*
X122417584Y-88459456D01*
X122473537Y-88362544D01*
X122499225Y-88266673D01*
X123070347Y-88837795D01*
X123070348Y-88837794D01*
X123085864Y-88816440D01*
X123085868Y-88816433D01*
X123170120Y-88651083D01*
X123227468Y-88474583D01*
X123256500Y-88291288D01*
X123256500Y-88105711D01*
X123227468Y-87922416D01*
X123170120Y-87745916D01*
X123085870Y-87580568D01*
X123070347Y-87559204D01*
X122499225Y-88130326D01*
X122473537Y-88034456D01*
X122417584Y-87937544D01*
X122338456Y-87858416D01*
X122241544Y-87802463D01*
X122145672Y-87776774D01*
X122716795Y-87205651D01*
X122695431Y-87190129D01*
X122530083Y-87105879D01*
X122348949Y-87047025D01*
X122349568Y-87045119D01*
X122296303Y-87014515D01*
X122264156Y-86952480D01*
X122270652Y-86882913D01*
X122313727Y-86827901D01*
X122349439Y-86811607D01*
X122349067Y-86810462D01*
X122353697Y-86808957D01*
X122353700Y-86808957D01*
X122530271Y-86751585D01*
X122695693Y-86667299D01*
X122845893Y-86558172D01*
X122977172Y-86426893D01*
X123086299Y-86276693D01*
X123170585Y-86111271D01*
X123227957Y-85934700D01*
X123247491Y-85811368D01*
X123257000Y-85751334D01*
X123257000Y-85565665D01*
X123227957Y-85382303D01*
X123227957Y-85382300D01*
X123170585Y-85205729D01*
X123086299Y-85040307D01*
X122977172Y-84890107D01*
X122845893Y-84758828D01*
X122695693Y-84649701D01*
X122530271Y-84565415D01*
X122353700Y-84508043D01*
X122353698Y-84508042D01*
X122353696Y-84508042D01*
X122170334Y-84479000D01*
X122170329Y-84479000D01*
X121984671Y-84479000D01*
X121984666Y-84479000D01*
X121801303Y-84508042D01*
X121624726Y-84565416D01*
X121459306Y-84649701D01*
X121426458Y-84673567D01*
X121309107Y-84758828D01*
X121309105Y-84758830D01*
X121309104Y-84758830D01*
X121177830Y-84890104D01*
X121177830Y-84890105D01*
X121177828Y-84890107D01*
X121147656Y-84931635D01*
X121068701Y-85040306D01*
X120984416Y-85205726D01*
X120927042Y-85382303D01*
X120898000Y-85565665D01*
X108016999Y-85565665D01*
X108016999Y-84931628D01*
X108010591Y-84872017D01*
X107968374Y-84758828D01*
X107960297Y-84737171D01*
X107960293Y-84737164D01*
X107874047Y-84621955D01*
X107874044Y-84621952D01*
X107758835Y-84535706D01*
X107758828Y-84535702D01*
X107623982Y-84485408D01*
X107623983Y-84485408D01*
X107564383Y-84479001D01*
X107564381Y-84479000D01*
X107564373Y-84479000D01*
X107564364Y-84479000D01*
X106110629Y-84479000D01*
X106110623Y-84479001D01*
X106051016Y-84485408D01*
X105916171Y-84535702D01*
X105916164Y-84535706D01*
X105800955Y-84621952D01*
X105800952Y-84621955D01*
X105714706Y-84737164D01*
X105714702Y-84737171D01*
X105664408Y-84872017D01*
X105658001Y-84931616D01*
X105658001Y-84931623D01*
X105658000Y-84931635D01*
X99690500Y-84931635D01*
X99690500Y-83043713D01*
X127339500Y-83043713D01*
X127339500Y-83256287D01*
X127372754Y-83466243D01*
X127395418Y-83535996D01*
X127438444Y-83668414D01*
X127534951Y-83857820D01*
X127659890Y-84029786D01*
X127810213Y-84180109D01*
X127982182Y-84305050D01*
X127990946Y-84309516D01*
X128041742Y-84357491D01*
X128058536Y-84425312D01*
X128035998Y-84491447D01*
X127990946Y-84530484D01*
X127982182Y-84534949D01*
X127810213Y-84659890D01*
X127659890Y-84810213D01*
X127534951Y-84982179D01*
X127438444Y-85171585D01*
X127372753Y-85373760D01*
X127339500Y-85583713D01*
X127339500Y-85796286D01*
X127361422Y-85934700D01*
X127372754Y-86006243D01*
X127406880Y-86111273D01*
X127438444Y-86208414D01*
X127534951Y-86397820D01*
X127659890Y-86569786D01*
X127810213Y-86720109D01*
X127982182Y-86845050D01*
X127990946Y-86849516D01*
X128041742Y-86897491D01*
X128058536Y-86965312D01*
X128035998Y-87031447D01*
X127990946Y-87070484D01*
X127982182Y-87074949D01*
X127810213Y-87199890D01*
X127659890Y-87350213D01*
X127534951Y-87522179D01*
X127438444Y-87711585D01*
X127372753Y-87913760D01*
X127342358Y-88105671D01*
X127339500Y-88123713D01*
X127339500Y-88336287D01*
X127343659Y-88362544D01*
X127361422Y-88474700D01*
X127372754Y-88546243D01*
X127437714Y-88746169D01*
X127438444Y-88748414D01*
X127534951Y-88937820D01*
X127659890Y-89109786D01*
X127810313Y-89260209D01*
X127843798Y-89321532D01*
X127838814Y-89391224D01*
X127796942Y-89447157D01*
X127759525Y-89466275D01*
X127733004Y-89474539D01*
X127733001Y-89474540D01*
X127593766Y-89558710D01*
X127593762Y-89558713D01*
X127478713Y-89673762D01*
X127478710Y-89673766D01*
X127394540Y-89813001D01*
X127394538Y-89813007D01*
X127346135Y-89968337D01*
X127346134Y-89968344D01*
X127340000Y-90035848D01*
X127340000Y-90520000D01*
X128256988Y-90520000D01*
X128224075Y-90577007D01*
X128190000Y-90704174D01*
X128190000Y-90835826D01*
X128224075Y-90962993D01*
X128256988Y-91020000D01*
X127340001Y-91020000D01*
X127340001Y-91504162D01*
X127346132Y-91571651D01*
X127346134Y-91571658D01*
X127394537Y-91726989D01*
X127394540Y-91726998D01*
X127478710Y-91866233D01*
X127478713Y-91866237D01*
X127593762Y-91981286D01*
X127593766Y-91981289D01*
X127733001Y-92065459D01*
X127733007Y-92065461D01*
X127888337Y-92113864D01*
X127888344Y-92113865D01*
X127955848Y-92119999D01*
X128439999Y-92119999D01*
X128440000Y-92119998D01*
X128440000Y-91203012D01*
X128497007Y-91235925D01*
X128624174Y-91270000D01*
X128755826Y-91270000D01*
X128882993Y-91235925D01*
X128940000Y-91203012D01*
X128940000Y-92119999D01*
X129424161Y-92119999D01*
X129491651Y-92113867D01*
X129491658Y-92113865D01*
X129646989Y-92065462D01*
X129646998Y-92065459D01*
X129786233Y-91981289D01*
X129786237Y-91981286D01*
X129901286Y-91866237D01*
X129901289Y-91866233D01*
X129985459Y-91726998D01*
X129985461Y-91726992D01*
X130033864Y-91571662D01*
X130033865Y-91571655D01*
X130040000Y-91504151D01*
X130040000Y-91020000D01*
X129123012Y-91020000D01*
X129155925Y-90962993D01*
X129166813Y-90922358D01*
X174340000Y-90922358D01*
X174340000Y-91197641D01*
X174375930Y-91470565D01*
X174447180Y-91736471D01*
X174552520Y-91990787D01*
X174552527Y-91990802D01*
X174690163Y-92229196D01*
X174788758Y-92357686D01*
X175360523Y-91785920D01*
X175448415Y-91906893D01*
X175593107Y-92051585D01*
X175714077Y-92139475D01*
X175142312Y-92711240D01*
X175270804Y-92809836D01*
X175509197Y-92947472D01*
X175509212Y-92947479D01*
X175763528Y-93052819D01*
X176029434Y-93124069D01*
X176302358Y-93160000D01*
X176577642Y-93160000D01*
X176850565Y-93124069D01*
X177116471Y-93052819D01*
X177370787Y-92947479D01*
X177370802Y-92947472D01*
X177609194Y-92809836D01*
X177609211Y-92809825D01*
X177737686Y-92711241D01*
X177737686Y-92711239D01*
X177165922Y-92139475D01*
X177286893Y-92051585D01*
X177431585Y-91906893D01*
X177519475Y-91785922D01*
X178091239Y-92357686D01*
X178091241Y-92357686D01*
X178189825Y-92229211D01*
X178189836Y-92229194D01*
X178327472Y-91990802D01*
X178327479Y-91990787D01*
X178432819Y-91736471D01*
X178504069Y-91470565D01*
X178540000Y-91197641D01*
X178540000Y-90922358D01*
X178504069Y-90649434D01*
X178432819Y-90383528D01*
X178327479Y-90129212D01*
X178327472Y-90129197D01*
X178189836Y-89890804D01*
X178091240Y-89762312D01*
X177519475Y-90334077D01*
X177431585Y-90213107D01*
X177286893Y-90068415D01*
X177165921Y-89980523D01*
X177737686Y-89408758D01*
X177609195Y-89310163D01*
X177492494Y-89242786D01*
X177370802Y-89172527D01*
X177370787Y-89172520D01*
X177116471Y-89067180D01*
X176850565Y-88995930D01*
X176577642Y-88960000D01*
X176302358Y-88960000D01*
X176029434Y-88995930D01*
X175763528Y-89067180D01*
X175509212Y-89172520D01*
X175509197Y-89172527D01*
X175270799Y-89310166D01*
X175142312Y-89408757D01*
X175142312Y-89408758D01*
X175714078Y-89980524D01*
X175593107Y-90068415D01*
X175448415Y-90213107D01*
X175360524Y-90334078D01*
X174788758Y-89762312D01*
X174788757Y-89762312D01*
X174690166Y-89890799D01*
X174552527Y-90129197D01*
X174552520Y-90129212D01*
X174447180Y-90383528D01*
X174375930Y-90649434D01*
X174340000Y-90922358D01*
X129166813Y-90922358D01*
X129190000Y-90835826D01*
X129190000Y-90704174D01*
X129155925Y-90577007D01*
X129123012Y-90520000D01*
X130039999Y-90520000D01*
X130039999Y-90035837D01*
X130033867Y-89968348D01*
X130033865Y-89968341D01*
X129985462Y-89813010D01*
X129985459Y-89813001D01*
X129901289Y-89673766D01*
X129901286Y-89673762D01*
X129786237Y-89558713D01*
X129786233Y-89558710D01*
X129646998Y-89474540D01*
X129646993Y-89474538D01*
X129620475Y-89466275D01*
X129562328Y-89427536D01*
X129534355Y-89363510D01*
X129545437Y-89294525D01*
X129569686Y-89260208D01*
X129569784Y-89260109D01*
X129569792Y-89260104D01*
X129720104Y-89109792D01*
X129845051Y-88937816D01*
X129941557Y-88748412D01*
X130007246Y-88546243D01*
X130040500Y-88336287D01*
X130040500Y-88123713D01*
X130007246Y-87913757D01*
X129941557Y-87711588D01*
X129845051Y-87522184D01*
X129845049Y-87522181D01*
X129845048Y-87522179D01*
X129720109Y-87350213D01*
X129569786Y-87199890D01*
X129397820Y-87074951D01*
X129397115Y-87074591D01*
X129389054Y-87070485D01*
X129338259Y-87022512D01*
X129321463Y-86954692D01*
X129343999Y-86888556D01*
X129389054Y-86849515D01*
X129397816Y-86845051D01*
X129445424Y-86810462D01*
X129569786Y-86720109D01*
X129569788Y-86720106D01*
X129569792Y-86720104D01*
X129720104Y-86569792D01*
X129720106Y-86569788D01*
X129720109Y-86569786D01*
X129845048Y-86397820D01*
X129845047Y-86397820D01*
X129845051Y-86397816D01*
X129941557Y-86208412D01*
X130007246Y-86006243D01*
X130040500Y-85796287D01*
X130040500Y-85583713D01*
X130007246Y-85373757D01*
X129941557Y-85171588D01*
X129845051Y-84982184D01*
X129845049Y-84982181D01*
X129845048Y-84982179D01*
X129720109Y-84810213D01*
X129569786Y-84659890D01*
X129397820Y-84534951D01*
X129397115Y-84534591D01*
X129389054Y-84530485D01*
X129338259Y-84482512D01*
X129321463Y-84414692D01*
X129343999Y-84348556D01*
X129389054Y-84309515D01*
X129397816Y-84305051D01*
X129419789Y-84289086D01*
X129569786Y-84180109D01*
X129569788Y-84180106D01*
X129569792Y-84180104D01*
X129720104Y-84029792D01*
X129720106Y-84029788D01*
X129720109Y-84029786D01*
X129845048Y-83857820D01*
X129845047Y-83857820D01*
X129845051Y-83857816D01*
X129941557Y-83668412D01*
X130007246Y-83466243D01*
X130040500Y-83256287D01*
X130040500Y-83043713D01*
X130007246Y-82833757D01*
X129941557Y-82631588D01*
X129845051Y-82442184D01*
X129845049Y-82442181D01*
X129845048Y-82442179D01*
X129720109Y-82270213D01*
X129569792Y-82119896D01*
X129569784Y-82119890D01*
X129397816Y-81994949D01*
X129235284Y-81912135D01*
X167439500Y-81912135D01*
X167439500Y-84007870D01*
X167439501Y-84007876D01*
X167445908Y-84067483D01*
X167496202Y-84202328D01*
X167496206Y-84202335D01*
X167582452Y-84317544D01*
X167582455Y-84317547D01*
X167700198Y-84405690D01*
X167742069Y-84461623D01*
X167747053Y-84531315D01*
X167726205Y-84577841D01*
X167656659Y-84673563D01*
X167549433Y-84884003D01*
X167476446Y-85108631D01*
X167439500Y-85341902D01*
X167439500Y-85578097D01*
X167476446Y-85811368D01*
X167549433Y-86035996D01*
X167637284Y-86208412D01*
X167656657Y-86246433D01*
X167795483Y-86437510D01*
X167962490Y-86604517D01*
X168018739Y-86645384D01*
X168061403Y-86700713D01*
X168066095Y-86732542D01*
X168810591Y-87477037D01*
X168747007Y-87494075D01*
X168632993Y-87559901D01*
X168539901Y-87652993D01*
X168474075Y-87767007D01*
X168457037Y-87830591D01*
X167717340Y-87090894D01*
X167657084Y-87173830D01*
X167549897Y-87384197D01*
X167476934Y-87608752D01*
X167440000Y-87841947D01*
X167440000Y-88078052D01*
X167476934Y-88311247D01*
X167549897Y-88535802D01*
X167657087Y-88746174D01*
X167717338Y-88829104D01*
X167717340Y-88829105D01*
X168457037Y-88089408D01*
X168474075Y-88152993D01*
X168539901Y-88267007D01*
X168632993Y-88360099D01*
X168747007Y-88425925D01*
X168810590Y-88442962D01*
X168070893Y-89182658D01*
X168153828Y-89242914D01*
X168364197Y-89350102D01*
X168588752Y-89423065D01*
X168588751Y-89423065D01*
X168821948Y-89460000D01*
X169058052Y-89460000D01*
X169291247Y-89423065D01*
X169515804Y-89350102D01*
X169523410Y-89346227D01*
X169523411Y-89346226D01*
X169726163Y-89242918D01*
X169726169Y-89242914D01*
X169809104Y-89182658D01*
X169809105Y-89182658D01*
X169069408Y-88442962D01*
X169132993Y-88425925D01*
X169247007Y-88360099D01*
X169340099Y-88267007D01*
X169405925Y-88152993D01*
X169422962Y-88089408D01*
X170162658Y-88829105D01*
X170162658Y-88829104D01*
X170222914Y-88746169D01*
X170222918Y-88746163D01*
X170330102Y-88535802D01*
X170403065Y-88311247D01*
X170440000Y-88078052D01*
X170440000Y-87841947D01*
X181940000Y-87841947D01*
X181940000Y-88078052D01*
X181976934Y-88311247D01*
X182049897Y-88535802D01*
X182157087Y-88746174D01*
X182217338Y-88829104D01*
X182217340Y-88829105D01*
X182957037Y-88089408D01*
X182974075Y-88152993D01*
X183039901Y-88267007D01*
X183132993Y-88360099D01*
X183247007Y-88425925D01*
X183310590Y-88442962D01*
X182570893Y-89182658D01*
X182653828Y-89242914D01*
X182864197Y-89350102D01*
X183088752Y-89423065D01*
X183088751Y-89423065D01*
X183321948Y-89460000D01*
X183558052Y-89460000D01*
X183791247Y-89423065D01*
X184015802Y-89350102D01*
X184226163Y-89242918D01*
X184226169Y-89242914D01*
X184309104Y-89182658D01*
X184309105Y-89182658D01*
X183569408Y-88442962D01*
X183632993Y-88425925D01*
X183747007Y-88360099D01*
X183840099Y-88267007D01*
X183905925Y-88152993D01*
X183922962Y-88089408D01*
X184662658Y-88829105D01*
X184662658Y-88829104D01*
X184722914Y-88746169D01*
X184722918Y-88746163D01*
X184830102Y-88535802D01*
X184903065Y-88311247D01*
X184940000Y-88078052D01*
X184940000Y-87841947D01*
X184903065Y-87608752D01*
X184830102Y-87384197D01*
X184722914Y-87173828D01*
X184662658Y-87090894D01*
X184662658Y-87090893D01*
X183922962Y-87830590D01*
X183905925Y-87767007D01*
X183840099Y-87652993D01*
X183747007Y-87559901D01*
X183632993Y-87494075D01*
X183569409Y-87477037D01*
X184309105Y-86737340D01*
X184309104Y-86737338D01*
X184226174Y-86677087D01*
X184015802Y-86569897D01*
X183791247Y-86496934D01*
X183791248Y-86496934D01*
X183558052Y-86460000D01*
X183321948Y-86460000D01*
X183088752Y-86496934D01*
X182864197Y-86569897D01*
X182653830Y-86677084D01*
X182570894Y-86737340D01*
X183310591Y-87477037D01*
X183247007Y-87494075D01*
X183132993Y-87559901D01*
X183039901Y-87652993D01*
X182974075Y-87767007D01*
X182957037Y-87830590D01*
X182217340Y-87090894D01*
X182157084Y-87173830D01*
X182049897Y-87384197D01*
X181976934Y-87608752D01*
X181940000Y-87841947D01*
X170440000Y-87841947D01*
X170403065Y-87608752D01*
X170330102Y-87384197D01*
X170222914Y-87173828D01*
X170162658Y-87090894D01*
X170162658Y-87090893D01*
X169422962Y-87830590D01*
X169405925Y-87767007D01*
X169340099Y-87652993D01*
X169247007Y-87559901D01*
X169132993Y-87494075D01*
X169069409Y-87477037D01*
X169815717Y-86730729D01*
X169824891Y-86687055D01*
X169861257Y-86645386D01*
X169917510Y-86604517D01*
X170084517Y-86437510D01*
X170223343Y-86246433D01*
X170330568Y-86035992D01*
X170403553Y-85811368D01*
X170405942Y-85796286D01*
X170440500Y-85578097D01*
X170440500Y-85341902D01*
X170403553Y-85108631D01*
X170346041Y-84931629D01*
X170330568Y-84884008D01*
X170330566Y-84884005D01*
X170330566Y-84884003D01*
X170223342Y-84673566D01*
X170206003Y-84649701D01*
X170153793Y-84577840D01*
X170130314Y-84512036D01*
X170146139Y-84443982D01*
X170179801Y-84405689D01*
X170182328Y-84403796D01*
X170182331Y-84403796D01*
X170297546Y-84317546D01*
X170383796Y-84202331D01*
X170434091Y-84067483D01*
X170440500Y-84007873D01*
X170440499Y-82841902D01*
X181939500Y-82841902D01*
X181939500Y-83078097D01*
X181976446Y-83311368D01*
X182049433Y-83535996D01*
X182116903Y-83668412D01*
X182156657Y-83746433D01*
X182295483Y-83937510D01*
X182462490Y-84104517D01*
X182653567Y-84243343D01*
X182752991Y-84294002D01*
X182864003Y-84350566D01*
X182864005Y-84350566D01*
X182864008Y-84350568D01*
X182984412Y-84389689D01*
X183088631Y-84423553D01*
X183321903Y-84460500D01*
X183321908Y-84460500D01*
X183558097Y-84460500D01*
X183791368Y-84423553D01*
X183846344Y-84405690D01*
X184015992Y-84350568D01*
X184226433Y-84243343D01*
X184417510Y-84104517D01*
X184584517Y-83937510D01*
X184723343Y-83746433D01*
X184830568Y-83535992D01*
X184903553Y-83311368D01*
X184912277Y-83256286D01*
X184940500Y-83078097D01*
X184940500Y-82841902D01*
X184903553Y-82608631D01*
X184869689Y-82504412D01*
X184830568Y-82384008D01*
X184830566Y-82384005D01*
X184830566Y-82384003D01*
X184723342Y-82173566D01*
X184584517Y-81982490D01*
X184417510Y-81815483D01*
X184226433Y-81676657D01*
X184015996Y-81569433D01*
X183791368Y-81496446D01*
X183558097Y-81459500D01*
X183558092Y-81459500D01*
X183321908Y-81459500D01*
X183321903Y-81459500D01*
X183088631Y-81496446D01*
X182864003Y-81569433D01*
X182653566Y-81676657D01*
X182597119Y-81717669D01*
X182462490Y-81815483D01*
X182462488Y-81815485D01*
X182462487Y-81815485D01*
X182295485Y-81982487D01*
X182295485Y-81982488D01*
X182295483Y-81982490D01*
X182235862Y-82064550D01*
X182156657Y-82173566D01*
X182049433Y-82384003D01*
X181976446Y-82608631D01*
X181939500Y-82841902D01*
X170440499Y-82841902D01*
X170440499Y-81912128D01*
X170435299Y-81863757D01*
X170434091Y-81852516D01*
X170383797Y-81717671D01*
X170383793Y-81717664D01*
X170297547Y-81602456D01*
X170297548Y-81602456D01*
X170297546Y-81602454D01*
X170182331Y-81516204D01*
X170182328Y-81516202D01*
X170047482Y-81465908D01*
X170047483Y-81465908D01*
X169987883Y-81459501D01*
X169987881Y-81459500D01*
X169987873Y-81459500D01*
X169987864Y-81459500D01*
X167892129Y-81459500D01*
X167892123Y-81459501D01*
X167832516Y-81465908D01*
X167697671Y-81516202D01*
X167697664Y-81516206D01*
X167582455Y-81602452D01*
X167582452Y-81602455D01*
X167496206Y-81717664D01*
X167496202Y-81717671D01*
X167445908Y-81852517D01*
X167440971Y-81898443D01*
X167439501Y-81912123D01*
X167439500Y-81912135D01*
X129235284Y-81912135D01*
X129208412Y-81898443D01*
X129006243Y-81832754D01*
X129006241Y-81832753D01*
X129006240Y-81832753D01*
X128844957Y-81807208D01*
X128796287Y-81799500D01*
X128583713Y-81799500D01*
X128535042Y-81807208D01*
X128373760Y-81832753D01*
X128171585Y-81898444D01*
X127982179Y-81994951D01*
X127810213Y-82119890D01*
X127659890Y-82270213D01*
X127534951Y-82442179D01*
X127438444Y-82631585D01*
X127372753Y-82833760D01*
X127339500Y-83043713D01*
X99690500Y-83043713D01*
X99690500Y-80291663D01*
X99690618Y-80286255D01*
X99693792Y-80213554D01*
X99699010Y-80094011D01*
X99700053Y-80082507D01*
X99726106Y-79893713D01*
X101649500Y-79893713D01*
X101649500Y-80106286D01*
X101666489Y-80213554D01*
X101682754Y-80316243D01*
X101696655Y-80359027D01*
X101748444Y-80518414D01*
X101844951Y-80707820D01*
X101969890Y-80879786D01*
X102120213Y-81030109D01*
X102292179Y-81155048D01*
X102292181Y-81155049D01*
X102292184Y-81155051D01*
X102481588Y-81251557D01*
X102683757Y-81317246D01*
X102893713Y-81350500D01*
X102893714Y-81350500D01*
X103106286Y-81350500D01*
X103106287Y-81350500D01*
X103316243Y-81317246D01*
X103518412Y-81251557D01*
X103707816Y-81155051D01*
X103745063Y-81127990D01*
X103879786Y-81030109D01*
X103879788Y-81030106D01*
X103879792Y-81030104D01*
X104030104Y-80879792D01*
X104030106Y-80879788D01*
X104030109Y-80879786D01*
X104155048Y-80707820D01*
X104155047Y-80707820D01*
X104155051Y-80707816D01*
X104251557Y-80518412D01*
X104317246Y-80316243D01*
X104350500Y-80106287D01*
X104350500Y-79893713D01*
X104328956Y-79757688D01*
X104325790Y-79737698D01*
X104323360Y-79722358D01*
X174340000Y-79722358D01*
X174340000Y-79997641D01*
X174375930Y-80270565D01*
X174447180Y-80536471D01*
X174552520Y-80790787D01*
X174552527Y-80790802D01*
X174690163Y-81029196D01*
X174788758Y-81157686D01*
X175360523Y-80585920D01*
X175448415Y-80706893D01*
X175593107Y-80851585D01*
X175714077Y-80939475D01*
X175142312Y-81511240D01*
X175270804Y-81609836D01*
X175509197Y-81747472D01*
X175509212Y-81747479D01*
X175763528Y-81852819D01*
X176029434Y-81924069D01*
X176302358Y-81960000D01*
X176577642Y-81960000D01*
X176850565Y-81924069D01*
X177116471Y-81852819D01*
X177370787Y-81747479D01*
X177370802Y-81747472D01*
X177609194Y-81609836D01*
X177609211Y-81609825D01*
X177737686Y-81511241D01*
X177737686Y-81511239D01*
X177165922Y-80939475D01*
X177286893Y-80851585D01*
X177431585Y-80706893D01*
X177519475Y-80585922D01*
X178091239Y-81157686D01*
X178091241Y-81157686D01*
X178189825Y-81029211D01*
X178189836Y-81029194D01*
X178327472Y-80790802D01*
X178327479Y-80790787D01*
X178432819Y-80536471D01*
X178504069Y-80270565D01*
X178540000Y-79997641D01*
X178540000Y-79722358D01*
X178504069Y-79449434D01*
X178432819Y-79183528D01*
X178327479Y-78929212D01*
X178327472Y-78929197D01*
X178189836Y-78690804D01*
X178091240Y-78562312D01*
X177519475Y-79134077D01*
X177431585Y-79013107D01*
X177286893Y-78868415D01*
X177165921Y-78780523D01*
X177737686Y-78208758D01*
X177609196Y-78110163D01*
X177370802Y-77972527D01*
X177370787Y-77972520D01*
X177116471Y-77867180D01*
X176850565Y-77795930D01*
X176577642Y-77760000D01*
X176302358Y-77760000D01*
X176029434Y-77795930D01*
X175763528Y-77867180D01*
X175509212Y-77972520D01*
X175509197Y-77972527D01*
X175270799Y-78110166D01*
X175142312Y-78208757D01*
X175142312Y-78208758D01*
X175714078Y-78780524D01*
X175593107Y-78868415D01*
X175448415Y-79013107D01*
X175360524Y-79134078D01*
X174788758Y-78562312D01*
X174788757Y-78562312D01*
X174690166Y-78690799D01*
X174552527Y-78929197D01*
X174552520Y-78929212D01*
X174447180Y-79183528D01*
X174375930Y-79449434D01*
X174340000Y-79722358D01*
X104323360Y-79722358D01*
X104317246Y-79683759D01*
X104317246Y-79683757D01*
X104251557Y-79481588D01*
X104155051Y-79292184D01*
X104155049Y-79292181D01*
X104155048Y-79292179D01*
X104030109Y-79120213D01*
X103879786Y-78969890D01*
X103707820Y-78844951D01*
X103518414Y-78748444D01*
X103518413Y-78748443D01*
X103518412Y-78748443D01*
X103316243Y-78682754D01*
X103316241Y-78682753D01*
X103316240Y-78682753D01*
X103154957Y-78657208D01*
X103106287Y-78649500D01*
X102893713Y-78649500D01*
X102845042Y-78657208D01*
X102683760Y-78682753D01*
X102481585Y-78748444D01*
X102292179Y-78844951D01*
X102120213Y-78969890D01*
X101969890Y-79120213D01*
X101844951Y-79292179D01*
X101748444Y-79481585D01*
X101682753Y-79683760D01*
X101649500Y-79893713D01*
X99726106Y-79893713D01*
X99746383Y-79746776D01*
X99748677Y-79734653D01*
X99827745Y-79407111D01*
X99831234Y-79395279D01*
X99942524Y-79077229D01*
X99947180Y-79065791D01*
X99951883Y-79055707D01*
X100089570Y-78760432D01*
X100095345Y-78749505D01*
X100267442Y-78459824D01*
X100274258Y-78449554D01*
X100474347Y-78178444D01*
X100482163Y-78168889D01*
X100708258Y-77919040D01*
X100716974Y-77910324D01*
X100966823Y-77684229D01*
X100976370Y-77676419D01*
X101247488Y-77476324D01*
X101257758Y-77469508D01*
X101547443Y-77297408D01*
X101558356Y-77291641D01*
X101863730Y-77149242D01*
X101875170Y-77144586D01*
X102193214Y-77033298D01*
X102205037Y-77029812D01*
X102532597Y-76950740D01*
X102544702Y-76948450D01*
X102880440Y-76902119D01*
X102891944Y-76901076D01*
X103084183Y-76892683D01*
X103089591Y-76892566D01*
X183660378Y-76892566D01*
X183665785Y-76892683D01*
G37*
%TD.AperFunction*%
%TD*%
M02*
