ISO-10303-21;
HEADER;
/* Generated by software containing ST-Developer
 * from STEP Tools, Inc. (www.steptools.com) 
 */
/* OPTION: using custom renumber hook */

FILE_DESCRIPTION(
/* description */ ('STEP AP242 Edition 2',
'CAx-IF Rec.Pracs.---Representation and Presentation of Product Manufa
cturing Information (PMI)---4.0---2014-10-13',
'CAx-IF Rec.Pracs.---3D Tessellated Geometry---0.4---2014-09-14','2;1',
'CAx-IF Rec.Pracs.---User Defined Attributes---1.5---2016-08-15'),
/* implementation_level */ '2;1');

FILE_NAME(
/* name */ 'Assembly 1 - Part 195',
/* time_stamp */ '2026-09-02T13:34:20Z',
/* author */ (''),
/* organization */ (''),
/* preprocessor_version */ 'ST-DEVELOPER v20',
/* originating_system */ 'ONSHAPE BY PTC INC, 1.220',
/* authorisation */ '  ');

FILE_SCHEMA (('AP242_MANAGED_MODEL_BASED_3D_ENGINEERING_MIM_LF { 1 0 10303 442 3 1 4 }'));
ENDSEC;

DATA;
#10=SHAPE_REPRESENTATION_RELATIONSHIP('','',#465,#11);
#11=ADVANCED_BREP_SHAPE_REPRESENTATION('',(#463),#803);
#12=TOROIDAL_SURFACE('',#506,0.00279289021295501,0.00120711);
#13=TOROIDAL_SURFACE('',#513,0.00279289021297739,0.00120711);
#14=TOROIDAL_SURFACE('',#515,0.0027928902129549,0.00120711);
#15=TOROIDAL_SURFACE('',#521,0.00279289021300018,0.00120711);
#16=CIRCLE('',#469,0.0040000002129549);
#17=CIRCLE('',#470,0.0040000002129549);
#18=CIRCLE('',#473,0.00400000021295501);
#19=CIRCLE('',#474,0.00400000021295501);
#20=CIRCLE('',#477,0.00400000021297739);
#21=CIRCLE('',#478,0.00400000021297739);
#22=CIRCLE('',#481,0.00400000021300017);
#23=CIRCLE('',#482,0.00400000021300017);
#24=CIRCLE('',#484,0.00279289021300018);
#25=CIRCLE('',#485,0.00279289021297739);
#26=CIRCLE('',#486,0.00279289021295501);
#27=CIRCLE('',#487,0.0027928902129549);
#28=CIRCLE('',#490,0.005);
#29=CIRCLE('',#491,0.005);
#30=CIRCLE('',#494,0.005);
#31=CIRCLE('',#495,0.005);
#32=CIRCLE('',#498,0.005);
#33=CIRCLE('',#499,0.005);
#34=CIRCLE('',#502,0.005);
#35=CIRCLE('',#503,0.005);
#36=CIRCLE('',#507,0.00120711);
#37=CIRCLE('',#508,0.00120711);
#38=CIRCLE('',#510,0.00120711);
#39=CIRCLE('',#512,0.00120711);
#40=CIRCLE('',#514,0.00120711);
#41=CIRCLE('',#516,0.00120711);
#42=CIRCLE('',#518,0.00120711);
#43=CIRCLE('',#520,0.00120711);
#44=CYLINDRICAL_SURFACE('',#468,0.0040000002129549);
#45=CYLINDRICAL_SURFACE('',#472,0.00400000021295501);
#46=CYLINDRICAL_SURFACE('',#476,0.00400000021297739);
#47=CYLINDRICAL_SURFACE('',#480,0.00400000021300017);
#48=CYLINDRICAL_SURFACE('',#489,0.005);
#49=CYLINDRICAL_SURFACE('',#493,0.005);
#50=CYLINDRICAL_SURFACE('',#497,0.005);
#51=CYLINDRICAL_SURFACE('',#501,0.005);
#52=CYLINDRICAL_SURFACE('',#509,0.00120711);
#53=CYLINDRICAL_SURFACE('',#511,0.00120711);
#54=CYLINDRICAL_SURFACE('',#517,0.00120711);
#55=CYLINDRICAL_SURFACE('',#519,0.00120711);
#56=ORIENTED_EDGE('',*,*,#184,.F.);
#57=ORIENTED_EDGE('',*,*,#185,.T.);
#58=ORIENTED_EDGE('',*,*,#186,.T.);
#59=ORIENTED_EDGE('',*,*,#187,.F.);
#60=ORIENTED_EDGE('',*,*,#186,.F.);
#61=ORIENTED_EDGE('',*,*,#188,.T.);
#62=ORIENTED_EDGE('',*,*,#189,.T.);
#63=ORIENTED_EDGE('',*,*,#190,.F.);
#64=ORIENTED_EDGE('',*,*,#189,.F.);
#65=ORIENTED_EDGE('',*,*,#191,.T.);
#66=ORIENTED_EDGE('',*,*,#192,.T.);
#67=ORIENTED_EDGE('',*,*,#193,.F.);
#68=ORIENTED_EDGE('',*,*,#192,.F.);
#69=ORIENTED_EDGE('',*,*,#194,.T.);
#70=ORIENTED_EDGE('',*,*,#195,.T.);
#71=ORIENTED_EDGE('',*,*,#196,.F.);
#72=ORIENTED_EDGE('',*,*,#195,.F.);
#73=ORIENTED_EDGE('',*,*,#197,.T.);
#74=ORIENTED_EDGE('',*,*,#198,.T.);
#75=ORIENTED_EDGE('',*,*,#199,.F.);
#76=ORIENTED_EDGE('',*,*,#198,.F.);
#77=ORIENTED_EDGE('',*,*,#200,.T.);
#78=ORIENTED_EDGE('',*,*,#201,.T.);
#79=ORIENTED_EDGE('',*,*,#202,.F.);
#80=ORIENTED_EDGE('',*,*,#201,.F.);
#81=ORIENTED_EDGE('',*,*,#203,.T.);
#82=ORIENTED_EDGE('',*,*,#204,.T.);
#83=ORIENTED_EDGE('',*,*,#205,.T.);
#84=ORIENTED_EDGE('',*,*,#204,.F.);
#85=ORIENTED_EDGE('',*,*,#206,.T.);
#86=ORIENTED_EDGE('',*,*,#184,.T.);
#87=ORIENTED_EDGE('',*,*,#207,.F.);
#88=ORIENTED_EDGE('',*,*,#208,.T.);
#89=ORIENTED_EDGE('',*,*,#209,.T.);
#90=ORIENTED_EDGE('',*,*,#210,.T.);
#91=ORIENTED_EDGE('',*,*,#211,.T.);
#92=ORIENTED_EDGE('',*,*,#212,.T.);
#93=ORIENTED_EDGE('',*,*,#213,.T.);
#94=ORIENTED_EDGE('',*,*,#214,.T.);
#95=ORIENTED_EDGE('',*,*,#215,.T.);
#96=ORIENTED_EDGE('',*,*,#216,.F.);
#97=ORIENTED_EDGE('',*,*,#217,.F.);
#98=ORIENTED_EDGE('',*,*,#218,.T.);
#99=ORIENTED_EDGE('',*,*,#219,.T.);
#100=ORIENTED_EDGE('',*,*,#220,.T.);
#101=ORIENTED_EDGE('',*,*,#221,.F.);
#102=ORIENTED_EDGE('',*,*,#222,.F.);
#103=ORIENTED_EDGE('',*,*,#217,.T.);
#104=ORIENTED_EDGE('',*,*,#223,.F.);
#105=ORIENTED_EDGE('',*,*,#224,.F.);
#106=ORIENTED_EDGE('',*,*,#225,.T.);
#107=ORIENTED_EDGE('',*,*,#221,.T.);
#108=ORIENTED_EDGE('',*,*,#226,.T.);
#109=ORIENTED_EDGE('',*,*,#227,.F.);
#110=ORIENTED_EDGE('',*,*,#228,.F.);
#111=ORIENTED_EDGE('',*,*,#224,.T.);
#112=ORIENTED_EDGE('',*,*,#229,.T.);
#113=ORIENTED_EDGE('',*,*,#230,.F.);
#114=ORIENTED_EDGE('',*,*,#231,.F.);
#115=ORIENTED_EDGE('',*,*,#227,.T.);
#116=ORIENTED_EDGE('',*,*,#232,.T.);
#117=ORIENTED_EDGE('',*,*,#233,.F.);
#118=ORIENTED_EDGE('',*,*,#234,.F.);
#119=ORIENTED_EDGE('',*,*,#230,.T.);
#120=ORIENTED_EDGE('',*,*,#235,.T.);
#121=ORIENTED_EDGE('',*,*,#236,.F.);
#122=ORIENTED_EDGE('',*,*,#237,.F.);
#123=ORIENTED_EDGE('',*,*,#233,.T.);
#124=ORIENTED_EDGE('',*,*,#238,.T.);
#125=ORIENTED_EDGE('',*,*,#219,.F.);
#126=ORIENTED_EDGE('',*,*,#239,.F.);
#127=ORIENTED_EDGE('',*,*,#236,.T.);
#128=ORIENTED_EDGE('',*,*,#207,.T.);
#129=ORIENTED_EDGE('',*,*,#187,.T.);
#130=ORIENTED_EDGE('',*,*,#190,.T.);
#131=ORIENTED_EDGE('',*,*,#193,.T.);
#132=ORIENTED_EDGE('',*,*,#196,.T.);
#133=ORIENTED_EDGE('',*,*,#199,.T.);
#134=ORIENTED_EDGE('',*,*,#202,.T.);
#135=ORIENTED_EDGE('',*,*,#205,.F.);
#136=ORIENTED_EDGE('',*,*,#216,.T.);
#137=ORIENTED_EDGE('',*,*,#238,.F.);
#138=ORIENTED_EDGE('',*,*,#235,.F.);
#139=ORIENTED_EDGE('',*,*,#232,.F.);
#140=ORIENTED_EDGE('',*,*,#229,.F.);
#141=ORIENTED_EDGE('',*,*,#226,.F.);
#142=ORIENTED_EDGE('',*,*,#223,.T.);
#143=ORIENTED_EDGE('',*,*,#220,.F.);
#144=ORIENTED_EDGE('',*,*,#218,.F.);
#145=ORIENTED_EDGE('',*,*,#222,.T.);
#146=ORIENTED_EDGE('',*,*,#225,.F.);
#147=ORIENTED_EDGE('',*,*,#228,.T.);
#148=ORIENTED_EDGE('',*,*,#231,.T.);
#149=ORIENTED_EDGE('',*,*,#234,.T.);
#150=ORIENTED_EDGE('',*,*,#237,.T.);
#151=ORIENTED_EDGE('',*,*,#239,.T.);
#152=ORIENTED_EDGE('',*,*,#240,.F.);
#153=ORIENTED_EDGE('',*,*,#213,.F.);
#154=ORIENTED_EDGE('',*,*,#241,.F.);
#155=ORIENTED_EDGE('',*,*,#194,.F.);
#156=ORIENTED_EDGE('',*,*,#241,.T.);
#157=ORIENTED_EDGE('',*,*,#212,.F.);
#158=ORIENTED_EDGE('',*,*,#242,.F.);
#159=ORIENTED_EDGE('',*,*,#197,.F.);
#160=ORIENTED_EDGE('',*,*,#240,.T.);
#161=ORIENTED_EDGE('',*,*,#191,.F.);
#162=ORIENTED_EDGE('',*,*,#243,.F.);
#163=ORIENTED_EDGE('',*,*,#214,.F.);
#164=ORIENTED_EDGE('',*,*,#242,.T.);
#165=ORIENTED_EDGE('',*,*,#211,.F.);
#166=ORIENTED_EDGE('',*,*,#244,.F.);
#167=ORIENTED_EDGE('',*,*,#200,.F.);
#168=ORIENTED_EDGE('',*,*,#243,.T.);
#169=ORIENTED_EDGE('',*,*,#188,.F.);
#170=ORIENTED_EDGE('',*,*,#245,.F.);
#171=ORIENTED_EDGE('',*,*,#215,.F.);
#172=ORIENTED_EDGE('',*,*,#244,.T.);
#173=ORIENTED_EDGE('',*,*,#210,.F.);
#174=ORIENTED_EDGE('',*,*,#246,.F.);
#175=ORIENTED_EDGE('',*,*,#203,.F.);
#176=ORIENTED_EDGE('',*,*,#245,.T.);
#177=ORIENTED_EDGE('',*,*,#185,.F.);
#178=ORIENTED_EDGE('',*,*,#247,.F.);
#179=ORIENTED_EDGE('',*,*,#208,.F.);
#180=ORIENTED_EDGE('',*,*,#246,.T.);
#181=ORIENTED_EDGE('',*,*,#209,.F.);
#182=ORIENTED_EDGE('',*,*,#247,.T.);
#183=ORIENTED_EDGE('',*,*,#206,.F.);
#184=EDGE_CURVE('',#248,#249,#288,.T.);
#185=EDGE_CURVE('',#248,#250,#289,.T.);
#186=EDGE_CURVE('',#250,#251,#290,.T.);
#187=EDGE_CURVE('',#249,#251,#291,.T.);
#188=EDGE_CURVE('',#250,#252,#16,.T.);
#189=EDGE_CURVE('',#252,#253,#292,.T.);
#190=EDGE_CURVE('',#251,#253,#17,.T.);
#191=EDGE_CURVE('',#252,#254,#293,.T.);
#192=EDGE_CURVE('',#254,#255,#294,.T.);
#193=EDGE_CURVE('',#253,#255,#295,.T.);
#194=EDGE_CURVE('',#254,#256,#18,.T.);
#195=EDGE_CURVE('',#256,#257,#296,.T.);
#196=EDGE_CURVE('',#255,#257,#19,.T.);
#197=EDGE_CURVE('',#256,#258,#297,.T.);
#198=EDGE_CURVE('',#258,#259,#298,.T.);
#199=EDGE_CURVE('',#257,#259,#299,.T.);
#200=EDGE_CURVE('',#258,#260,#20,.T.);
#201=EDGE_CURVE('',#260,#261,#300,.T.);
#202=EDGE_CURVE('',#259,#261,#21,.T.);
#203=EDGE_CURVE('',#260,#262,#301,.F.);
#204=EDGE_CURVE('',#262,#263,#302,.T.);
#205=EDGE_CURVE('',#263,#261,#303,.T.);
#206=EDGE_CURVE('',#262,#248,#22,.T.);
#207=EDGE_CURVE('',#263,#249,#23,.T.);
#208=EDGE_CURVE('',#264,#265,#304,.F.);
#209=EDGE_CURVE('',#265,#266,#24,.F.);
#210=EDGE_CURVE('',#266,#267,#305,.T.);
#211=EDGE_CURVE('',#267,#268,#25,.F.);
#212=EDGE_CURVE('',#268,#269,#306,.F.);
#213=EDGE_CURVE('',#269,#270,#26,.F.);
#214=EDGE_CURVE('',#270,#271,#307,.F.);
#215=EDGE_CURVE('',#271,#264,#27,.F.);
#216=EDGE_CURVE('',#272,#273,#308,.T.);
#217=EDGE_CURVE('',#274,#272,#309,.T.);
#218=EDGE_CURVE('',#274,#275,#310,.T.);
#219=EDGE_CURVE('',#275,#273,#311,.T.);
#220=EDGE_CURVE('',#272,#276,#28,.T.);
#221=EDGE_CURVE('',#277,#276,#312,.T.);
#222=EDGE_CURVE('',#274,#277,#29,.T.);
#223=EDGE_CURVE('',#278,#276,#313,.T.);
#224=EDGE_CURVE('',#279,#278,#314,.T.);
#225=EDGE_CURVE('',#279,#277,#315,.T.);
#226=EDGE_CURVE('',#278,#280,#30,.T.);
#227=EDGE_CURVE('',#281,#280,#316,.T.);
#228=EDGE_CURVE('',#279,#281,#31,.T.);
#229=EDGE_CURVE('',#280,#282,#317,.T.);
#230=EDGE_CURVE('',#283,#282,#318,.T.);
#231=EDGE_CURVE('',#281,#283,#319,.T.);
#232=EDGE_CURVE('',#282,#284,#32,.T.);
#233=EDGE_CURVE('',#285,#284,#320,.T.);
#234=EDGE_CURVE('',#283,#285,#33,.T.);
#235=EDGE_CURVE('',#284,#286,#321,.T.);
#236=EDGE_CURVE('',#287,#286,#322,.T.);
#237=EDGE_CURVE('',#285,#287,#323,.T.);
#238=EDGE_CURVE('',#286,#273,#34,.T.);
#239=EDGE_CURVE('',#287,#275,#35,.T.);
#240=EDGE_CURVE('',#270,#254,#36,.T.);
#241=EDGE_CURVE('',#256,#269,#37,.T.);
#242=EDGE_CURVE('',#258,#268,#38,.T.);
#243=EDGE_CURVE('',#271,#252,#39,.T.);
#244=EDGE_CURVE('',#260,#267,#40,.T.);
#245=EDGE_CURVE('',#264,#250,#41,.T.);
#246=EDGE_CURVE('',#262,#266,#42,.T.);
#247=EDGE_CURVE('',#265,#248,#43,.T.);
#248=VERTEX_POINT('',#673);
#249=VERTEX_POINT('',#674);
#250=VERTEX_POINT('',#676);
#251=VERTEX_POINT('',#678);
#252=VERTEX_POINT('',#682);
#253=VERTEX_POINT('',#684);
#254=VERTEX_POINT('',#688);
#255=VERTEX_POINT('',#690);
#256=VERTEX_POINT('',#694);
#257=VERTEX_POINT('',#696);
#258=VERTEX_POINT('',#700);
#259=VERTEX_POINT('',#702);
#260=VERTEX_POINT('',#706);
#261=VERTEX_POINT('',#708);
#262=VERTEX_POINT('',#712);
#263=VERTEX_POINT('',#714);
#264=VERTEX_POINT('',#721);
#265=VERTEX_POINT('',#722);
#266=VERTEX_POINT('',#724);
#267=VERTEX_POINT('',#726);
#268=VERTEX_POINT('',#728);
#269=VERTEX_POINT('',#730);
#270=VERTEX_POINT('',#732);
#271=VERTEX_POINT('',#734);
#272=VERTEX_POINT('',#738);
#273=VERTEX_POINT('',#739);
#274=VERTEX_POINT('',#741);
#275=VERTEX_POINT('',#743);
#276=VERTEX_POINT('',#747);
#277=VERTEX_POINT('',#749);
#278=VERTEX_POINT('',#753);
#279=VERTEX_POINT('',#755);
#280=VERTEX_POINT('',#759);
#281=VERTEX_POINT('',#761);
#282=VERTEX_POINT('',#765);
#283=VERTEX_POINT('',#767);
#284=VERTEX_POINT('',#771);
#285=VERTEX_POINT('',#773);
#286=VERTEX_POINT('',#777);
#287=VERTEX_POINT('',#779);
#288=LINE('',#672,#324);
#289=LINE('',#675,#325);
#290=LINE('',#677,#326);
#291=LINE('',#679,#327);
#292=LINE('',#683,#328);
#293=LINE('',#687,#329);
#294=LINE('',#689,#330);
#295=LINE('',#691,#331);
#296=LINE('',#695,#332);
#297=LINE('',#699,#333);
#298=LINE('',#701,#334);
#299=LINE('',#703,#335);
#300=LINE('',#707,#336);
#301=LINE('',#711,#337);
#302=LINE('',#713,#338);
#303=LINE('',#715,#339);
#304=LINE('',#720,#340);
#305=LINE('',#725,#341);
#306=LINE('',#729,#342);
#307=LINE('',#733,#343);
#308=LINE('',#737,#344);
#309=LINE('',#740,#345);
#310=LINE('',#742,#346);
#311=LINE('',#744,#347);
#312=LINE('',#748,#348);
#313=LINE('',#752,#349);
#314=LINE('',#754,#350);
#315=LINE('',#756,#351);
#316=LINE('',#760,#352);
#317=LINE('',#764,#353);
#318=LINE('',#766,#354);
#319=LINE('',#768,#355);
#320=LINE('',#772,#356);
#321=LINE('',#776,#357);
#322=LINE('',#778,#358);
#323=LINE('',#780,#359);
#324=VECTOR('',#526,1.);
#325=VECTOR('',#527,1.);
#326=VECTOR('',#528,1.);
#327=VECTOR('',#529,1.);
#328=VECTOR('',#534,1.);
#329=VECTOR('',#539,1.);
#330=VECTOR('',#540,1.);
#331=VECTOR('',#541,1.);
#332=VECTOR('',#546,1.);
#333=VECTOR('',#551,1.);
#334=VECTOR('',#552,1.);
#335=VECTOR('',#553,1.);
#336=VECTOR('',#558,1.);
#337=VECTOR('',#563,1.);
#338=VECTOR('',#564,1.);
#339=VECTOR('',#565,1.);
#340=VECTOR('',#574,1.);
#341=VECTOR('',#577,1.);
#342=VECTOR('',#580,1.);
#343=VECTOR('',#583,1.);
#344=VECTOR('',#588,1.);
#345=VECTOR('',#589,1.);
#346=VECTOR('',#590,1.);
#347=VECTOR('',#591,1.);
#348=VECTOR('',#596,1.);
#349=VECTOR('',#601,1.);
#350=VECTOR('',#602,1.);
#351=VECTOR('',#603,1.);
#352=VECTOR('',#608,1.);
#353=VECTOR('',#613,1.);
#354=VECTOR('',#614,1.);
#355=VECTOR('',#615,1.);
#356=VECTOR('',#620,1.);
#357=VECTOR('',#625,1.);
#358=VECTOR('',#626,1.);
#359=VECTOR('',#627,1.);
#360=EDGE_LOOP('',(#56,#57,#58,#59));
#361=EDGE_LOOP('',(#60,#61,#62,#63));
#362=EDGE_LOOP('',(#64,#65,#66,#67));
#363=EDGE_LOOP('',(#68,#69,#70,#71));
#364=EDGE_LOOP('',(#72,#73,#74,#75));
#365=EDGE_LOOP('',(#76,#77,#78,#79));
#366=EDGE_LOOP('',(#80,#81,#82,#83));
#367=EDGE_LOOP('',(#84,#85,#86,#87));
#368=EDGE_LOOP('',(#88,#89,#90,#91,#92,#93,#94,#95));
#369=EDGE_LOOP('',(#96,#97,#98,#99));
#370=EDGE_LOOP('',(#100,#101,#102,#103));
#371=EDGE_LOOP('',(#104,#105,#106,#107));
#372=EDGE_LOOP('',(#108,#109,#110,#111));
#373=EDGE_LOOP('',(#112,#113,#114,#115));
#374=EDGE_LOOP('',(#116,#117,#118,#119));
#375=EDGE_LOOP('',(#120,#121,#122,#123));
#376=EDGE_LOOP('',(#124,#125,#126,#127));
#377=EDGE_LOOP('',(#128,#129,#130,#131,#132,#133,#134,#135));
#378=EDGE_LOOP('',(#136,#137,#138,#139,#140,#141,#142,#143));
#379=EDGE_LOOP('',(#144,#145,#146,#147,#148,#149,#150,#151));
#380=EDGE_LOOP('',(#152,#153,#154,#155));
#381=EDGE_LOOP('',(#156,#157,#158,#159));
#382=EDGE_LOOP('',(#160,#161,#162,#163));
#383=EDGE_LOOP('',(#164,#165,#166,#167));
#384=EDGE_LOOP('',(#168,#169,#170,#171));
#385=EDGE_LOOP('',(#172,#173,#174,#175));
#386=EDGE_LOOP('',(#176,#177,#178,#179));
#387=EDGE_LOOP('',(#180,#181,#182,#183));
#388=FACE_BOUND('',#360,.T.);
#389=FACE_BOUND('',#361,.T.);
#390=FACE_BOUND('',#362,.T.);
#391=FACE_BOUND('',#363,.T.);
#392=FACE_BOUND('',#364,.T.);
#393=FACE_BOUND('',#365,.T.);
#394=FACE_BOUND('',#366,.T.);
#395=FACE_BOUND('',#367,.T.);
#396=FACE_BOUND('',#368,.T.);
#397=FACE_BOUND('',#369,.T.);
#398=FACE_BOUND('',#370,.T.);
#399=FACE_BOUND('',#371,.T.);
#400=FACE_BOUND('',#372,.T.);
#401=FACE_BOUND('',#373,.T.);
#402=FACE_BOUND('',#374,.T.);
#403=FACE_BOUND('',#375,.T.);
#404=FACE_BOUND('',#376,.T.);
#405=FACE_BOUND('',#377,.T.);
#406=FACE_BOUND('',#378,.T.);
#407=FACE_BOUND('',#379,.T.);
#408=FACE_BOUND('',#380,.T.);
#409=FACE_BOUND('',#381,.T.);
#410=FACE_BOUND('',#382,.T.);
#411=FACE_BOUND('',#383,.T.);
#412=FACE_BOUND('',#384,.T.);
#413=FACE_BOUND('',#385,.T.);
#414=FACE_BOUND('',#386,.T.);
#415=FACE_BOUND('',#387,.T.);
#416=PLANE('',#467);
#417=PLANE('',#471);
#418=PLANE('',#475);
#419=PLANE('',#479);
#420=PLANE('',#483);
#421=PLANE('',#488);
#422=PLANE('',#492);
#423=PLANE('',#496);
#424=PLANE('',#500);
#425=PLANE('',#504);
#426=PLANE('',#505);
#427=ADVANCED_FACE('',(#388),#416,.T.);
#428=ADVANCED_FACE('',(#389),#44,.T.);
#429=ADVANCED_FACE('',(#390),#417,.T.);
#430=ADVANCED_FACE('',(#391),#45,.T.);
#431=ADVANCED_FACE('',(#392),#418,.T.);
#432=ADVANCED_FACE('',(#393),#46,.T.);
#433=ADVANCED_FACE('',(#394),#419,.F.);
#434=ADVANCED_FACE('',(#395),#47,.T.);
#435=ADVANCED_FACE('',(#396),#420,.F.);
#436=ADVANCED_FACE('',(#397),#421,.T.);
#437=ADVANCED_FACE('',(#398),#48,.T.);
#438=ADVANCED_FACE('',(#399),#422,.T.);
#439=ADVANCED_FACE('',(#400),#49,.T.);
#440=ADVANCED_FACE('',(#401),#423,.F.);
#441=ADVANCED_FACE('',(#402),#50,.T.);
#442=ADVANCED_FACE('',(#403),#424,.F.);
#443=ADVANCED_FACE('',(#404),#51,.T.);
#444=ADVANCED_FACE('',(#405,#406),#425,.F.);
#445=ADVANCED_FACE('',(#407),#426,.T.);
#446=ADVANCED_FACE('',(#408),#12,.T.);
#447=ADVANCED_FACE('',(#409),#52,.T.);
#448=ADVANCED_FACE('',(#410),#53,.T.);
#449=ADVANCED_FACE('',(#411),#13,.T.);
#450=ADVANCED_FACE('',(#412),#14,.T.);
#451=ADVANCED_FACE('',(#413),#54,.T.);
#452=ADVANCED_FACE('',(#414),#55,.T.);
#453=ADVANCED_FACE('',(#415),#15,.T.);
#454=CLOSED_SHELL('',(#427,#428,#429,#430,#431,#432,#433,#434,#435,#436,
#437,#438,#439,#440,#441,#442,#443,#444,#445,#446,#447,#448,#449,#450,#451,
#452,#453));
#455=STYLED_ITEM('',(#456),#463);
#456=PRESENTATION_STYLE_ASSIGNMENT((#457));
#457=SURFACE_STYLE_USAGE(.BOTH.,#458);
#458=SURFACE_SIDE_STYLE('',(#459));
#459=SURFACE_STYLE_FILL_AREA(#460);
#460=FILL_AREA_STYLE('',(#461));
#461=FILL_AREA_STYLE_COLOUR('',#462);
#462=COLOUR_RGB('',0.901960784313726,0.901960784313726,0.901960784313726);
#463=MANIFOLD_SOLID_BREP('Part 195',#454);
#464=SHAPE_DEFINITION_REPRESENTATION(#808,#465);
#465=SHAPE_REPRESENTATION('Part 195',(#466),#803);
#466=AXIS2_PLACEMENT_3D('',#670,#522,#523);
#467=AXIS2_PLACEMENT_3D('',#671,#524,#525);
#468=AXIS2_PLACEMENT_3D('',#680,#530,#531);
#469=AXIS2_PLACEMENT_3D('',#681,#532,#533);
#470=AXIS2_PLACEMENT_3D('',#685,#535,#536);
#471=AXIS2_PLACEMENT_3D('',#686,#537,#538);
#472=AXIS2_PLACEMENT_3D('',#692,#542,#543);
#473=AXIS2_PLACEMENT_3D('',#693,#544,#545);
#474=AXIS2_PLACEMENT_3D('',#697,#547,#548);
#475=AXIS2_PLACEMENT_3D('',#698,#549,#550);
#476=AXIS2_PLACEMENT_3D('',#704,#554,#555);
#477=AXIS2_PLACEMENT_3D('',#705,#556,#557);
#478=AXIS2_PLACEMENT_3D('',#709,#559,#560);
#479=AXIS2_PLACEMENT_3D('',#710,#561,#562);
#480=AXIS2_PLACEMENT_3D('',#716,#566,#567);
#481=AXIS2_PLACEMENT_3D('',#717,#568,#569);
#482=AXIS2_PLACEMENT_3D('',#718,#570,#571);
#483=AXIS2_PLACEMENT_3D('',#719,#572,#573);
#484=AXIS2_PLACEMENT_3D('',#723,#575,#576);
#485=AXIS2_PLACEMENT_3D('',#727,#578,#579);
#486=AXIS2_PLACEMENT_3D('',#731,#581,#582);
#487=AXIS2_PLACEMENT_3D('',#735,#584,#585);
#488=AXIS2_PLACEMENT_3D('',#736,#586,#587);
#489=AXIS2_PLACEMENT_3D('',#745,#592,#593);
#490=AXIS2_PLACEMENT_3D('',#746,#594,#595);
#491=AXIS2_PLACEMENT_3D('',#750,#597,#598);
#492=AXIS2_PLACEMENT_3D('',#751,#599,#600);
#493=AXIS2_PLACEMENT_3D('',#757,#604,#605);
#494=AXIS2_PLACEMENT_3D('',#758,#606,#607);
#495=AXIS2_PLACEMENT_3D('',#762,#609,#610);
#496=AXIS2_PLACEMENT_3D('',#763,#611,#612);
#497=AXIS2_PLACEMENT_3D('',#769,#616,#617);
#498=AXIS2_PLACEMENT_3D('',#770,#618,#619);
#499=AXIS2_PLACEMENT_3D('',#774,#621,#622);
#500=AXIS2_PLACEMENT_3D('',#775,#623,#624);
#501=AXIS2_PLACEMENT_3D('',#781,#628,#629);
#502=AXIS2_PLACEMENT_3D('',#782,#630,#631);
#503=AXIS2_PLACEMENT_3D('',#783,#632,#633);
#504=AXIS2_PLACEMENT_3D('',#784,#634,#635);
#505=AXIS2_PLACEMENT_3D('',#785,#636,#637);
#506=AXIS2_PLACEMENT_3D('',#786,#638,#639);
#507=AXIS2_PLACEMENT_3D('',#787,#640,#641);
#508=AXIS2_PLACEMENT_3D('',#788,#642,#643);
#509=AXIS2_PLACEMENT_3D('',#789,#644,#645);
#510=AXIS2_PLACEMENT_3D('',#790,#646,#647);
#511=AXIS2_PLACEMENT_3D('',#791,#648,#649);
#512=AXIS2_PLACEMENT_3D('',#792,#650,#651);
#513=AXIS2_PLACEMENT_3D('',#793,#652,#653);
#514=AXIS2_PLACEMENT_3D('',#794,#654,#655);
#515=AXIS2_PLACEMENT_3D('',#795,#656,#657);
#516=AXIS2_PLACEMENT_3D('',#796,#658,#659);
#517=AXIS2_PLACEMENT_3D('',#797,#660,#661);
#518=AXIS2_PLACEMENT_3D('',#798,#662,#663);
#519=AXIS2_PLACEMENT_3D('',#799,#664,#665);
#520=AXIS2_PLACEMENT_3D('',#800,#666,#667);
#521=AXIS2_PLACEMENT_3D('',#801,#668,#669);
#522=DIRECTION('',(0.,0.,1.));
#523=DIRECTION('',(1.,0.,0.));
#524=DIRECTION('',(-1.,0.,0.));
#525=DIRECTION('',(0.,1.,0.));
#526=DIRECTION('',(0.,-1.,0.));
#527=DIRECTION('',(0.,0.,-1.));
#528=DIRECTION('',(0.,-1.,0.));
#529=DIRECTION('',(0.,0.,-1.));
#530=DIRECTION('',(0.,-1.,0.));
#531=DIRECTION('',(-1.,0.,0.));
#532=DIRECTION('',(0.,-1.,0.));
#533=DIRECTION('',(-1.,0.,0.));
#534=DIRECTION('',(0.,-1.,0.));
#535=DIRECTION('',(0.,-1.,0.));
#536=DIRECTION('',(-1.,0.,0.));
#537=DIRECTION('',(0.,0.,-1.));
#538=DIRECTION('',(0.,1.,0.));
#539=DIRECTION('',(1.,0.,0.));
#540=DIRECTION('',(0.,-1.,0.));
#541=DIRECTION('',(1.,0.,0.));
#542=DIRECTION('',(0.,-1.,0.));
#543=DIRECTION('',(-1.,0.,0.));
#544=DIRECTION('',(0.,-1.,0.));
#545=DIRECTION('',(-1.,0.,0.));
#546=DIRECTION('',(0.,-1.,0.));
#547=DIRECTION('',(0.,-1.,0.));
#548=DIRECTION('',(-1.,0.,0.));
#549=DIRECTION('',(1.,0.,0.));
#550=DIRECTION('',(0.,-1.,0.));
#551=DIRECTION('',(0.,0.,1.));
#552=DIRECTION('',(0.,-1.,0.));
#553=DIRECTION('',(0.,0.,1.));
#554=DIRECTION('',(0.,-1.,0.));
#555=DIRECTION('',(-1.,0.,0.));
#556=DIRECTION('',(0.,-1.,0.));
#557=DIRECTION('',(-1.,0.,0.));
#558=DIRECTION('',(0.,-1.,0.));
#559=DIRECTION('',(0.,-1.,0.));
#560=DIRECTION('',(-1.,0.,0.));
#561=DIRECTION('',(1.72673786216379E-16,0.,-1.));
#562=DIRECTION('',(-1.,0.,-1.72673786216379E-16));
#563=DIRECTION('',(1.,0.,1.72673786216379E-16));
#564=DIRECTION('',(0.,-1.,0.));
#565=DIRECTION('',(1.,0.,1.72673786216379E-16));
#566=DIRECTION('',(0.,-1.,0.));
#567=DIRECTION('',(-1.,0.,0.));
#568=DIRECTION('',(0.,-1.,0.));
#569=DIRECTION('',(-1.,0.,0.));
#570=DIRECTION('',(0.,-1.,0.));
#571=DIRECTION('',(-1.,0.,0.));
#572=DIRECTION('',(0.,-1.,0.));
#573=DIRECTION('',(1.,0.,0.));
#574=DIRECTION('',(0.,0.,-1.));
#575=DIRECTION('',(0.,-1.,0.));
#576=DIRECTION('',(-1.,0.,0.));
#577=DIRECTION('',(1.,0.,1.72673786216379E-16));
#578=DIRECTION('',(0.,-1.,0.));
#579=DIRECTION('',(-1.,0.,0.));
#580=DIRECTION('',(0.,0.,1.));
#581=DIRECTION('',(0.,-1.,0.));
#582=DIRECTION('',(-1.,0.,0.));
#583=DIRECTION('',(1.,0.,0.));
#584=DIRECTION('',(0.,-1.,0.));
#585=DIRECTION('',(-1.,0.,0.));
#586=DIRECTION('',(1.,0.,0.));
#587=DIRECTION('',(0.,-1.,0.));
#588=DIRECTION('',(0.,0.,-1.));
#589=DIRECTION('',(0.,1.,0.));
#590=DIRECTION('',(0.,0.,-1.));
#591=DIRECTION('',(0.,1.,0.));
#592=DIRECTION('',(0.,1.,0.));
#593=DIRECTION('',(1.,0.,0.));
#594=DIRECTION('',(0.,-1.,0.));
#595=DIRECTION('',(-1.,0.,0.));
#596=DIRECTION('',(0.,1.,0.));
#597=DIRECTION('',(0.,-1.,0.));
#598=DIRECTION('',(-1.,0.,0.));
#599=DIRECTION('',(0.,0.,1.));
#600=DIRECTION('',(0.,-1.,0.));
#601=DIRECTION('',(1.,0.,0.));
#602=DIRECTION('',(0.,1.,0.));
#603=DIRECTION('',(1.,0.,0.));
#604=DIRECTION('',(0.,1.,0.));
#605=DIRECTION('',(1.,0.,0.));
#606=DIRECTION('',(0.,-1.,0.));
#607=DIRECTION('',(-1.,0.,0.));
#608=DIRECTION('',(0.,1.,0.));
#609=DIRECTION('',(0.,-1.,0.));
#610=DIRECTION('',(-1.,0.,0.));
#611=DIRECTION('',(1.,0.,0.));
#612=DIRECTION('',(0.,-1.,0.));
#613=DIRECTION('',(0.,0.,-1.));
#614=DIRECTION('',(0.,1.,0.));
#615=DIRECTION('',(0.,0.,-1.));
#616=DIRECTION('',(0.,1.,0.));
#617=DIRECTION('',(1.,0.,0.));
#618=DIRECTION('',(0.,-1.,0.));
#619=DIRECTION('',(-1.,0.,0.));
#620=DIRECTION('',(0.,1.,0.));
#621=DIRECTION('',(0.,-1.,0.));
#622=DIRECTION('',(-1.,0.,0.));
#623=DIRECTION('',(0.,0.,1.));
#624=DIRECTION('',(0.,-1.,0.));
#625=DIRECTION('',(1.,0.,0.));
#626=DIRECTION('',(0.,1.,0.));
#627=DIRECTION('',(1.,0.,0.));
#628=DIRECTION('',(0.,1.,0.));
#629=DIRECTION('',(1.,0.,0.));
#630=DIRECTION('',(0.,-1.,0.));
#631=DIRECTION('',(-1.,0.,0.));
#632=DIRECTION('',(0.,-1.,0.));
#633=DIRECTION('',(-1.,0.,0.));
#634=DIRECTION('',(0.,-1.,0.));
#635=DIRECTION('',(1.,0.,0.));
#636=DIRECTION('',(0.,-1.,0.));
#637=DIRECTION('',(1.,0.,0.));
#638=DIRECTION('',(0.,-1.,0.));
#639=DIRECTION('',(-1.,0.,0.));
#640=DIRECTION('',(-1.,0.,-5.74835259744948E-15));
#641=DIRECTION('',(-5.74835259744948E-15,0.,1.));
#642=DIRECTION('',(0.,0.,1.));
#643=DIRECTION('',(0.,-1.,0.));
#644=DIRECTION('',(0.,0.,-1.));
#645=DIRECTION('',(0.,1.,0.));
#646=DIRECTION('',(0.,-5.74835259744946E-15,1.));
#647=DIRECTION('',(0.,-1.,-5.74835259744946E-15));
#648=DIRECTION('',(-1.,0.,0.));
#649=DIRECTION('',(0.,1.,0.));
#650=DIRECTION('',(-1.,0.,0.));
#651=DIRECTION('',(0.,1.,0.));
#652=DIRECTION('',(0.,-1.,0.));
#653=DIRECTION('',(-1.,0.,0.));
#654=DIRECTION('',(-1.,0.,0.));
#655=DIRECTION('',(0.,1.,0.));
#656=DIRECTION('',(0.,-1.,0.));
#657=DIRECTION('',(-1.,0.,0.));
#658=DIRECTION('',(2.87417629872473E-15,0.,1.));
#659=DIRECTION('',(1.,0.,-2.87417629872473E-15));
#660=DIRECTION('',(1.,0.,1.72673786216379E-16));
#661=DIRECTION('',(1.72673786216379E-16,0.,-1.));
#662=DIRECTION('',(-1.,5.64488225069537E-12,0.));
#663=DIRECTION('',(5.64488225069537E-12,1.,0.));
#664=DIRECTION('',(0.,0.,1.));
#665=DIRECTION('',(0.,-1.,0.));
#666=DIRECTION('',(-5.74835259744948E-15,0.,1.));
#667=DIRECTION('',(1.,0.,5.74835259744948E-15));
#668=DIRECTION('',(0.,-1.,0.));
#669=DIRECTION('',(-1.,0.,0.));
#670=CARTESIAN_POINT('',(0.,0.,0.));
#671=CARTESIAN_POINT('',(-0.0376207721992012,-0.027,0.0123421629247138));
#672=CARTESIAN_POINT('',(-0.0376207721992012,-0.027,0.0376261297117137));
#673=CARTESIAN_POINT('',(-0.0376207721992012,-0.02820711,0.0376261297117137));
#674=CARTESIAN_POINT('',(-0.0376207721992012,-0.029,0.0376261297117137));
#675=CARTESIAN_POINT('',(-0.0376207721992012,-0.02820711,-0.0129418038622862));
#676=CARTESIAN_POINT('',(-0.0376207721992012,-0.02820711,-0.0129418038622862));
#677=CARTESIAN_POINT('',(-0.0376207721992012,-0.027,-0.0129418038622862));
#678=CARTESIAN_POINT('',(-0.0376207721992012,-0.029,-0.0129418038622862));
#679=CARTESIAN_POINT('',(-0.0376207721992012,-0.029,0.0123421629247138));
#680=CARTESIAN_POINT('',(-0.0336207719862463,-0.027,-0.0129418038622862));
#681=CARTESIAN_POINT('',(-0.0336207719862463,-0.02820711,-0.0129418038622862));
#682=CARTESIAN_POINT('',(-0.0336207719862462,-0.02820711,-0.0169418040752411));
#683=CARTESIAN_POINT('',(-0.0336207719862462,-0.027,-0.0169418040752411));
#684=CARTESIAN_POINT('',(-0.0336207719862462,-0.029,-0.0169418040752411));
#685=CARTESIAN_POINT('',(-0.0336207719862463,-0.029,-0.0129418038622862));
#686=CARTESIAN_POINT('',(0.00656421530079882,-0.027,-0.0169418040752411));
#687=CARTESIAN_POINT('',(0.0467492025878438,-0.02820711,-0.0169418040752411));
#688=CARTESIAN_POINT('',(0.0467492025878438,-0.02820711,-0.0169418040752411));
#689=CARTESIAN_POINT('',(0.0467492025878438,-0.027,-0.0169418040752411));
#690=CARTESIAN_POINT('',(0.0467492025878438,-0.029,-0.0169418040752411));
#691=CARTESIAN_POINT('',(0.00656421530079882,-0.029,-0.0169418040752411));
#692=CARTESIAN_POINT('',(0.0467492025878438,-0.027,-0.0129418038622861));
#693=CARTESIAN_POINT('',(0.0467492025878438,-0.02820711,-0.0129418038622861));
#694=CARTESIAN_POINT('',(0.0507492028007988,-0.02820711,-0.0129418038622861));
#695=CARTESIAN_POINT('',(0.0507492028007988,-0.027,-0.0129418038622861));
#696=CARTESIAN_POINT('',(0.0507492028007988,-0.029,-0.0129418038622861));
#697=CARTESIAN_POINT('',(0.0467492025878438,-0.029,-0.0129418038622861));
#698=CARTESIAN_POINT('',(0.0507492028007988,-0.027,0.0123421629247252));
#699=CARTESIAN_POINT('',(0.0507492028007988,-0.02820711,0.0376261297117365));
#700=CARTESIAN_POINT('',(0.0507492028007988,-0.02820711,0.0376261297117365));
#701=CARTESIAN_POINT('',(0.0507492028007988,-0.027,0.0376261297117365));
#702=CARTESIAN_POINT('',(0.0507492028007988,-0.029,0.0376261297117365));
#703=CARTESIAN_POINT('',(0.0507492028007988,-0.029,0.0123421629247252));
#704=CARTESIAN_POINT('',(0.0467492025878214,-0.027,0.0376261297117365));
#705=CARTESIAN_POINT('',(0.0467492025878214,-0.02820711,0.0376261297117365));
#706=CARTESIAN_POINT('',(0.0467492025878214,-0.02820711,0.0416261299247139));
#707=CARTESIAN_POINT('',(0.0467492025878214,-0.027,0.0416261299247139));
#708=CARTESIAN_POINT('',(0.0467492025878214,-0.029,0.0416261299247139));
#709=CARTESIAN_POINT('',(0.0467492025878214,-0.029,0.0376261297117365));
#710=CARTESIAN_POINT('',(0.00656421530079891,-0.027,0.0416261299247139));
#711=CARTESIAN_POINT('',(0.00656421530079891,-0.02820711,0.0416261299247139));
#712=CARTESIAN_POINT('',(-0.0336207719862236,-0.02820711,0.0416261299247139));
#713=CARTESIAN_POINT('',(-0.0336207719862236,-0.027,0.0416261299247139));
#714=CARTESIAN_POINT('',(-0.0336207719862236,-0.029,0.0416261299247139));
#715=CARTESIAN_POINT('',(0.00656421530079891,-0.029,0.0416261299247139));
#716=CARTESIAN_POINT('',(-0.033620771986201,-0.027,0.0376261297117137));
#717=CARTESIAN_POINT('',(-0.033620771986201,-0.02820711,0.0376261297117137));
#718=CARTESIAN_POINT('',(-0.033620771986201,-0.029,0.0376261297117137));
#719=CARTESIAN_POINT('',(0.00659960508346554,-0.027,0.0120707470923662));
#720=CARTESIAN_POINT('',(-0.0364136621992012,-0.027,0.0376261297117137));
#721=CARTESIAN_POINT('',(-0.0364136621992012,-0.027,-0.0129418038622862));
#722=CARTESIAN_POINT('',(-0.0364136621992012,-0.027,0.0376261297117137));
#723=CARTESIAN_POINT('',(-0.033620771986201,-0.027,0.0376261297117137));
#724=CARTESIAN_POINT('',(-0.0336207719862167,-0.027,0.0404190199247139));
#725=CARTESIAN_POINT('',(0.00659960508346553,-0.027,0.0404190199247139));
#726=CARTESIAN_POINT('',(0.0467492025878214,-0.027,0.0404190199247139));
#727=CARTESIAN_POINT('',(0.0467492025878214,-0.027,0.0376261297117365));
#728=CARTESIAN_POINT('',(0.0495420928007988,-0.027,0.0376261297117365));
#729=CARTESIAN_POINT('',(0.0495420928007988,-0.027,-0.0129418038622861));
#730=CARTESIAN_POINT('',(0.0495420928007988,-0.027,-0.0129418038622861));
#731=CARTESIAN_POINT('',(0.0467492025878438,-0.027,-0.0129418038622861));
#732=CARTESIAN_POINT('',(0.0467492025878438,-0.027,-0.0157346940752411));
#733=CARTESIAN_POINT('',(-0.0336207719862462,-0.027,-0.0157346940752411));
#734=CARTESIAN_POINT('',(-0.0336207719862462,-0.027,-0.0157346940752411));
#735=CARTESIAN_POINT('',(-0.0336207719862463,-0.027,-0.0129418038622862));
#736=CARTESIAN_POINT('',(0.0561199821531773,-0.033,0.0120707470923662));
#737=CARTESIAN_POINT('',(0.0561199821531773,-0.029,0.0120707470923662));
#738=CARTESIAN_POINT('',(0.0561199821531773,-0.029,0.0406832982599735));
#739=CARTESIAN_POINT('',(0.0561199821531773,-0.029,-0.0165418040752411));
#740=CARTESIAN_POINT('',(0.0561199821531773,-0.033,0.0406832982599735));
#741=CARTESIAN_POINT('',(0.0561199821531773,-0.033,0.0406832982599735));
#742=CARTESIAN_POINT('',(0.0561199821531773,-0.033,0.0120707470923662));
#743=CARTESIAN_POINT('',(0.0561199821531773,-0.033,-0.0165418040752411));
#744=CARTESIAN_POINT('',(0.0561199821531773,-0.033,-0.0165418040752411));
#745=CARTESIAN_POINT('',(0.0511199821531773,-0.033,0.0406832982599735));
#746=CARTESIAN_POINT('',(0.0511199821531773,-0.029,0.0406832982599735));
#747=CARTESIAN_POINT('',(0.0511199821531773,-0.029,0.0456832982599735));
#748=CARTESIAN_POINT('',(0.0511199821531773,-0.033,0.0456832982599735));
#749=CARTESIAN_POINT('',(0.0511199821531773,-0.033,0.0456832982599735));
#750=CARTESIAN_POINT('',(0.0511199821531773,-0.033,0.0406832982599735));
#751=CARTESIAN_POINT('',(0.00659960508346555,-0.033,0.0456832982599735));
#752=CARTESIAN_POINT('',(0.00659960508346555,-0.029,0.0456832982599735));
#753=CARTESIAN_POINT('',(-0.0379207719862462,-0.029,0.0456832982599735));
#754=CARTESIAN_POINT('',(-0.0379207719862462,-0.033,0.0456832982599735));
#755=CARTESIAN_POINT('',(-0.0379207719862462,-0.033,0.0456832982599735));
#756=CARTESIAN_POINT('',(0.00659960508346555,-0.033,0.0456832982599735));
#757=CARTESIAN_POINT('',(-0.0379207719862462,-0.033,0.0406832982599735));
#758=CARTESIAN_POINT('',(-0.0379207719862462,-0.029,0.0406832982599735));
#759=CARTESIAN_POINT('',(-0.0429207719862462,-0.029,0.0406832982599735));
#760=CARTESIAN_POINT('',(-0.0429207719862462,-0.033,0.0406832982599735));
#761=CARTESIAN_POINT('',(-0.0429207719862462,-0.033,0.0406832982599735));
#762=CARTESIAN_POINT('',(-0.0379207719862462,-0.033,0.0406832982599735));
#763=CARTESIAN_POINT('',(-0.0429207719862462,-0.033,0.0120707470923662));
#764=CARTESIAN_POINT('',(-0.0429207719862462,-0.029,0.0120707470923662));
#765=CARTESIAN_POINT('',(-0.0429207719862462,-0.029,-0.0165418040752411));
#766=CARTESIAN_POINT('',(-0.0429207719862462,-0.033,-0.0165418040752411));
#767=CARTESIAN_POINT('',(-0.0429207719862462,-0.033,-0.0165418040752411));
#768=CARTESIAN_POINT('',(-0.0429207719862462,-0.033,0.0120707470923662));
#769=CARTESIAN_POINT('',(-0.0379207719862462,-0.033,-0.0165418040752411));
#770=CARTESIAN_POINT('',(-0.0379207719862462,-0.029,-0.0165418040752411));
#771=CARTESIAN_POINT('',(-0.0379207719862462,-0.029,-0.0215418040752411));
#772=CARTESIAN_POINT('',(-0.0379207719862462,-0.033,-0.0215418040752411));
#773=CARTESIAN_POINT('',(-0.0379207719862462,-0.033,-0.0215418040752411));
#774=CARTESIAN_POINT('',(-0.0379207719862462,-0.033,-0.0165418040752411));
#775=CARTESIAN_POINT('',(0.00659960508346555,-0.033,-0.0215418040752411));
#776=CARTESIAN_POINT('',(0.00659960508346555,-0.029,-0.0215418040752411));
#777=CARTESIAN_POINT('',(0.0511199821531773,-0.029,-0.0215418040752411));
#778=CARTESIAN_POINT('',(0.0511199821531773,-0.033,-0.0215418040752411));
#779=CARTESIAN_POINT('',(0.0511199821531773,-0.033,-0.0215418040752411));
#780=CARTESIAN_POINT('',(0.00659960508346555,-0.033,-0.0215418040752411));
#781=CARTESIAN_POINT('',(0.0511199821531773,-0.033,-0.0165418040752411));
#782=CARTESIAN_POINT('',(0.0511199821531773,-0.029,-0.0165418040752411));
#783=CARTESIAN_POINT('',(0.0511199821531773,-0.033,-0.0165418040752411));
#784=CARTESIAN_POINT('',(0.00659960508346554,-0.029,0.0120707470923662));
#785=CARTESIAN_POINT('',(0.00659960508346554,-0.033,0.0120707470923662));
#786=CARTESIAN_POINT('',(0.0467492025878438,-0.02820711,-0.0129418038622861));
#787=CARTESIAN_POINT('',(0.0467492025878438,-0.02820711,-0.0157346940752411));
#788=CARTESIAN_POINT('',(0.0495420928007988,-0.02820711,-0.0129418038622861));
#789=CARTESIAN_POINT('',(0.0495420928007988,-0.02820711,0.0123421629247252));
#790=CARTESIAN_POINT('',(0.0495420928007988,-0.02820711,0.0376261297117365));
#791=CARTESIAN_POINT('',(0.00656421530079882,-0.02820711,-0.0157346940752411));
#792=CARTESIAN_POINT('',(-0.0336207719862462,-0.02820711,-0.0157346940752411));
#793=CARTESIAN_POINT('',(0.0467492025878214,-0.02820711,0.0376261297117365));
#794=CARTESIAN_POINT('',(0.0467492025878214,-0.02820711,0.0404190199247139));
#795=CARTESIAN_POINT('',(-0.0336207719862463,-0.02820711,-0.0129418038622862));
#796=CARTESIAN_POINT('',(-0.0364136621992012,-0.02820711,-0.0129418038622862));
#797=CARTESIAN_POINT('',(0.00659960508346553,-0.02820711,0.0404190199247139));
#798=CARTESIAN_POINT('',(-0.0336207719862236,-0.02820711,0.0404190199247139));
#799=CARTESIAN_POINT('',(-0.0364136621992012,-0.02820711,0.0123421629247138));
#800=CARTESIAN_POINT('',(-0.0364136621992012,-0.02820711,0.0376261297117137));
#801=CARTESIAN_POINT('',(-0.033620771986201,-0.02820711,0.0376261297117137));
#802=MECHANICAL_DESIGN_GEOMETRIC_PRESENTATION_REPRESENTATION('',(#455),
#803);
#803=(
GEOMETRIC_REPRESENTATION_CONTEXT(3)
GLOBAL_UNCERTAINTY_ASSIGNED_CONTEXT((#804))
GLOBAL_UNIT_ASSIGNED_CONTEXT((#807,#806,#805))
REPRESENTATION_CONTEXT('Part 195','TOP_LEVEL_ASSEMBLY_PART')
);
#804=UNCERTAINTY_MEASURE_WITH_UNIT(LENGTH_MEASURE(1.E-8),#807,
'DISTANCE_ACCURACY_VALUE','Maximum Tolerance applied to model');
#805=(
NAMED_UNIT(*)
SI_UNIT($,.STERADIAN.)
SOLID_ANGLE_UNIT()
);
#806=(
NAMED_UNIT(*)
PLANE_ANGLE_UNIT()
SI_UNIT($,.RADIAN.)
);
#807=(
LENGTH_UNIT()
NAMED_UNIT(*)
SI_UNIT($,.METRE.)
);
#808=PRODUCT_DEFINITION_SHAPE('','',#809);
#809=PRODUCT_DEFINITION('','',#811,#810);
#810=PRODUCT_DEFINITION_CONTEXT('',#817,'design');
#811=PRODUCT_DEFINITION_FORMATION_WITH_SPECIFIED_SOURCE('','',#813,
 .NOT_KNOWN.);
#812=PRODUCT_RELATED_PRODUCT_CATEGORY('','',(#813));
#813=PRODUCT('Part 195','Part 195','Part 195',(#815));
#814=PRODUCT_CATEGORY('','');
#815=PRODUCT_CONTEXT('',#817,'mechanical');
#816=APPLICATION_PROTOCOL_DEFINITION('international standard',
'ap242_managed_model_based_3d_engineering',2020,#817);
#817=APPLICATION_CONTEXT('managed model based 3d engineering');
ENDSEC;
END-ISO-10303-21;
