M48
; DRILL file KiCad 10.0.0 date 2026-08-30T14:06:44
; FORMAT={-:-/ absolute / metric / decimal}
; #@! TF.CreationDate,2026-08-30T14:06:44+01:00
; #@! TF.GenerationSoftware,Kicad,Pcbnew,10.0.0
; #@! TF.FileFunction,Plated,1,2,PTH
FMAT,2
METRIC
; #@! TA.AperFunction,Plated,PTH,ViaDrill
T1C0.300
; #@! TA.AperFunction,Plated,PTH,ComponentDrill
T2C0.850
; #@! TA.AperFunction,Plated,PTH,ComponentDrill
T3C1.000
; #@! TA.AperFunction,Plated,PTH,ComponentDrill
T4C1.100
; #@! TA.AperFunction,Plated,PTH,ComponentDrill
T5C1.500
; #@! TA.AperFunction,Plated,PTH,ComponentDrill
T6C2.600
%
G90
G05
T1
X113.19Y-105.46
X120.69Y-127.46
X126.19Y-105.46
X127.69Y-118.46
X155.19Y-93.96
X155.19Y-95.46
X160.19Y-110.96
X163.19Y-93.96
X165.19Y-92.46
T2
X106.837Y-85.658
X106.837Y-88.198
X106.837Y-90.739
X106.837Y-93.278
X106.837Y-95.819
X106.837Y-98.358
X106.837Y-100.898
X122.078Y-85.658
X122.078Y-88.198
X122.078Y-90.739
X122.078Y-93.278
X122.078Y-95.819
X122.078Y-98.358
X122.078Y-100.898
T3
X128.69Y-83.15
X128.69Y-85.69
X128.69Y-88.23
X128.69Y-90.77
X168.94Y-82.96
X168.94Y-85.46
X168.94Y-87.96
X183.44Y-82.96
X183.44Y-87.96
T4
X106.53Y-108.46
X106.53Y-112.46
X106.61Y-116.46
X106.61Y-120.46
X106.61Y-124.46
X106.61Y-128.46
X116.69Y-108.46
X116.69Y-112.46
X116.77Y-116.46
X116.77Y-120.46
X116.77Y-124.46
X116.77Y-128.46
T5
X132.19Y-101.96
X132.34Y-122.0
X138.54Y-99.42
X138.69Y-119.46
X152.19Y-101.96
X152.19Y-121.96
X158.54Y-99.42
X158.54Y-119.42
X172.15Y-122.04
X172.19Y-101.96
X178.5Y-119.5
X178.54Y-99.42
T6
X176.44Y-79.86
X176.44Y-91.06
M30
