ISO-10303-21;
HEADER;
/* Generated by software containing ST-Developer
 * from STEP Tools, Inc. (www.steptools.com) 
 */
/* OPTION: using custom renumber hook */

FILE_DESCRIPTION(
/* description */ ('STEP AP242 Edition 2',
'CAx-IF Rec.Pracs.---Representation and Presentation of Product Manufa
cturing Information (PMI)---4.0---2014-10-13',
'CAx-IF Rec.Pracs.---3D Tessellated Geometry---0.4---2014-09-14','2;1',
'CAx-IF Rec.Pracs.---User Defined Attributes---1.5---2016-08-15'),
/* implementation_level */ '2;1');

FILE_NAME(
/* name */ 'Assembly 1 - Part 193',
/* time_stamp */ '2026-09-02T13:34:20Z',
/* author */ (''),
/* organization */ (''),
/* preprocessor_version */ 'ST-DEVELOPER v20',
/* originating_system */ 'ONSHAPE BY PTC INC, 1.220',
/* authorisation */ '  ');

FILE_SCHEMA (('AP242_MANAGED_MODEL_BASED_3D_ENGINEERING_MIM_LF { 1 0 10303 442 3 1 4 }'));
ENDSEC;

DATA;
#10=SHAPE_REPRESENTATION_RELATIONSHIP('','',#429,#11);
#11=ADVANCED_BREP_SHAPE_REPRESENTATION('',(#427),#719);
#12=CYLINDRICAL_SURFACE('',#435,0.005);
#13=CYLINDRICAL_SURFACE('',#441,0.005);
#14=CYLINDRICAL_SURFACE('',#445,0.005);
#15=CYLINDRICAL_SURFACE('',#449,0.00440000021297739);
#16=CYLINDRICAL_SURFACE('',#453,0.004400000212955);
#17=CYLINDRICAL_SURFACE('',#456,0.0044000002129549);
#18=CYLINDRICAL_SURFACE('',#460,0.00440000021300017);
#19=CYLINDRICAL_SURFACE('',#464,0.005);
#20=CYLINDRICAL_SURFACE('',#470,0.00196228783265683);
#21=CYLINDRICAL_SURFACE('',#471,0.00199733616447878);
#22=LINE('',#601,#62);
#23=LINE('',#605,#63);
#24=LINE('',#607,#64);
#25=LINE('',#609,#65);
#26=LINE('',#611,#66);
#27=LINE('',#613,#67);
#28=LINE('',#615,#68);
#29=LINE('',#618,#69);
#30=LINE('',#620,#70);
#31=LINE('',#622,#71);
#32=LINE('',#628,#72);
#33=LINE('',#633,#73);
#34=LINE('',#635,#74);
#35=LINE('',#637,#75);
#36=LINE('',#638,#76);
#37=LINE('',#642,#77);
#38=LINE('',#648,#78);
#39=LINE('',#650,#79);
#40=LINE('',#652,#80);
#41=LINE('',#654,#81);
#42=LINE('',#660,#82);
#43=LINE('',#662,#83);
#44=LINE('',#664,#84);
#45=LINE('',#666,#85);
#46=LINE('',#671,#86);
#47=LINE('',#675,#87);
#48=LINE('',#677,#88);
#49=LINE('',#679,#89);
#50=LINE('',#681,#90);
#51=LINE('',#690,#91);
#52=LINE('',#692,#92);
#53=LINE('',#694,#93);
#54=LINE('',#696,#94);
#55=LINE('',#702,#95);
#56=LINE('',#704,#96);
#57=LINE('',#705,#97);
#58=LINE('',#710,#98);
#59=LINE('',#711,#99);
#60=LINE('',#714,#100);
#61=LINE('',#715,#101);
#62=VECTOR('',#478,1.);
#63=VECTOR('',#481,1.);
#64=VECTOR('',#482,1.);
#65=VECTOR('',#483,1.);
#66=VECTOR('',#484,1.);
#67=VECTOR('',#485,1.);
#68=VECTOR('',#488,1.);
#69=VECTOR('',#489,1.);
#70=VECTOR('',#490,1.);
#71=VECTOR('',#491,1.);
#72=VECTOR('',#498,1.);
#73=VECTOR('',#503,1.);
#74=VECTOR('',#504,1.);
#75=VECTOR('',#505,1.);
#76=VECTOR('',#506,1.);
#77=VECTOR('',#509,1.);
#78=VECTOR('',#516,1.);
#79=VECTOR('',#519,1.);
#80=VECTOR('',#520,1.);
#81=VECTOR('',#521,1.);
#82=VECTOR('',#528,1.);
#83=VECTOR('',#531,1.);
#84=VECTOR('',#532,1.);
#85=VECTOR('',#533,1.);
#86=VECTOR('',#538,1.);
#87=VECTOR('',#541,1.);
#88=VECTOR('',#544,1.);
#89=VECTOR('',#545,1.);
#90=VECTOR('',#546,1.);
#91=VECTOR('',#559,1.);
#92=VECTOR('',#562,1.);
#93=VECTOR('',#563,1.);
#94=VECTOR('',#564,1.);
#95=VECTOR('',#571,1.);
#96=VECTOR('',#574,1.);
#97=VECTOR('',#575,1.);
#98=VECTOR('',#584,1.);
#99=VECTOR('',#585,1.);
#100=VECTOR('',#590,1.);
#101=VECTOR('',#591,1.);
#102=ORIENTED_EDGE('',*,*,#222,.F.);
#103=ORIENTED_EDGE('',*,*,#223,.T.);
#104=ORIENTED_EDGE('',*,*,#224,.F.);
#105=ORIENTED_EDGE('',*,*,#225,.F.);
#106=ORIENTED_EDGE('',*,*,#226,.T.);
#107=ORIENTED_EDGE('',*,*,#227,.T.);
#108=ORIENTED_EDGE('',*,*,#228,.F.);
#109=ORIENTED_EDGE('',*,*,#229,.F.);
#110=ORIENTED_EDGE('',*,*,#230,.F.);
#111=ORIENTED_EDGE('',*,*,#231,.F.);
#112=ORIENTED_EDGE('',*,*,#232,.T.);
#113=ORIENTED_EDGE('',*,*,#233,.T.);
#114=ORIENTED_EDGE('',*,*,#234,.F.);
#115=ORIENTED_EDGE('',*,*,#233,.F.);
#116=ORIENTED_EDGE('',*,*,#235,.T.);
#117=ORIENTED_EDGE('',*,*,#236,.T.);
#118=ORIENTED_EDGE('',*,*,#237,.F.);
#119=ORIENTED_EDGE('',*,*,#238,.T.);
#120=ORIENTED_EDGE('',*,*,#239,.T.);
#121=ORIENTED_EDGE('',*,*,#240,.F.);
#122=ORIENTED_EDGE('',*,*,#236,.F.);
#123=ORIENTED_EDGE('',*,*,#241,.T.);
#124=ORIENTED_EDGE('',*,*,#242,.F.);
#125=ORIENTED_EDGE('',*,*,#243,.T.);
#126=ORIENTED_EDGE('',*,*,#244,.F.);
#127=ORIENTED_EDGE('',*,*,#239,.F.);
#128=ORIENTED_EDGE('',*,*,#245,.T.);
#129=ORIENTED_EDGE('',*,*,#246,.T.);
#130=ORIENTED_EDGE('',*,*,#247,.T.);
#131=ORIENTED_EDGE('',*,*,#246,.F.);
#132=ORIENTED_EDGE('',*,*,#248,.F.);
#133=ORIENTED_EDGE('',*,*,#249,.T.);
#134=ORIENTED_EDGE('',*,*,#250,.F.);
#135=ORIENTED_EDGE('',*,*,#249,.F.);
#136=ORIENTED_EDGE('',*,*,#251,.T.);
#137=ORIENTED_EDGE('',*,*,#252,.T.);
#138=ORIENTED_EDGE('',*,*,#253,.T.);
#139=ORIENTED_EDGE('',*,*,#252,.F.);
#140=ORIENTED_EDGE('',*,*,#254,.F.);
#141=ORIENTED_EDGE('',*,*,#255,.T.);
#142=ORIENTED_EDGE('',*,*,#256,.T.);
#143=ORIENTED_EDGE('',*,*,#257,.F.);
#144=ORIENTED_EDGE('',*,*,#258,.F.);
#145=ORIENTED_EDGE('',*,*,#259,.T.);
#146=ORIENTED_EDGE('',*,*,#260,.T.);
#147=ORIENTED_EDGE('',*,*,#259,.F.);
#148=ORIENTED_EDGE('',*,*,#261,.F.);
#149=ORIENTED_EDGE('',*,*,#262,.T.);
#150=ORIENTED_EDGE('',*,*,#263,.T.);
#151=ORIENTED_EDGE('',*,*,#262,.F.);
#152=ORIENTED_EDGE('',*,*,#264,.F.);
#153=ORIENTED_EDGE('',*,*,#228,.T.);
#154=ORIENTED_EDGE('',*,*,#265,.T.);
#155=ORIENTED_EDGE('',*,*,#226,.F.);
#156=ORIENTED_EDGE('',*,*,#266,.F.);
#157=ORIENTED_EDGE('',*,*,#267,.T.);
#158=ORIENTED_EDGE('',*,*,#268,.T.);
#159=ORIENTED_EDGE('',*,*,#267,.F.);
#160=ORIENTED_EDGE('',*,*,#269,.F.);
#161=ORIENTED_EDGE('',*,*,#270,.T.);
#162=ORIENTED_EDGE('',*,*,#271,.T.);
#163=ORIENTED_EDGE('',*,*,#270,.F.);
#164=ORIENTED_EDGE('',*,*,#272,.F.);
#165=ORIENTED_EDGE('',*,*,#273,.T.);
#166=ORIENTED_EDGE('',*,*,#274,.F.);
#167=ORIENTED_EDGE('',*,*,#273,.F.);
#168=ORIENTED_EDGE('',*,*,#275,.T.);
#169=ORIENTED_EDGE('',*,*,#257,.T.);
#170=ORIENTED_EDGE('',*,*,#276,.F.);
#171=ORIENTED_EDGE('',*,*,#255,.F.);
#172=ORIENTED_EDGE('',*,*,#277,.T.);
#173=ORIENTED_EDGE('',*,*,#231,.T.);
#174=ORIENTED_EDGE('',*,*,#238,.F.);
#175=ORIENTED_EDGE('',*,*,#278,.T.);
#176=ORIENTED_EDGE('',*,*,#229,.T.);
#177=ORIENTED_EDGE('',*,*,#264,.T.);
#178=ORIENTED_EDGE('',*,*,#261,.T.);
#179=ORIENTED_EDGE('',*,*,#258,.T.);
#180=ORIENTED_EDGE('',*,*,#275,.F.);
#181=ORIENTED_EDGE('',*,*,#272,.T.);
#182=ORIENTED_EDGE('',*,*,#269,.T.);
#183=ORIENTED_EDGE('',*,*,#266,.T.);
#184=ORIENTED_EDGE('',*,*,#225,.T.);
#185=ORIENTED_EDGE('',*,*,#279,.F.);
#186=ORIENTED_EDGE('',*,*,#241,.F.);
#187=ORIENTED_EDGE('',*,*,#235,.F.);
#188=ORIENTED_EDGE('',*,*,#232,.F.);
#189=ORIENTED_EDGE('',*,*,#277,.F.);
#190=ORIENTED_EDGE('',*,*,#254,.T.);
#191=ORIENTED_EDGE('',*,*,#251,.F.);
#192=ORIENTED_EDGE('',*,*,#248,.T.);
#193=ORIENTED_EDGE('',*,*,#245,.F.);
#194=ORIENTED_EDGE('',*,*,#256,.F.);
#195=ORIENTED_EDGE('',*,*,#260,.F.);
#196=ORIENTED_EDGE('',*,*,#263,.F.);
#197=ORIENTED_EDGE('',*,*,#227,.F.);
#198=ORIENTED_EDGE('',*,*,#265,.F.);
#199=ORIENTED_EDGE('',*,*,#268,.F.);
#200=ORIENTED_EDGE('',*,*,#271,.F.);
#201=ORIENTED_EDGE('',*,*,#274,.T.);
#202=ORIENTED_EDGE('',*,*,#230,.T.);
#203=ORIENTED_EDGE('',*,*,#234,.T.);
#204=ORIENTED_EDGE('',*,*,#240,.T.);
#205=ORIENTED_EDGE('',*,*,#244,.T.);
#206=ORIENTED_EDGE('',*,*,#247,.F.);
#207=ORIENTED_EDGE('',*,*,#250,.T.);
#208=ORIENTED_EDGE('',*,*,#253,.F.);
#209=ORIENTED_EDGE('',*,*,#276,.T.);
#210=ORIENTED_EDGE('',*,*,#280,.T.);
#211=ORIENTED_EDGE('',*,*,#223,.F.);
#212=ORIENTED_EDGE('',*,*,#281,.F.);
#213=ORIENTED_EDGE('',*,*,#243,.F.);
#214=ORIENTED_EDGE('',*,*,#237,.T.);
#215=ORIENTED_EDGE('',*,*,#281,.T.);
#216=ORIENTED_EDGE('',*,*,#222,.T.);
#217=ORIENTED_EDGE('',*,*,#278,.F.);
#218=ORIENTED_EDGE('',*,*,#242,.T.);
#219=ORIENTED_EDGE('',*,*,#279,.T.);
#220=ORIENTED_EDGE('',*,*,#224,.T.);
#221=ORIENTED_EDGE('',*,*,#280,.F.);
#222=EDGE_CURVE('',#282,#283,#322,.T.);
#223=EDGE_CURVE('',#282,#284,#22,.T.);
#224=EDGE_CURVE('',#285,#284,#323,.T.);
#225=EDGE_CURVE('',#286,#285,#23,.T.);
#226=EDGE_CURVE('',#286,#287,#24,.T.);
#227=EDGE_CURVE('',#287,#288,#25,.T.);
#228=EDGE_CURVE('',#289,#288,#26,.T.);
#229=EDGE_CURVE('',#283,#289,#27,.T.);
#230=EDGE_CURVE('',#290,#291,#28,.T.);
#231=EDGE_CURVE('',#292,#290,#29,.T.);
#232=EDGE_CURVE('',#292,#293,#30,.T.);
#233=EDGE_CURVE('',#293,#291,#31,.T.);
#234=EDGE_CURVE('',#291,#294,#324,.T.);
#235=EDGE_CURVE('',#293,#295,#325,.T.);
#236=EDGE_CURVE('',#295,#294,#32,.T.);
#237=EDGE_CURVE('',#296,#297,#326,.T.);
#238=EDGE_CURVE('',#296,#298,#33,.T.);
#239=EDGE_CURVE('',#298,#299,#34,.T.);
#240=EDGE_CURVE('',#294,#299,#35,.T.);
#241=EDGE_CURVE('',#295,#300,#36,.T.);
#242=EDGE_CURVE('',#301,#300,#327,.T.);
#243=EDGE_CURVE('',#301,#297,#37,.T.);
#244=EDGE_CURVE('',#299,#302,#328,.T.);
#245=EDGE_CURVE('',#298,#303,#329,.T.);
#246=EDGE_CURVE('',#303,#302,#38,.T.);
#247=EDGE_CURVE('',#304,#302,#39,.T.);
#248=EDGE_CURVE('',#305,#303,#40,.T.);
#249=EDGE_CURVE('',#305,#304,#41,.T.);
#250=EDGE_CURVE('',#304,#306,#330,.T.);
#251=EDGE_CURVE('',#305,#307,#331,.T.);
#252=EDGE_CURVE('',#307,#306,#42,.T.);
#253=EDGE_CURVE('',#308,#306,#43,.T.);
#254=EDGE_CURVE('',#309,#307,#44,.T.);
#255=EDGE_CURVE('',#309,#308,#45,.T.);
#256=EDGE_CURVE('',#310,#311,#332,.T.);
#257=EDGE_CURVE('',#312,#311,#46,.T.);
#258=EDGE_CURVE('',#313,#312,#333,.T.);
#259=EDGE_CURVE('',#313,#310,#47,.T.);
#260=EDGE_CURVE('',#314,#310,#48,.T.);
#261=EDGE_CURVE('',#315,#313,#49,.T.);
#262=EDGE_CURVE('',#315,#314,#50,.T.);
#263=EDGE_CURVE('',#288,#314,#334,.T.);
#264=EDGE_CURVE('',#289,#315,#335,.T.);
#265=EDGE_CURVE('',#316,#287,#336,.T.);
#266=EDGE_CURVE('',#317,#286,#337,.T.);
#267=EDGE_CURVE('',#317,#316,#51,.T.);
#268=EDGE_CURVE('',#318,#316,#52,.T.);
#269=EDGE_CURVE('',#319,#317,#53,.T.);
#270=EDGE_CURVE('',#319,#318,#54,.T.);
#271=EDGE_CURVE('',#320,#318,#338,.T.);
#272=EDGE_CURVE('',#321,#319,#339,.T.);
#273=EDGE_CURVE('',#321,#320,#55,.T.);
#274=EDGE_CURVE('',#320,#311,#56,.T.);
#275=EDGE_CURVE('',#321,#312,#57,.T.);
#276=EDGE_CURVE('',#308,#290,#340,.T.);
#277=EDGE_CURVE('',#309,#292,#341,.T.);
#278=EDGE_CURVE('',#296,#283,#58,.T.);
#279=EDGE_CURVE('',#300,#285,#59,.T.);
#280=EDGE_CURVE('',#301,#284,#60,.T.);
#281=EDGE_CURVE('',#297,#282,#61,.T.);
#282=VERTEX_POINT('',#599);
#283=VERTEX_POINT('',#600);
#284=VERTEX_POINT('',#602);
#285=VERTEX_POINT('',#604);
#286=VERTEX_POINT('',#606);
#287=VERTEX_POINT('',#608);
#288=VERTEX_POINT('',#610);
#289=VERTEX_POINT('',#612);
#290=VERTEX_POINT('',#616);
#291=VERTEX_POINT('',#617);
#292=VERTEX_POINT('',#619);
#293=VERTEX_POINT('',#621);
#294=VERTEX_POINT('',#625);
#295=VERTEX_POINT('',#627);
#296=VERTEX_POINT('',#631);
#297=VERTEX_POINT('',#632);
#298=VERTEX_POINT('',#634);
#299=VERTEX_POINT('',#636);
#300=VERTEX_POINT('',#639);
#301=VERTEX_POINT('',#641);
#302=VERTEX_POINT('',#645);
#303=VERTEX_POINT('',#647);
#304=VERTEX_POINT('',#651);
#305=VERTEX_POINT('',#653);
#306=VERTEX_POINT('',#657);
#307=VERTEX_POINT('',#659);
#308=VERTEX_POINT('',#663);
#309=VERTEX_POINT('',#665);
#310=VERTEX_POINT('',#669);
#311=VERTEX_POINT('',#670);
#312=VERTEX_POINT('',#672);
#313=VERTEX_POINT('',#674);
#314=VERTEX_POINT('',#678);
#315=VERTEX_POINT('',#680);
#316=VERTEX_POINT('',#687);
#317=VERTEX_POINT('',#689);
#318=VERTEX_POINT('',#693);
#319=VERTEX_POINT('',#695);
#320=VERTEX_POINT('',#699);
#321=VERTEX_POINT('',#701);
#322=CIRCLE('',#432,0.00196228783265683);
#323=CIRCLE('',#433,0.00199733616447878);
#324=CIRCLE('',#436,0.005);
#325=CIRCLE('',#437,0.005);
#326=CIRCLE('',#439,0.00196228783265683);
#327=CIRCLE('',#440,0.00199733616447878);
#328=CIRCLE('',#442,0.005);
#329=CIRCLE('',#443,0.005);
#330=CIRCLE('',#446,0.005);
#331=CIRCLE('',#447,0.005);
#332=CIRCLE('',#450,0.00440000021297739);
#333=CIRCLE('',#451,0.00440000021297739);
#334=CIRCLE('',#454,0.004400000212955);
#335=CIRCLE('',#455,0.004400000212955);
#336=CIRCLE('',#457,0.0044000002129549);
#337=CIRCLE('',#458,0.0044000002129549);
#338=CIRCLE('',#461,0.00440000021300017);
#339=CIRCLE('',#462,0.00440000021300017);
#340=CIRCLE('',#465,0.005);
#341=CIRCLE('',#466,0.005);
#342=EDGE_LOOP('',(#102,#103,#104,#105,#106,#107,#108,#109));
#343=EDGE_LOOP('',(#110,#111,#112,#113));
#344=EDGE_LOOP('',(#114,#115,#116,#117));
#345=EDGE_LOOP('',(#118,#119,#120,#121,#122,#123,#124,#125));
#346=EDGE_LOOP('',(#126,#127,#128,#129));
#347=EDGE_LOOP('',(#130,#131,#132,#133));
#348=EDGE_LOOP('',(#134,#135,#136,#137));
#349=EDGE_LOOP('',(#138,#139,#140,#141));
#350=EDGE_LOOP('',(#142,#143,#144,#145));
#351=EDGE_LOOP('',(#146,#147,#148,#149));
#352=EDGE_LOOP('',(#150,#151,#152,#153));
#353=EDGE_LOOP('',(#154,#155,#156,#157));
#354=EDGE_LOOP('',(#158,#159,#160,#161));
#355=EDGE_LOOP('',(#162,#163,#164,#165));
#356=EDGE_LOOP('',(#166,#167,#168,#169));
#357=EDGE_LOOP('',(#170,#171,#172,#173));
#358=EDGE_LOOP('',(#174,#175,#176,#177,#178,#179,#180,#181,#182,#183,#184,
#185,#186,#187,#188,#189,#190,#191,#192,#193));
#359=EDGE_LOOP('',(#194,#195,#196,#197,#198,#199,#200,#201));
#360=EDGE_LOOP('',(#202,#203,#204,#205,#206,#207,#208,#209));
#361=EDGE_LOOP('',(#210,#211,#212,#213));
#362=EDGE_LOOP('',(#214,#215,#216,#217));
#363=EDGE_LOOP('',(#218,#219,#220,#221));
#364=FACE_BOUND('',#342,.T.);
#365=FACE_BOUND('',#343,.T.);
#366=FACE_BOUND('',#344,.T.);
#367=FACE_BOUND('',#345,.T.);
#368=FACE_BOUND('',#346,.T.);
#369=FACE_BOUND('',#347,.T.);
#370=FACE_BOUND('',#348,.T.);
#371=FACE_BOUND('',#349,.T.);
#372=FACE_BOUND('',#350,.T.);
#373=FACE_BOUND('',#351,.T.);
#374=FACE_BOUND('',#352,.T.);
#375=FACE_BOUND('',#353,.T.);
#376=FACE_BOUND('',#354,.T.);
#377=FACE_BOUND('',#355,.T.);
#378=FACE_BOUND('',#356,.T.);
#379=FACE_BOUND('',#357,.T.);
#380=FACE_BOUND('',#358,.T.);
#381=FACE_BOUND('',#359,.T.);
#382=FACE_BOUND('',#360,.T.);
#383=FACE_BOUND('',#361,.T.);
#384=FACE_BOUND('',#362,.T.);
#385=FACE_BOUND('',#363,.T.);
#386=PLANE('',#431);
#387=PLANE('',#434);
#388=PLANE('',#438);
#389=PLANE('',#444);
#390=PLANE('',#448);
#391=PLANE('',#452);
#392=PLANE('',#459);
#393=PLANE('',#463);
#394=PLANE('',#467);
#395=PLANE('',#468);
#396=PLANE('',#469);
#397=ADVANCED_FACE('',(#364),#386,.F.);
#398=ADVANCED_FACE('',(#365),#387,.T.);
#399=ADVANCED_FACE('',(#366),#12,.T.);
#400=ADVANCED_FACE('',(#367),#388,.T.);
#401=ADVANCED_FACE('',(#368),#13,.T.);
#402=ADVANCED_FACE('',(#369),#389,.F.);
#403=ADVANCED_FACE('',(#370),#14,.T.);
#404=ADVANCED_FACE('',(#371),#390,.F.);
#405=ADVANCED_FACE('',(#372),#15,.F.);
#406=ADVANCED_FACE('',(#373),#391,.F.);
#407=ADVANCED_FACE('',(#374),#16,.F.);
#408=ADVANCED_FACE('',(#375),#17,.F.);
#409=ADVANCED_FACE('',(#376),#392,.F.);
#410=ADVANCED_FACE('',(#377),#18,.F.);
#411=ADVANCED_FACE('',(#378),#393,.T.);
#412=ADVANCED_FACE('',(#379),#19,.T.);
#413=ADVANCED_FACE('',(#380),#394,.F.);
#414=ADVANCED_FACE('',(#381,#382),#395,.T.);
#415=ADVANCED_FACE('',(#383),#396,.T.);
#416=ADVANCED_FACE('',(#384),#20,.F.);
#417=ADVANCED_FACE('',(#385),#21,.F.);
#418=CLOSED_SHELL('',(#397,#398,#399,#400,#401,#402,#403,#404,#405,#406,
#407,#408,#409,#410,#411,#412,#413,#414,#415,#416,#417));
#419=STYLED_ITEM('',(#420),#427);
#420=PRESENTATION_STYLE_ASSIGNMENT((#421));
#421=SURFACE_STYLE_USAGE(.BOTH.,#422);
#422=SURFACE_SIDE_STYLE('',(#423));
#423=SURFACE_STYLE_FILL_AREA(#424);
#424=FILL_AREA_STYLE('',(#425));
#425=FILL_AREA_STYLE_COLOUR('',#426);
#426=COLOUR_RGB('',0.901960784313726,0.901960784313726,0.901960784313726);
#427=MANIFOLD_SOLID_BREP('Part 193',#418);
#428=SHAPE_DEFINITION_REPRESENTATION(#724,#429);
#429=SHAPE_REPRESENTATION('Part 193',(#430),#719);
#430=AXIS2_PLACEMENT_3D('',#596,#472,#473);
#431=AXIS2_PLACEMENT_3D('',#597,#474,#475);
#432=AXIS2_PLACEMENT_3D('',#598,#476,#477);
#433=AXIS2_PLACEMENT_3D('',#603,#479,#480);
#434=AXIS2_PLACEMENT_3D('',#614,#486,#487);
#435=AXIS2_PLACEMENT_3D('',#623,#492,#493);
#436=AXIS2_PLACEMENT_3D('',#624,#494,#495);
#437=AXIS2_PLACEMENT_3D('',#626,#496,#497);
#438=AXIS2_PLACEMENT_3D('',#629,#499,#500);
#439=AXIS2_PLACEMENT_3D('',#630,#501,#502);
#440=AXIS2_PLACEMENT_3D('',#640,#507,#508);
#441=AXIS2_PLACEMENT_3D('',#643,#510,#511);
#442=AXIS2_PLACEMENT_3D('',#644,#512,#513);
#443=AXIS2_PLACEMENT_3D('',#646,#514,#515);
#444=AXIS2_PLACEMENT_3D('',#649,#517,#518);
#445=AXIS2_PLACEMENT_3D('',#655,#522,#523);
#446=AXIS2_PLACEMENT_3D('',#656,#524,#525);
#447=AXIS2_PLACEMENT_3D('',#658,#526,#527);
#448=AXIS2_PLACEMENT_3D('',#661,#529,#530);
#449=AXIS2_PLACEMENT_3D('',#667,#534,#535);
#450=AXIS2_PLACEMENT_3D('',#668,#536,#537);
#451=AXIS2_PLACEMENT_3D('',#673,#539,#540);
#452=AXIS2_PLACEMENT_3D('',#676,#542,#543);
#453=AXIS2_PLACEMENT_3D('',#682,#547,#548);
#454=AXIS2_PLACEMENT_3D('',#683,#549,#550);
#455=AXIS2_PLACEMENT_3D('',#684,#551,#552);
#456=AXIS2_PLACEMENT_3D('',#685,#553,#554);
#457=AXIS2_PLACEMENT_3D('',#686,#555,#556);
#458=AXIS2_PLACEMENT_3D('',#688,#557,#558);
#459=AXIS2_PLACEMENT_3D('',#691,#560,#561);
#460=AXIS2_PLACEMENT_3D('',#697,#565,#566);
#461=AXIS2_PLACEMENT_3D('',#698,#567,#568);
#462=AXIS2_PLACEMENT_3D('',#700,#569,#570);
#463=AXIS2_PLACEMENT_3D('',#703,#572,#573);
#464=AXIS2_PLACEMENT_3D('',#706,#576,#577);
#465=AXIS2_PLACEMENT_3D('',#707,#578,#579);
#466=AXIS2_PLACEMENT_3D('',#708,#580,#581);
#467=AXIS2_PLACEMENT_3D('',#709,#582,#583);
#468=AXIS2_PLACEMENT_3D('',#712,#586,#587);
#469=AXIS2_PLACEMENT_3D('',#713,#588,#589);
#470=AXIS2_PLACEMENT_3D('',#716,#592,#593);
#471=AXIS2_PLACEMENT_3D('',#717,#594,#595);
#472=DIRECTION('',(0.,0.,1.));
#473=DIRECTION('',(1.,0.,0.));
#474=DIRECTION('',(0.,0.,-1.));
#475=DIRECTION('',(0.,1.,0.));
#476=DIRECTION('',(0.,0.,1.));
#477=DIRECTION('',(0.,-1.,0.));
#478=DIRECTION('',(-1.,0.,0.));
#479=DIRECTION('',(0.,0.,1.));
#480=DIRECTION('',(0.,-1.,0.));
#481=DIRECTION('',(1.,0.,0.));
#482=DIRECTION('',(0.,-1.,0.));
#483=DIRECTION('',(1.,0.,0.));
#484=DIRECTION('',(0.,-1.,0.));
#485=DIRECTION('',(1.,0.,0.));
#486=DIRECTION('',(-1.,0.,0.));
#487=DIRECTION('',(0.,1.,0.));
#488=DIRECTION('',(0.,0.,-1.));
#489=DIRECTION('',(0.,-1.,0.));
#490=DIRECTION('',(0.,0.,-1.));
#491=DIRECTION('',(0.,-1.,0.));
#492=DIRECTION('',(0.,-1.,0.));
#493=DIRECTION('',(-1.,0.,0.));
#494=DIRECTION('',(0.,-1.,0.));
#495=DIRECTION('',(-1.,0.,0.));
#496=DIRECTION('',(0.,-1.,0.));
#497=DIRECTION('',(-1.,0.,0.));
#498=DIRECTION('',(0.,-1.,0.));
#499=DIRECTION('',(0.,0.,-1.));
#500=DIRECTION('',(0.,1.,0.));
#501=DIRECTION('',(0.,0.,-1.));
#502=DIRECTION('',(0.,1.,0.));
#503=DIRECTION('',(1.,0.,0.));
#504=DIRECTION('',(0.,-1.,0.));
#505=DIRECTION('',(1.,0.,0.));
#506=DIRECTION('',(1.,0.,0.));
#507=DIRECTION('',(0.,0.,-1.));
#508=DIRECTION('',(0.,1.,0.));
#509=DIRECTION('',(1.,0.,0.));
#510=DIRECTION('',(0.,-1.,0.));
#511=DIRECTION('',(-1.,0.,0.));
#512=DIRECTION('',(0.,-1.,0.));
#513=DIRECTION('',(-1.,0.,0.));
#514=DIRECTION('',(0.,-1.,0.));
#515=DIRECTION('',(-1.,0.,0.));
#516=DIRECTION('',(0.,-1.,0.));
#517=DIRECTION('',(-1.,0.,0.));
#518=DIRECTION('',(0.,1.,0.));
#519=DIRECTION('',(0.,0.,-1.));
#520=DIRECTION('',(0.,0.,-1.));
#521=DIRECTION('',(0.,-1.,0.));
#522=DIRECTION('',(0.,-1.,0.));
#523=DIRECTION('',(-1.,0.,0.));
#524=DIRECTION('',(0.,-1.,0.));
#525=DIRECTION('',(-1.,0.,0.));
#526=DIRECTION('',(0.,-1.,0.));
#527=DIRECTION('',(-1.,0.,0.));
#528=DIRECTION('',(0.,-1.,0.));
#529=DIRECTION('',(0.,0.,-1.));
#530=DIRECTION('',(0.,1.,0.));
#531=DIRECTION('',(1.,0.,0.));
#532=DIRECTION('',(1.,0.,0.));
#533=DIRECTION('',(0.,-1.,0.));
#534=DIRECTION('',(0.,-1.,0.));
#535=DIRECTION('',(-1.,0.,0.));
#536=DIRECTION('',(0.,-1.,0.));
#537=DIRECTION('',(-1.,0.,0.));
#538=DIRECTION('',(0.,-1.,0.));
#539=DIRECTION('',(0.,-1.,0.));
#540=DIRECTION('',(-1.,0.,0.));
#541=DIRECTION('',(0.,-1.,0.));
#542=DIRECTION('',(1.,0.,0.));
#543=DIRECTION('',(0.,-1.,0.));
#544=DIRECTION('',(0.,0.,1.));
#545=DIRECTION('',(0.,0.,1.));
#546=DIRECTION('',(0.,-1.,0.));
#547=DIRECTION('',(0.,-1.,0.));
#548=DIRECTION('',(-1.,0.,0.));
#549=DIRECTION('',(0.,-1.,0.));
#550=DIRECTION('',(-1.,0.,0.));
#551=DIRECTION('',(0.,-1.,0.));
#552=DIRECTION('',(-1.,0.,0.));
#553=DIRECTION('',(0.,-1.,0.));
#554=DIRECTION('',(-1.,0.,0.));
#555=DIRECTION('',(0.,-1.,0.));
#556=DIRECTION('',(-1.,0.,0.));
#557=DIRECTION('',(0.,-1.,0.));
#558=DIRECTION('',(-1.,0.,0.));
#559=DIRECTION('',(0.,-1.,0.));
#560=DIRECTION('',(-1.,0.,0.));
#561=DIRECTION('',(0.,1.,0.));
#562=DIRECTION('',(0.,0.,-1.));
#563=DIRECTION('',(0.,0.,-1.));
#564=DIRECTION('',(0.,-1.,0.));
#565=DIRECTION('',(0.,-1.,0.));
#566=DIRECTION('',(-1.,0.,0.));
#567=DIRECTION('',(0.,-1.,0.));
#568=DIRECTION('',(-1.,0.,0.));
#569=DIRECTION('',(0.,-1.,0.));
#570=DIRECTION('',(-1.,0.,0.));
#571=DIRECTION('',(0.,-1.,0.));
#572=DIRECTION('',(1.72673786216331E-16,0.,-1.));
#573=DIRECTION('',(-1.,0.,-1.72673786216331E-16));
#574=DIRECTION('',(1.,0.,1.72673786216331E-16));
#575=DIRECTION('',(1.,0.,1.72673786216331E-16));
#576=DIRECTION('',(0.,-1.,0.));
#577=DIRECTION('',(-1.,0.,0.));
#578=DIRECTION('',(0.,-1.,0.));
#579=DIRECTION('',(-1.,0.,0.));
#580=DIRECTION('',(0.,-1.,0.));
#581=DIRECTION('',(-1.,0.,0.));
#582=DIRECTION('',(0.,-1.,0.));
#583=DIRECTION('',(1.,0.,0.));
#584=DIRECTION('',(0.,0.,1.));
#585=DIRECTION('',(0.,0.,1.));
#586=DIRECTION('',(0.,-1.,0.));
#587=DIRECTION('',(1.,0.,0.));
#588=DIRECTION('',(0.,1.,0.));
#589=DIRECTION('',(1.,0.,0.));
#590=DIRECTION('',(0.,0.,1.));
#591=DIRECTION('',(0.,0.,1.));
#592=DIRECTION('',(0.,0.,1.));
#593=DIRECTION('',(0.,-1.,0.));
#594=DIRECTION('',(0.,0.,1.));
#595=DIRECTION('',(0.,-1.,0.));
#596=CARTESIAN_POINT('',(0.,0.,0.));
#597=CARTESIAN_POINT('',(0.00656421530079882,0.002,-0.0173418040752411));
#598=CARTESIAN_POINT('',(-0.0193461457250406,0.000241246482127515,-0.0173418040752411));
#599=CARTESIAN_POINT('',(-0.0190100595355034,-0.00169204594567418,-0.0173418040752411));
#600=CARTESIAN_POINT('',(-0.0184758816262957,0.002,-0.0173418040752411));
#601=CARTESIAN_POINT('',(-0.0226641967892647,-0.00169204594567418,-0.0173418040752411));
#602=CARTESIAN_POINT('',(-0.0263183340430259,-0.00169204594567419,-0.0173418040752411));
#603=CARTESIAN_POINT('',(-0.0256579777694425,0.000192969000121703,-0.0173418040752411));
#604=CARTESIAN_POINT('',(-0.0265088542113621,0.002,-0.0173418040752411));
#605=CARTESIAN_POINT('',(0.00656421530079882,0.002,-0.0173418040752411));
#606=CARTESIAN_POINT('',(-0.0336207719862462,0.002,-0.0173418040752411));
#607=CARTESIAN_POINT('',(-0.0336207719862462,0.002,-0.0173418040752411));
#608=CARTESIAN_POINT('',(-0.0336207719862462,-0.013,-0.0173418040752411));
#609=CARTESIAN_POINT('',(0.00656421530079882,-0.013,-0.0173418040752411));
#610=CARTESIAN_POINT('',(0.0467492025878438,-0.013,-0.0173418040752411));
#611=CARTESIAN_POINT('',(0.0467492025878438,0.002,-0.0173418040752411));
#612=CARTESIAN_POINT('',(0.0467492025878438,0.002,-0.0173418040752411));
#613=CARTESIAN_POINT('',(0.00656421530079882,0.002,-0.0173418040752411));
#614=CARTESIAN_POINT('',(-0.0429207719862462,0.002,0.0120707470923662));
#615=CARTESIAN_POINT('',(-0.0429207719862462,-0.013,0.0120707470923662));
#616=CARTESIAN_POINT('',(-0.0429207719862462,-0.013,0.0406832982599735));
#617=CARTESIAN_POINT('',(-0.0429207719862462,-0.013,-0.0165418040752411));
#618=CARTESIAN_POINT('',(-0.0429207719862462,0.002,0.0406832982599735));
#619=CARTESIAN_POINT('',(-0.0429207719862462,0.002,0.0406832982599735));
#620=CARTESIAN_POINT('',(-0.0429207719862462,0.002,0.0120707470923662));
#621=CARTESIAN_POINT('',(-0.0429207719862462,0.002,-0.0165418040752411));
#622=CARTESIAN_POINT('',(-0.0429207719862462,0.002,-0.0165418040752411));
#623=CARTESIAN_POINT('',(-0.0379207719862462,0.002,-0.0165418040752411));
#624=CARTESIAN_POINT('',(-0.0379207719862462,-0.013,-0.0165418040752411));
#625=CARTESIAN_POINT('',(-0.0379207719862462,-0.013,-0.0215418040752411));
#626=CARTESIAN_POINT('',(-0.0379207719862462,0.002,-0.0165418040752411));
#627=CARTESIAN_POINT('',(-0.0379207719862462,0.002,-0.0215418040752411));
#628=CARTESIAN_POINT('',(-0.0379207719862462,0.002,-0.0215418040752411));
#629=CARTESIAN_POINT('',(0.00659960508346555,0.002,-0.0215418040752411));
#630=CARTESIAN_POINT('',(-0.0193461457250406,0.000241246482127515,-0.0215418040752411));
#631=CARTESIAN_POINT('',(-0.0184758816262957,0.002,-0.0215418040752411));
#632=CARTESIAN_POINT('',(-0.0190100595355034,-0.00169204594567418,-0.0215418040752411));
#633=CARTESIAN_POINT('',(0.00659960508346555,0.002,-0.0215418040752411));
#634=CARTESIAN_POINT('',(0.0511199821531773,0.002,-0.0215418040752411));
#635=CARTESIAN_POINT('',(0.0511199821531773,0.002,-0.0215418040752411));
#636=CARTESIAN_POINT('',(0.0511199821531773,-0.013,-0.0215418040752411));
#637=CARTESIAN_POINT('',(0.00659960508346555,-0.013,-0.0215418040752411));
#638=CARTESIAN_POINT('',(0.00659960508346555,0.002,-0.0215418040752411));
#639=CARTESIAN_POINT('',(-0.0265088542113621,0.002,-0.0215418040752411));
#640=CARTESIAN_POINT('',(-0.0256579777694425,0.000192969000121703,-0.0215418040752411));
#641=CARTESIAN_POINT('',(-0.0263183340430259,-0.00169204594567419,-0.0215418040752411));
#642=CARTESIAN_POINT('',(0.00659960508346555,-0.00169204594567418,-0.0215418040752411));
#643=CARTESIAN_POINT('',(0.0511199821531773,0.002,-0.0165418040752411));
#644=CARTESIAN_POINT('',(0.0511199821531773,-0.013,-0.0165418040752411));
#645=CARTESIAN_POINT('',(0.0561199821531773,-0.013,-0.0165418040752411));
#646=CARTESIAN_POINT('',(0.0511199821531773,0.002,-0.0165418040752411));
#647=CARTESIAN_POINT('',(0.0561199821531773,0.002,-0.0165418040752411));
#648=CARTESIAN_POINT('',(0.0561199821531773,0.002,-0.0165418040752411));
#649=CARTESIAN_POINT('',(0.0561199821531773,0.002,0.0120707470923662));
#650=CARTESIAN_POINT('',(0.0561199821531773,-0.013,0.0120707470923662));
#651=CARTESIAN_POINT('',(0.0561199821531773,-0.013,0.0406832982599735));
#652=CARTESIAN_POINT('',(0.0561199821531773,0.002,0.0120707470923662));
#653=CARTESIAN_POINT('',(0.0561199821531773,0.002,0.0406832982599735));
#654=CARTESIAN_POINT('',(0.0561199821531773,0.002,0.0406832982599735));
#655=CARTESIAN_POINT('',(0.0511199821531772,0.002,0.0406832982599735));
#656=CARTESIAN_POINT('',(0.0511199821531772,-0.013,0.0406832982599735));
#657=CARTESIAN_POINT('',(0.0511199821531773,-0.013,0.0456832982599735));
#658=CARTESIAN_POINT('',(0.0511199821531772,0.002,0.0406832982599735));
#659=CARTESIAN_POINT('',(0.0511199821531773,0.002,0.0456832982599735));
#660=CARTESIAN_POINT('',(0.0511199821531773,0.002,0.0456832982599735));
#661=CARTESIAN_POINT('',(0.00659960508346555,0.002,0.0456832982599735));
#662=CARTESIAN_POINT('',(0.00659960508346555,-0.013,0.0456832982599735));
#663=CARTESIAN_POINT('',(-0.0379207719862462,-0.013,0.0456832982599735));
#664=CARTESIAN_POINT('',(0.00659960508346555,0.002,0.0456832982599735));
#665=CARTESIAN_POINT('',(-0.0379207719862462,0.002,0.0456832982599735));
#666=CARTESIAN_POINT('',(-0.0379207719862462,0.002,0.0456832982599735));
#667=CARTESIAN_POINT('',(0.0467492025878214,0.002,0.0376261297117365));
#668=CARTESIAN_POINT('',(0.0467492025878214,-0.013,0.0376261297117365));
#669=CARTESIAN_POINT('',(0.0511492028007988,-0.013,0.0376261297117365));
#670=CARTESIAN_POINT('',(0.0467492025878664,-0.013,0.0420261299247139));
#671=CARTESIAN_POINT('',(0.0467492025878664,0.002,0.0420261299247139));
#672=CARTESIAN_POINT('',(0.0467492025878664,0.002,0.0420261299247139));
#673=CARTESIAN_POINT('',(0.0467492025878214,0.002,0.0376261297117365));
#674=CARTESIAN_POINT('',(0.0511492028007988,0.002,0.0376261297117365));
#675=CARTESIAN_POINT('',(0.0511492028007988,0.002,0.0376261297117365));
#676=CARTESIAN_POINT('',(0.0511492028007988,0.002,0.0123421629247252));
#677=CARTESIAN_POINT('',(0.0511492028007988,-0.013,0.0123421629247252));
#678=CARTESIAN_POINT('',(0.0511492028007988,-0.013,-0.0129418038622861));
#679=CARTESIAN_POINT('',(0.0511492028007988,0.002,0.0123421629247252));
#680=CARTESIAN_POINT('',(0.0511492028007988,0.002,-0.0129418038622861));
#681=CARTESIAN_POINT('',(0.0511492028007988,0.002,-0.0129418038622861));
#682=CARTESIAN_POINT('',(0.0467492025878438,0.002,-0.0129418038622861));
#683=CARTESIAN_POINT('',(0.0467492025878438,-0.013,-0.0129418038622861));
#684=CARTESIAN_POINT('',(0.0467492025878438,0.002,-0.0129418038622861));
#685=CARTESIAN_POINT('',(-0.0336207719862463,0.002,-0.0129418038622862));
#686=CARTESIAN_POINT('',(-0.0336207719862463,-0.013,-0.0129418038622862));
#687=CARTESIAN_POINT('',(-0.0380207721992012,-0.013,-0.0129418038622862));
#688=CARTESIAN_POINT('',(-0.0336207719862463,0.002,-0.0129418038622862));
#689=CARTESIAN_POINT('',(-0.0380207721992012,0.002,-0.0129418038622862));
#690=CARTESIAN_POINT('',(-0.0380207721992012,0.002,-0.0129418038622862));
#691=CARTESIAN_POINT('',(-0.0380207721992012,0.002,0.0123421629247138));
#692=CARTESIAN_POINT('',(-0.0380207721992012,-0.013,0.0123421629247138));
#693=CARTESIAN_POINT('',(-0.0380207721992011,-0.013,0.0376261297117137));
#694=CARTESIAN_POINT('',(-0.0380207721992012,0.002,0.0123421629247138));
#695=CARTESIAN_POINT('',(-0.0380207721992011,0.002,0.0376261297117137));
#696=CARTESIAN_POINT('',(-0.0380207721992011,0.002,0.0376261297117137));
#697=CARTESIAN_POINT('',(-0.033620771986201,0.002,0.0376261297117137));
#698=CARTESIAN_POINT('',(-0.033620771986201,-0.013,0.0376261297117137));
#699=CARTESIAN_POINT('',(-0.033620771986201,-0.013,0.0420261299247139));
#700=CARTESIAN_POINT('',(-0.033620771986201,0.002,0.0376261297117137));
#701=CARTESIAN_POINT('',(-0.033620771986201,0.002,0.0420261299247139));
#702=CARTESIAN_POINT('',(-0.033620771986201,0.002,0.0420261299247139));
#703=CARTESIAN_POINT('',(0.00656421530083271,0.002,0.0420261299247139));
#704=CARTESIAN_POINT('',(0.00656421530083271,-0.013,0.0420261299247139));
#705=CARTESIAN_POINT('',(0.00656421530083271,0.002,0.0420261299247139));
#706=CARTESIAN_POINT('',(-0.0379207719862462,0.002,0.0406832982599735));
#707=CARTESIAN_POINT('',(-0.0379207719862462,-0.013,0.0406832982599735));
#708=CARTESIAN_POINT('',(-0.0379207719862462,0.002,0.0406832982599735));
#709=CARTESIAN_POINT('',(0.00659960508346554,0.002,0.0120707470923662));
#710=CARTESIAN_POINT('',(-0.0184758816262957,0.002,-0.0423418040752411));
#711=CARTESIAN_POINT('',(-0.0265088542113621,0.002,-0.0423418040752411));
#712=CARTESIAN_POINT('',(0.00659960508346554,-0.013,0.0120707470923662));
#713=CARTESIAN_POINT('',(-0.0226641967892647,-0.00169204594567418,-0.0423418040752411));
#714=CARTESIAN_POINT('',(-0.0263183340430259,-0.00169204594567419,-0.0423418040752411));
#715=CARTESIAN_POINT('',(-0.0190100595355034,-0.00169204594567418,-0.0423418040752411));
#716=CARTESIAN_POINT('',(-0.0193461457250406,0.000241246482127515,-0.0423418040752411));
#717=CARTESIAN_POINT('',(-0.0256579777694425,0.000192969000121703,-0.0423418040752411));
#718=MECHANICAL_DESIGN_GEOMETRIC_PRESENTATION_REPRESENTATION('',(#419),
#719);
#719=(
GEOMETRIC_REPRESENTATION_CONTEXT(3)
GLOBAL_UNCERTAINTY_ASSIGNED_CONTEXT((#720))
GLOBAL_UNIT_ASSIGNED_CONTEXT((#723,#722,#721))
REPRESENTATION_CONTEXT('Part 193','TOP_LEVEL_ASSEMBLY_PART')
);
#720=UNCERTAINTY_MEASURE_WITH_UNIT(LENGTH_MEASURE(1.E-8),#723,
'DISTANCE_ACCURACY_VALUE','Maximum Tolerance applied to model');
#721=(
NAMED_UNIT(*)
SI_UNIT($,.STERADIAN.)
SOLID_ANGLE_UNIT()
);
#722=(
NAMED_UNIT(*)
PLANE_ANGLE_UNIT()
SI_UNIT($,.RADIAN.)
);
#723=(
LENGTH_UNIT()
NAMED_UNIT(*)
SI_UNIT($,.METRE.)
);
#724=PRODUCT_DEFINITION_SHAPE('','',#725);
#725=PRODUCT_DEFINITION('','',#727,#726);
#726=PRODUCT_DEFINITION_CONTEXT('',#733,'design');
#727=PRODUCT_DEFINITION_FORMATION_WITH_SPECIFIED_SOURCE('','',#729,
 .NOT_KNOWN.);
#728=PRODUCT_RELATED_PRODUCT_CATEGORY('','',(#729));
#729=PRODUCT('Part 193','Part 193','Part 193',(#731));
#730=PRODUCT_CATEGORY('','');
#731=PRODUCT_CONTEXT('',#733,'mechanical');
#732=APPLICATION_PROTOCOL_DEFINITION('international standard',
'ap242_managed_model_based_3d_engineering',2020,#733);
#733=APPLICATION_CONTEXT('managed model based 3d engineering');
ENDSEC;
END-ISO-10303-21;
